<?xml version="1.0" standalone="no"?>
<!DOCTYPE svg PUBLIC "-//W3C//DTD SVG 1.1//EN" "http://www.w3.org/Graphics/SVG/1.1/DTD/svg11.dtd" >
<svg>
<metadata>
Created by FontForge 20110222 at Thu Apr 10 17:10:38 2014
 By Orthosie Webhosting
Copyright (c) 2011 - 2012 Linotype Corp., www.linotype.com. All rights reserved. This font software may not be reproduced, modified, disclosed or transferred without the express written approval of Linotype Corp. Neue Haas Grotesk is a trademark of Linotype Corp. registered in the U.S. Patent and Trademark Office and may be registered in certain other jurisdictions in the name of Linotype Corp. or its licensee Linotype GmbH. This typeface is original artwork of Christian Schwartz. The design may be protected in certain jurisdictions.
</metadata>
<defs>
<font id="NeueHaasGroteskTextPro66MediumItalic" horiz-adv-x="645" >
  <font-face 
    font-family="NeueHaasGroteskTextPro66MediumItalic"
    font-weight="500"
    font-style="italic"
    font-stretch="normal"
    units-per-em="1000"
    panose-1="2 11 6 4 2 2 2 9 2 4"
    ascent="780"
    descent="-220"
    x-height="534"
    cap-height="744"
    bbox="-304 -255 1289 982"
    underline-thickness="50"
    underline-position="-50"
    slope="-11"
    unicode-range="U+000D-FB04"
  />
<missing-glyph horiz-adv-x="500" 
 />
    <glyph glyph-name="f_f" unicode="ff" horiz-adv-x="677" 
d="M155 534l13 66q8 42 23 67.5t38 42.5q20 16 49.5 23.5t64.5 7.5q36 0 77 -9l-17 -91q-30 3 -50 2t-32.5 -6.5t-19.5 -17t-10 -29.5l-11 -56h188l14 72q8 43 23.5 69.5t40.5 43.5q20 14 49 21t62 7q38 0 79 -9l-18 -91q-30 3 -50.5 2t-33.5 -6.5t-20 -17t-11 -29.5
l-12 -62h108l-17 -86h-108l-86 -448h-124l87 448h-188l-87 -448h-124l86 448h-77l18 86h76z" />
    <glyph glyph-name="fi" unicode="fi" horiz-adv-x="598" 
d="M156 534l14 72q8 41 22 66.5t37 42.5q22 17 53 24.5t69 7.5q17 -1 35.5 -2.5t37.5 -6.5l-17 -91q-30 3 -50.5 2t-34 -6.5t-20.5 -17t-10 -29.5l-12 -62h107l-17 -86h-107l-87 -448h-124l87 448h-78l18 86h77zM468 534h125l-104 -534h-125zM483 621l25 123h127l-25 -123
h-127z" />
    <glyph glyph-name="fl" unicode="fl" horiz-adv-x="600" 
d="M170 606q8 43 23.5 69t40.5 43q41 29 112 29q37 0 78 -9l-17 -91q-30 3 -50.5 2t-34 -6.5t-20.5 -17t-10 -29.5l-12 -62h107l-17 -86h-107l-87 -448h-124l87 448h-78l18 86h77zM509 744h125l-145 -744h-125z" />
    <glyph glyph-name="f_f_i" unicode="ffi" horiz-adv-x="909" 
d="M155 534l13 66q8 42 23 67.5t38 42.5q20 16 49.5 23.5t64.5 7.5q36 0 77 -9l-17 -91q-30 3 -50 2t-32.5 -6.5t-19.5 -17t-10 -29.5l-11 -56h188l14 72q8 42 23.5 68.5t40.5 43.5q21 15 51 22t65 7q18 -1 36 -2.5t38 -6.5l-17 -91q-30 3 -50.5 2t-34 -6.5t-20.5 -17
t-10 -29.5l-12 -62h107l-17 -86h-107l-87 -448h-124l87 448h-188l-87 -448h-124l86 448h-77l18 86h76zM780 534h125l-104 -534h-125zM795 621l25 123h127l-25 -123h-127z" />
    <glyph glyph-name="f_f_l" unicode="ffl" horiz-adv-x="912" 
d="M155 534l13 66q8 42 23 67.5t38 42.5q20 16 49.5 23.5t64.5 7.5q36 0 77 -9l-17 -91q-30 3 -50 2t-32.5 -6.5t-19.5 -17t-10 -29.5l-11 -56h188l14 72q8 43 23.5 69.5t41.5 43.5q20 14 48.5 21t62.5 7q37 0 78 -9l-17 -91q-30 3 -50.5 2t-34 -6.5t-20.5 -17t-10 -29.5
l-12 -62h107l-17 -86h-107l-87 -448h-124l87 448h-188l-87 -448h-124l86 448h-77l18 86h76zM821 744h125l-145 -744h-125z" />
    <glyph glyph-name=".notdef" horiz-adv-x="500" 
 />
    <glyph glyph-name=".null" horiz-adv-x="0" 
 />
    <glyph glyph-name=".null" horiz-adv-x="0" 
 />
    <glyph glyph-name="nonmarkingreturn" unicode="&#xd;" horiz-adv-x="0" 
 />
    <glyph glyph-name="space" unicode=" " horiz-adv-x="241" 
 />
    <glyph glyph-name="exclam" unicode="!" horiz-adv-x="273" 
d="M126 539l40 205h131l-41 -212l-93 -293h-65zM45 139h137l-27 -139h-137z" />
    <glyph glyph-name="quotedbl" unicode="&#x22;" horiz-adv-x="400" 
d="M333 744h110l-53 -268h-110zM146 744h111l-53 -268h-110z" />
    <glyph glyph-name="numbersign" unicode="#" horiz-adv-x="595" 
d="M344 194h-124l-41 -194h-86l41 194h-100l23 98h98l29 140h-99l23 98h97l39 183h87l-39 -183h123l39 183h87l-39 -183h101l-23 -98h-99l-29 -140h101l-24 -98h-98l-41 -194h-87zM241 292h124l29 140h-123z" />
    <glyph glyph-name="dollar" unicode="$" horiz-adv-x="635" 
d="M235 -2q-105 17 -160 78.5t-56 150.5h131q8 -106 105 -130l43 221q-42 14 -78 31t-62.5 40.5t-41.5 55t-15 74.5q0 45 18 83t51.5 65t81.5 42t109 15h16l15 75h61l-16 -82q85 -16 133 -67t53 -126h-124q-3 34 -24 58.5t-57 36.5l-39 -197h1q43 -14 81.5 -31.5t67.5 -42.5
t45.5 -59t16.5 -80q0 -48 -19.5 -88t-55.5 -68.5t-86.5 -44.5t-112.5 -16h-11.5t-10.5 1l-21 -110h-61zM457 198q0 36 -24 58.5t-78 42.5l-41 -208h4q62 0 100.5 28t38.5 79zM231 534q-1 -32 21 -53t70 -40l36 187h-3q-61 0 -92 -26t-32 -68z" />
    <glyph glyph-name="percent" unicode="%" horiz-adv-x="900" 
d="M675 712h82l-494 -712h-82zM240 313q-74 0 -118 47t-44 125q0 52 15 96.5t41.5 77t63 51t79.5 18.5q75 0 117 -46.5t42 -124.5q0 -53 -15 -97.5t-41.5 -77t-62.5 -51t-77 -18.5zM241 388q23 0 41.5 15.5t31 41t19.5 58.5t7 67q0 40 -16.5 63t-48.5 23q-23 0 -41.5 -15.5
t-31 -40.5t-19 -57.5t-6.5 -66.5q0 -40 15 -64t49 -24zM663 -17q-36 0 -66 12t-51 34.5t-32.5 54t-11.5 70.5q0 52 15 96.5t41 77.5t62.5 51.5t79.5 18.5q75 0 117 -47t42 -125q0 -53 -15 -97.5t-41.5 -76.5t-62.5 -50.5t-77 -18.5zM665 57q23 0 41 16t30.5 41.5t19 58.5
t6.5 67q0 40 -16 62.5t-48 22.5q-23 0 -41.5 -15.5t-31 -40.5t-19 -57.5t-6.5 -66.5q0 -40 15 -64t50 -24z" />
    <glyph glyph-name="ampersand" unicode="&#x26;" horiz-adv-x="683" 
d="M269 -14q-52 0 -97 12.5t-78 37.5t-52 62t-19 87q0 48 15 85.5t42.5 67t65.5 52t84 40.5l-2 4q-21 31 -32 63.5t-11 70.5q0 39 13.5 72.5t39.5 59t63 40t84 14.5q36 0 67.5 -10t55.5 -29.5t38 -48t14 -64.5q0 -38 -13 -69t-36.5 -56t-54.5 -44.5t-67 -34.5l17 -27
l85 -147q19 32 31.5 69t20.5 75h109q-12 -66 -36.5 -125.5t-62.5 -109.5l84 -133h-142l-23 37l-7 10q-39 -28 -87.5 -44.5t-108.5 -16.5zM281 87q37 0 69 12t61 33l-135 223q-57 -27 -89 -65.5t-32 -92.5q0 -53 35.5 -81.5t90.5 -28.5zM303 575q0 -26 10 -50.5t28 -46.5
l5 -8q54 25 76.5 56t22.5 69q0 31 -18 49.5t-46 18.5q-38 0 -58 -25.5t-20 -62.5z" />
    <glyph glyph-name="quotesingle" unicode="'" horiz-adv-x="213" 
d="M146 744h111l-53 -268h-110z" />
    <glyph glyph-name="parenleft" unicode="(" horiz-adv-x="348" 
d="M165 -134q-41 75 -66.5 164.5t-25.5 191.5q0 91 19.5 171.5t54 151t81.5 130.5t101 109h108q-55 -61 -98.5 -126t-73.5 -137.5t-46 -153t-16 -171.5q0 -92 15.5 -175t44.5 -155h-98v0z" />
    <glyph glyph-name="parenright" unicode=")" horiz-adv-x="348" 
d="M-64 -134q55 61 99 126.5t74.5 138t46.5 152.5t16 171q0 93 -16 175.5t-46 154.5h99q41 -74 67 -163.5t26 -192.5q0 -91 -20 -171.5t-54.5 -151t-81.5 -130.5t-101 -109h-109v0z" />
    <glyph glyph-name="asterisk" unicode="*" horiz-adv-x="436" 
d="M120 443l92 105l-105 38l35 67l106 -37l26 128h79l-26 -128l117 36l15 -68l-124 -39l56 -107l-68 -40l-53 111l-94 -111z" />
    <glyph glyph-name="plus" unicode="+" horiz-adv-x="595" 
d="M83 390h187l40 201h105l-40 -201h189l-19 -98h-189l-39 -202h-105l39 202h-187z" />
    <glyph glyph-name="comma" unicode="," horiz-adv-x="234" 
d="M-22 -110q29 5 51 25.5t30 71.5l3 13h-64l27 139h138l-30 -155q-8 -41 -22.5 -69t-35.5 -46t-48.5 -27t-60.5 -11z" />
    <glyph glyph-name="hyphen" unicode="-" horiz-adv-x="364" 
d="M57 329h277l-21 -109h-277z" />
    <glyph glyph-name="period" unicode="." horiz-adv-x="234" 
d="M25 139h138l-27 -139h-138z" />
    <glyph glyph-name="slash" unicode="/" horiz-adv-x="446" 
d="M421 784h120l-517 -918h-121z" />
    <glyph glyph-name="zero" unicode="0" horiz-adv-x="669" 
d="M314 -17q-64 0 -112.5 21.5t-81.5 60.5t-50 92.5t-17 117.5q0 90 24.5 172t70 144.5t109 99.5t141.5 37q61 0 109 -21t81 -59t50 -91t17 -118q0 -91 -23 -173.5t-67 -145.5t-107.5 -100t-143.5 -37zM316 87q52 0 90.5 32t64.5 83t39 115t13 127q0 83 -31.5 132.5
t-98.5 49.5q-49 0 -87.5 -32.5t-65 -83.5t-40.5 -114.5t-14 -125.5q0 -84 31 -133.5t99 -49.5z" />
    <glyph glyph-name="one" unicode="1" horiz-adv-x="410" 
d="M236 489h-163l17 86q77 2 133 34t86 109h101l-140 -718h-128z" />
    <glyph glyph-name="two" unicode="2" horiz-adv-x="595" 
d="M-17 0q13 75 42.5 124.5t71.5 85.5q54 48 117.5 81.5t122.5 65.5q31 16 56.5 32.5t43.5 35.5t27.5 42.5t9.5 54.5q0 45 -27.5 74t-78.5 29q-30 0 -51.5 -7.5t-39.5 -24.5q-23 -18 -37.5 -50t-22.5 -76h-127q11 69 33.5 114t55.5 77q35 33 84.5 51.5t110.5 18.5
q57 0 100.5 -15.5t73 -42.5t44.5 -63.5t15 -78.5q0 -47 -14 -82t-39 -63t-58 -50t-70 -44q-31 -20 -66.5 -38.5t-70 -38.5t-65 -43.5t-52.5 -54.5l-1 -2h348l-22 -112h-514v0z" />
    <glyph glyph-name="three" unicode="3" horiz-adv-x="627" 
d="M307 -17q-69 0 -122 20.5t-90 55.5q-35 35 -50.5 83t-12.5 98h125q-1 -32 7 -60.5t26.5 -49.5t48 -33t71.5 -12q63 0 102 34.5t39 96.5q0 24 -8.5 44.5t-24.5 36t-39 24.5t-53 9h-48l18 92h38q152 0 152 110q0 44 -28 72t-81 28q-63 0 -102.5 -38.5t-47.5 -102.5h-126
q7 55 30.5 99t60 74.5t85 47t107.5 16.5q48 0 90.5 -12.5t74 -36t49.5 -58t18 -79.5q0 -66 -40 -108.5t-106 -60.5v-2q53 -17 83.5 -60.5t30.5 -98.5q0 -56 -21.5 -99t-59 -72t-88 -43.5t-108.5 -14.5z" />
    <glyph glyph-name="four" unicode="4" horiz-adv-x="624" 
d="M348 167h-332l23 115l425 438h119l-90 -456h108l-19 -97h-108l-33 -167h-125zM131 260l36 2q15 1 32.5 1.5t32.5 0.5h135l42 211q2 15 6.5 32.5t9.5 33.5l10 36h-2q-13 -17 -26 -33q-11 -14 -25 -29.5t-27 -28.5l-129 -133q-13 -14 -29.5 -29.5t-30.5 -29.5
q-18 -16 -35 -32v-2z" />
    <glyph glyph-name="five" unicode="5" horiz-adv-x="606" 
d="M284 -17q-61 0 -109 17t-82 46.5t-52.5 68t-19.5 81.5h129q2 -21 11 -40.5t25.5 -34.5t41 -23.5t56.5 -8.5q33 0 61 12t48 33.5t31.5 52.5t11.5 70q0 55 -30.5 90.5t-87.5 35.5q-43 1 -78 -17.5t-56 -44.5h-121l131 391h409l-20 -106h-314l-60 -180h2q26 25 63 40t87 15
q39 0 76.5 -14t66.5 -41.5t46.5 -68.5t17.5 -95q0 -63 -21 -114.5t-59 -88t-90 -56.5t-114 -20z" />
    <glyph glyph-name="six" unicode="6" horiz-adv-x="626" 
d="M305 82q35 0 64 13.5t50 37t32.5 55t11.5 67.5q0 58 -36 93t-92 35q-36 0 -66.5 -12.5t-52 -34.5t-34 -52t-12.5 -66q0 -62 37 -99t98 -37zM306 -17q-63 0 -110.5 20.5t-79.5 56.5q-64 70 -64 203q0 55 9.5 111.5t28.5 108t46.5 96t62.5 75.5q40 36 88.5 55t109.5 19
q54 0 94 -15t67.5 -40.5t42 -58t17.5 -68.5h-124q-2 16 -8.5 32t-18.5 28t-30.5 19.5t-44.5 7.5q-75 0 -125.5 -63t-77.5 -173h2q71 80 179 80q46 0 85 -16t68 -45t45.5 -69t16.5 -88q0 -57 -21 -107.5t-58.5 -88t-88.5 -59t-111 -21.5z" />
    <glyph glyph-name="seven" unicode="7" horiz-adv-x="555" 
d="M86 0q18 95 57.5 185t92 168.5t113.5 143t123 108.5v2q-21 -2 -45 -3q-20 -1 -46.5 -1.5t-55.5 -0.5h-228l22 110h500l-20 -100q-60 -48 -119.5 -112.5t-110.5 -142.5t-89.5 -168t-55.5 -189h-138v0z" />
    <glyph glyph-name="eight" unicode="8" horiz-adv-x="628" 
d="M303 81q37 0 66 10.5t48 29.5t29 44t10 55q0 52 -38 86.5t-107 34.5q-74 0 -114.5 -39t-40.5 -101q0 -54 39 -87t108 -33zM364 426q58 0 93 30t35 81q0 45 -32 71.5t-87 26.5q-59 0 -95 -30t-36 -80q0 -47 34 -73t88 -26zM304 -17q-57 0 -108 14.5t-89 41.5t-60 66.5
t-22 90.5q0 42 13.5 75.5t37.5 58t56.5 41t69.5 25.5v3q-38 20 -60.5 54.5t-22.5 79.5q0 42 18.5 78t52.5 62t81 40.5t104 14.5q54 0 98.5 -13t76 -37t49 -57.5t17.5 -75.5q0 -62 -34.5 -106t-102.5 -62v-3q51 -20 79 -64t28 -98q0 -55 -21.5 -97.5t-59 -72t-89.5 -44.5
t-112 -15z" />
    <glyph glyph-name="nine" unicode="9" horiz-adv-x="630" 
d="M330 329q36 0 67 12.5t53 35t34.5 53t12.5 67.5q0 61 -37 97t-97 36q-36 0 -65.5 -13t-50.5 -35.5t-33 -53t-12 -66.5q0 -60 34.5 -96.5t93.5 -36.5zM273 -17q-56 0 -99 15.5t-73 42t-46 61.5t-19 75h124q2 -18 9 -35.5t20.5 -31t34 -22t50.5 -8.5q29 0 54 10t47 28
q32 27 57 75t42 117l-2 1q-34 -36 -77.5 -56.5t-94.5 -20.5q-48 0 -89 17t-70 47t-45.5 70t-16.5 87q0 57 21 106.5t59.5 86.5t91.5 58.5t116 21.5q58 0 102.5 -17.5t74.5 -45.5q37 -34 55.5 -81.5t18.5 -116.5q0 -60 -11 -123t-32.5 -120.5t-52.5 -105.5t-71 -79
q-75 -56 -178 -56z" />
    <glyph glyph-name="colon" unicode=":" horiz-adv-x="240" 
d="M90 457h137l-26 -138h-138zM28 139h138l-27 -139h-138z" />
    <glyph glyph-name="semicolon" unicode=";" horiz-adv-x="240" 
d="M90 457h137l-26 -138h-138zM-19 -110q29 5 51 25.5t30 71.5l3 13h-64l27 139h138l-30 -155q-8 -41 -22.5 -69t-35.5 -46t-48.5 -27t-60.5 -11z" />
    <glyph glyph-name="less" unicode="&#x3c;" horiz-adv-x="537" 
d="M58 265l23 120l453 177l-22 -116l-209 -77q-23 -8 -49 -16t-48 -15q-26 -8 -51 -15v-2q22 -7 45 -15q20 -7 42 -15.5t42 -16.5l179 -79l-22 -112z" />
    <glyph glyph-name="equal" unicode="=" horiz-adv-x="593" 
d="M103 473h473l-18 -97h-474zM64 272h474l-20 -97h-472z" />
    <glyph glyph-name="greater" unicode="&#x3e;" horiz-adv-x="537" 
d="M50 199l210 77q22 8 48 16t48 15q26 8 51 15v2q-22 8 -45 16q-20 7 -42.5 15.5t-41.5 16.5l-180 78l23 112l382 -181l-22 -121l-453 -177z" />
    <glyph glyph-name="question" unicode="?" horiz-adv-x="555" 
d="M166 139h137l-27 -139h-137zM197 239q7 40 17 67.5t24.5 48.5t34.5 38t49 35q22 14 44.5 26.5t40.5 28t29 35.5t11 50q0 36 -26 60.5t-79 24.5q-57 0 -96.5 -35.5t-49.5 -103.5h-125q15 114 86.5 178.5t193.5 64.5q51 0 93.5 -13t72.5 -37t46.5 -58.5t16.5 -76.5
q0 -36 -10.5 -64t-28 -50.5t-39 -39.5t-43.5 -30q-43 -27 -68.5 -41.5t-42.5 -31.5q-15 -15 -23 -32t-13 -44h-115z" />
    <glyph glyph-name="at" unicode="@" horiz-adv-x="929" 
d="M411 97q-69 0 -110.5 47t-41.5 125q0 56 15.5 103.5t43 82t65.5 54t83 19.5t72 -20t41 -52h1l13 62h110l-52 -270q-8 -38 2 -58t42 -20q19 0 40.5 11t39 36.5t29 66t11.5 100.5q0 71 -23 123.5t-64.5 87.5t-98 52.5t-123.5 17.5q-75 0 -142.5 -27.5t-119 -79t-81.5 -125
t-30 -165.5q0 -66 20.5 -122t60 -96.5t98 -63.5t133.5 -23q48 0 94.5 8.5t92.5 25.5l24 -67q-51 -23 -102.5 -32.5t-105.5 -9.5q-89 0 -163 26.5t-127.5 76t-83 121t-29.5 160.5q0 111 39.5 198.5t105 148t149 92t171.5 31.5q77 0 147.5 -23t124 -68t85.5 -112t32 -154
q0 -71 -16.5 -125t-45.5 -91t-68 -55.5t-83 -18.5q-55 0 -90 21.5t-45 63.5h-2q-51 -83 -138 -83zM443 181q26 0 47 13t36 35.5t23.5 53t9.5 64.5v7q0 41 -19.5 65.5t-55.5 24.5q-26 0 -46 -13.5t-34 -36.5t-21.5 -54t-7.5 -65q0 -41 15.5 -67.5t52.5 -26.5z" />
    <glyph glyph-name="A" unicode="A" horiz-adv-x="707" 
d="M374 744h145l122 -744h-142l-24 178h-276l-93 -178h-141zM252 278h209l-22 168q-4 26 -6 59.5t-4 62.5q-2 34 -3 68h-2q-13 -32 -26 -65q-11 -28 -25.5 -60t-28.5 -59z" />
    <glyph glyph-name="B" unicode="B" horiz-adv-x="690" 
d="M164 744h294q53 0 93.5 -13t66.5 -36q54 -46 54 -125q0 -70 -35.5 -113.5t-102.5 -63.5v-4q56 -15 90 -55.5t34 -101.5q0 -56 -21 -100t-60 -75q-69 -57 -191 -57h-367zM389 111q71 0 102.5 35t31.5 89q0 49 -32 75t-83 26h-188l-44 -225h213zM409 436q57 0 92.5 28.5
t35.5 84.5q0 38 -26 62.5t-74 24.5h-159l-38 -200h169z" />
    <glyph glyph-name="C" unicode="C" horiz-adv-x="740" 
d="M374 -17q-72 0 -131 23t-100.5 65.5t-64 103t-22.5 135.5q0 94 29.5 175.5t82.5 142t126.5 95.5t160.5 35q69 0 120.5 -18.5t87.5 -50.5q40 -35 59 -83t21 -101h-134q-5 60 -44.5 100.5t-117.5 40.5q-59 0 -105.5 -28t-78.5 -74.5t-49.5 -106.5t-17.5 -125
q0 -101 45.5 -158.5t137.5 -57.5q38 0 70 12.5t57 35t42.5 53.5t25.5 67h137q-15 -69 -43.5 -119.5t-76.5 -90.5q-42 -34 -96.5 -52.5t-120.5 -18.5z" />
    <glyph glyph-name="D" unicode="D" horiz-adv-x="728" 
d="M165 744h262q72 0 127 -22.5t91.5 -62.5t55.5 -95t19 -119q0 -101 -26.5 -183.5t-78.5 -140.5t-127.5 -89.5t-172.5 -31.5h-295zM320 115q67 0 116.5 24t82 67t48.5 103t16 132q0 42 -10 77t-31.5 60t-55 39t-79.5 14h-127l-101 -516h141z" />
    <glyph glyph-name="E" unicode="E" horiz-adv-x="658" 
d="M165 744h535l-22 -114h-399l-37 -189h354l-22 -108h-353l-41 -214h407l-23 -119h-544z" />
    <glyph glyph-name="F" unicode="F" horiz-adv-x="621" 
d="M164 744h519l-23 -116h-383l-38 -195h321l-22 -112h-320l-62 -321h-137z" />
    <glyph glyph-name="G" unicode="G" horiz-adv-x="769" 
d="M350 -16q-80 0 -137 27t-95 77q-32 42 -48 96t-16 116q0 114 44 211.5t123 160.5q101 86 246 86q65 0 116.5 -17t87.5 -48.5t56.5 -75t24.5 -95.5h-138q-5 54 -43 88.5t-115 34.5q-67 0 -116 -31t-81.5 -80t-48.5 -109.5t-16 -118.5q0 -102 47 -156.5t133 -54.5
q44 0 81 14t65.5 38.5t46.5 57.5t24 72l3 13h-180l21 106h308l-77 -396h-92l1 99h-3q-38 -55 -95 -85t-127 -30z" />
    <glyph glyph-name="H" unicode="H" horiz-adv-x="733" 
d="M163 744h137l-59 -300h322l59 300h136l-145 -744h-136l64 332h-322l-64 -332h-137z" />
    <glyph glyph-name="I" unicode="I" horiz-adv-x="277" 
d="M165 744h137l-145 -744h-137z" />
    <glyph glyph-name="J" unicode="J" horiz-adv-x="553" 
d="M249 -14q-57 0 -102 15t-73.5 45.5t-38.5 77.5t2 110l7 32h127l-6 -35q-7 -38 -4 -63.5t14.5 -41t30.5 -22t43 -6.5q47 0 73 28.5t37 81.5l104 536h137l-109 -555q-17 -89 -71 -143q-29 -29 -73 -44.5t-98 -15.5z" />
    <glyph glyph-name="K" unicode="K" horiz-adv-x="693" 
d="M315 356l-108 -92l-51 -264h-137l145 744h137l-34 -172q-10 -44 -19.5 -85.5t-17.5 -70.5l373 328h167l-351 -306l226 -438h-148z" />
    <glyph glyph-name="L" unicode="L" horiz-adv-x="591" 
d="M164 744h137l-122 -625h355l-24 -119h-491z" />
    <glyph glyph-name="M" unicode="M" horiz-adv-x="868" 
d="M164 744h177l54 -371q4 -32 6.5 -72.5t4.5 -76.5q2 -42 3 -86h2q16 42 32 82q14 35 30 74t32 69l202 381h187l-145 -744h-126l74 383q5 30 14.5 72t18.5 80q11 45 21 92h-2q-17 -41 -34 -81q-14 -34 -30.5 -71.5t-30.5 -65.5l-217 -409h-110l-59 409q-4 28 -6 65.5
t-4 71.5q-2 40 -3 81h-2q-7 -47 -13 -92q-5 -38 -12 -80l-12 -72l-75 -383h-122z" />
    <glyph glyph-name="N" unicode="N" horiz-adv-x="735" 
d="M164 744h141l163 -401q10 -26 21 -57t19 -58q10 -32 19 -64h2l8 70q4 30 9.5 64t11.5 63l74 383h129l-145 -744h-139l-164 399q-11 26 -21.5 57.5l-19.5 58.5q-11 32 -20 64h-2l-8 -70q-4 -30 -9 -64t-10 -63l-74 -382h-130z" />
    <glyph glyph-name="O" unicode="O" horiz-adv-x="798" 
d="M387 -17q-77 0 -138 24t-104.5 68t-66.5 105.5t-23 135.5q0 89 29 169.5t82.5 141t128 96t164.5 35.5q77 0 138 -24.5t103.5 -68.5t65 -104.5t22.5 -132.5q0 -91 -28 -172t-80.5 -141.5t-126.5 -96t-166 -35.5zM392 96q62 0 109.5 27.5t80 73.5t49.5 105.5t17 123.5
q0 103 -51.5 162t-145.5 59q-61 0 -108.5 -28t-80 -74.5t-49.5 -106t-17 -121.5q0 -49 12.5 -89.5t37.5 -70t61.5 -45.5t84.5 -16z" />
    <glyph glyph-name="P" unicode="P" horiz-adv-x="659" 
d="M164 744h293q60 0 103 -16.5t70 -45.5q25 -27 39 -63.5t14 -79.5q0 -60 -19 -108t-54.5 -81.5t-87 -51t-115.5 -17.5h-196l-55 -281h-137zM232 389h168q72 0 109 38.5t37 104.5q0 45 -27 71t-81 26h-159z" />
    <glyph glyph-name="Q" unicode="Q" horiz-adv-x="798" 
d="M563 23q-39 -19 -83 -29.5t-93 -10.5q-77 0 -138 24.5t-104.5 68.5t-66.5 105t-23 135q0 89 29 169.5t82.5 141t128 96t164.5 35.5q77 0 138 -24.5t103.5 -68.5t65 -104.5t22.5 -132.5q0 -105 -36.5 -195t-104.5 -152l74 -80l-76 -68zM392 96q47 0 89 17l-83 91l74 68
l92 -100q42 47 63 113.5t21 140.5q0 103 -51.5 162t-145.5 59q-61 0 -108.5 -28t-80 -74.5t-49.5 -106t-17 -121.5q0 -49 12.5 -89.5t37.5 -70t61.5 -45.5t84.5 -16z" />
    <glyph glyph-name="R" unicode="R" horiz-adv-x="691" 
d="M164 744h298q51 0 93.5 -14t72.5 -40.5t45.5 -64.5t11.5 -86q-4 -72 -44.5 -121.5t-123.5 -71.5v-3q50 -16 74.5 -49.5t24.5 -90.5q0 -38 -3.5 -76.5t-3.5 -65.5q0 -46 13 -52l-1 -9h-133q-5 5 -9 17.5t-4 30.5q0 30 4 68t4 78q0 53 -28 78.5t-92 25.5h-149l-58 -298
h-137zM234 401h163q75 0 112 34.5t40 91.5q2 49 -23.5 78t-88.5 29h-158z" />
    <glyph glyph-name="S" unicode="S" horiz-adv-x="667" 
d="M337 -17q-78 0 -137 19t-99 52.5t-61 80.5t-22 103h138q7 -71 50.5 -109t131.5 -38q66 0 106 30t40 83q0 24 -10 41.5t-30.5 31.5t-52 27t-73.5 28q-45 16 -83.5 33.5t-67 41.5t-45 56.5t-16.5 78.5q0 48 18 87.5t52.5 68t84.5 44.5t114 16q66 0 116.5 -16.5t85 -45.5
t53.5 -70t23 -90h-132q-5 53 -43 86t-107 33q-61 0 -95 -26.5t-34 -71.5q0 -21 9.5 -36.5t29 -29t50 -26t71.5 -27.5q46 -16 86.5 -34t71 -43.5t48 -60.5t17.5 -85t-20 -92.5t-57.5 -73.5t-91 -48.5t-119.5 -17.5z" />
    <glyph glyph-name="T" unicode="T" horiz-adv-x="652" 
d="M124 744h593l-23 -116h-229l-122 -628h-135l121 628h-228z" />
    <glyph glyph-name="U" unicode="U" horiz-adv-x="703" 
d="M346 -13q-68 0 -123.5 18t-92.5 53.5t-51.5 88.5t-0.5 123l93 474h135l-94 -482q-15 -78 19 -120.5t119 -42.5q144 0 172 149l97 496h136l-99 -510q-25 -129 -103 -188t-207 -59z" />
    <glyph glyph-name="V" unicode="V" horiz-adv-x="668" 
d="M110 744h137l48 -416q3 -27 4.5 -61.5t3.5 -65.5q2 -36 3 -74h2q14 36 28 71q12 30 26.5 63.5t27.5 59.5l214 423h144l-393 -744h-144z" />
    <glyph glyph-name="W" unicode="W" horiz-adv-x="965" 
d="M110 744h135l16 -350q2 -35 1 -79t-3 -85l-4 -96h2q14 48 30 94q14 39 29.5 82.5t30.5 77.5l158 356h134l17 -355q1 -34 1.5 -78t0.5 -83q0 -47 -1 -94h2q14 48 29 96q13 41 28.5 85.5t30.5 79.5l154 349h140l-346 -744h-133l-18 392q-2 29 -1 67.5t2 73.5q1 40 3 82h-2
q-14 -42 -27 -82q-12 -35 -25.5 -73t-26.5 -68l-175 -392h-133z" />
    <glyph glyph-name="X" unicode="X" horiz-adv-x="689" 
d="M292 390l-157 354h148l56 -136q8 -20 16 -44.5t15 -45.5q8 -25 15 -50h2q15 24 32 49q14 21 31 45t33 44l110 138h156l-297 -362l168 -382h-154l-63 160q-8 20 -15.5 44.5t-13.5 46.5q-7 26 -14 51h-2q-16 -25 -33 -50q-14 -21 -32 -45.5t-34 -45.5l-127 -161h-161z" />
    <glyph glyph-name="Y" unicode="Y" horiz-adv-x="681" 
d="M278 295l-167 449h143l67 -188q8 -23 15.5 -51t13.5 -52l14 -56h2q16 29 34 57q15 24 32.5 51.5t34.5 50.5l141 188h151l-343 -447l-59 -297h-136z" />
    <glyph glyph-name="Z" unicode="Z" horiz-adv-x="666" 
d="M11 115l385 399q18 18 40 38.5t42 38.5q23 20 46 41l1 3q-26 -2 -52 -3q-22 -1 -47 -1.5t-45 -0.5h-244l22 114h545l-21 -106l-377 -392q-20 -20 -44.5 -42.5t-46.5 -42.5q-26 -23 -51 -45v-3q28 1 55 2q23 1 49.5 2t47.5 1h282l-24 -118h-586z" />
    <glyph glyph-name="bracketleft" unicode="[" horiz-adv-x="392" 
d="M179 784h274l-18 -98h-153l-140 -721h153l-20 -99h-273z" />
    <glyph glyph-name="backslash" unicode="\" horiz-adv-x="559" 
d="M102 784h115l298 -918h-115z" />
    <glyph glyph-name="bracketright" unicode="]" horiz-adv-x="393" 
d="M-15 -35h151l140 721h-151l19 98h273l-178 -918h-274z" />
    <glyph glyph-name="asciicircum" unicode="^" horiz-adv-x="489" 
d="M281 744h111l117 -303h-118l-71 189h-2l-140 -189h-124z" />
    <glyph glyph-name="underscore" unicode="_" horiz-adv-x="430" 
d="M-70 -93h434l-16 -82h-434z" />
    <glyph glyph-name="grave" unicode="`" horiz-adv-x="530" 
d="M211 772h142l42 -154h-92z" />
    <glyph glyph-name="a" unicode="a" horiz-adv-x="549" 
d="M176 -13q-77 0 -122.5 39t-45.5 107q0 46 17 77t47.5 50.5t73.5 29.5t95 16q41 4 71 9.5t49 14.5t28 24t9 38q-1 31 -24 50.5t-69 19.5q-50 0 -80.5 -23t-39.5 -66h-118q7 39 26 71t49.5 55t72 36t93.5 13q111 0 164 -55t34 -156l-42 -219q-5 -26 -6.5 -45t0 -31.5
t4.5 -20.5t8 -12v-9h-119q-5 10 -9 25t-4 38h-3q-27 -35 -66.5 -55.5t-92.5 -20.5zM217 67q31 0 55.5 9.5t42.5 25.5t29 37.5t15 44.5l18 86q-26 -15 -56.5 -22.5t-74.5 -14.5q-54 -10 -83.5 -30t-29.5 -63q0 -39 25.5 -56t58.5 -17z" />
    <glyph glyph-name="b" unicode="b" horiz-adv-x="600" 
d="M152 744h125l-35 -178q-5 -26 -11.5 -53t-11.5 -49h2q32 41 73.5 63t92.5 22q45 0 80 -16.5t59.5 -46t37 -70.5t12.5 -91q0 -71 -19 -133.5t-53.5 -109t-82.5 -73t-107 -26.5q-65 0 -107 28t-61 73h-3l-16 -84h-120zM291 81q37 0 66 20.5t49 54t31 76.5t11 87
q0 60 -27.5 94.5t-81.5 34.5q-39 0 -70 -19t-52 -50t-32 -71t-11 -81q0 -31 7.5 -57.5t22 -46t36.5 -31t51 -11.5z" />
    <glyph glyph-name="c" unicode="c" horiz-adv-x="560" 
d="M263 -17q-54 0 -98 16.5t-74.5 47t-47 73t-16.5 95.5q0 70 21 130.5t60 105.5t94 71t122 26q53 0 93 -15t67 -41t41.5 -61t16.5 -75h-121q-2 43 -27 70t-76 27q-40 0 -71 -20.5t-52 -54.5t-32 -78t-11 -90q0 -62 28.5 -96.5t83.5 -34.5q102 0 136 115h124
q-25 -105 -93.5 -158t-167.5 -53z" />
    <glyph glyph-name="d" unicode="d" horiz-adv-x="600" 
d="M220 -17q-44 0 -80 16.5t-61.5 46.5t-39.5 73t-13 98q1 75 22 136t57 104.5t84.5 67t103.5 23.5q63 0 101.5 -27t59.5 -73h2q2 12 6.5 42.5t12.5 69.5l36 184h124l-145 -744h-120l13 68h-1q-30 -40 -70 -62.5t-92 -22.5zM261 82q38 0 68.5 18.5t52 50t33 71.5t12.5 82
q1 31 -6 57.5t-21 45.5t-36.5 30t-52.5 11q-37 1 -66 -17.5t-49 -50t-30.5 -72.5t-11.5 -85q-2 -63 24 -101.5t83 -39.5z" />
    <glyph glyph-name="e" unicode="e" horiz-adv-x="577" 
d="M270 -16q-60 0 -105 18.5t-75.5 50.5t-46 75.5t-15.5 93.5q0 67 21.5 126.5t60.5 104t93.5 70.5t120.5 26q57 0 99 -18t70 -50t41.5 -75.5t13.5 -94.5q0 -36 -6 -75h-393v-15q0 -69 32 -106t96 -37q41 0 72.5 18.5t47.5 55.5h125q-31 -81 -97 -124.5t-155 -43.5zM319 458
q-31 0 -56.5 -11.5t-45.5 -31t-34 -45.5t-22 -56h264q9 64 -17.5 104t-88.5 40z" />
    <glyph glyph-name="f" unicode="f" horiz-adv-x="366" 
d="M79 534h77l14 72q8 41 22 66.5t37 42.5q21 17 51.5 24.5t67.5 7.5t76 -9l-17 -91q-30 3 -50.5 2t-34 -6.5t-20.5 -17t-10 -29.5l-12 -62h107l-17 -86h-107l-87 -448h-124l87 448h-78z" />
    <glyph glyph-name="g" unicode="g" horiz-adv-x="591" 
d="M228 -187q-106 0 -166 43.5t-65 115.5h120q7 -29 33 -49.5t80 -20.5q58 0 90.5 30.5t43.5 83.5l4 25q2 11 7 30.5t10 35.5h-3q-29 -35 -65 -56.5t-84 -21.5q-44 0 -80 16t-62 44.5t-40 68t-14 87.5q0 67 20 122.5t54.5 96t81.5 63t100 22.5q59 0 98.5 -25.5t58.5 -72.5h1
l16 84h120l-102 -519q-11 -56 -33.5 -94.5t-55.5 -62.5t-75.5 -35t-92.5 -11zM271 122q40 0 69.5 19t49 48.5t29 65.5t9.5 71q0 57 -29.5 91t-89.5 34q-35 0 -62.5 -17t-46.5 -45t-29.5 -64.5t-10.5 -76.5q0 -57 28 -91.5t83 -34.5z" />
    <glyph glyph-name="h" unicode="h" horiz-adv-x="580" 
d="M152 744h125l-39 -201l-18 -86h2q31 44 73.5 68t98.5 24q40 0 71.5 -15.5t51.5 -42.5t27 -64.5t-2 -82.5l-68 -344h-124l66 338q10 49 -9.5 78t-71.5 29q-51 0 -90.5 -34t-50.5 -92l-62 -319h-125z" />
    <glyph glyph-name="i" unicode="i" horiz-adv-x="242" 
d="M112 534h125l-104 -534h-124zM152 744h128l-25 -123h-127z" />
    <glyph glyph-name="j" unicode="j" horiz-adv-x="242" 
d="M-38 -176q-19 0 -37.5 2.5t-32.5 5.5l18 91h3q8 -1 14 -1.5t13 -0.5q29 0 43.5 11.5t19.5 40.5l109 561h125l-111 -570q-8 -42 -23.5 -69t-36.5 -43t-47.5 -22t-56.5 -6zM152 744h128l-25 -123h-127z" />
    <glyph glyph-name="k" unicode="k" horiz-adv-x="556" 
d="M152 744h124l-54 -275q-10 -47 -18.5 -83.5t-14.5 -59.5l236 208h152l-239 -204l157 -330h-136l-116 255l-76 -63l-36 -192h-124z" />
    <glyph glyph-name="l" unicode="l" horiz-adv-x="246" 
d="M155 744h125l-145 -744h-125z" />
    <glyph glyph-name="m" unicode="m" horiz-adv-x="868" 
d="M111 534h120l-16 -84h2q33 46 73.5 72.5t94.5 26.5q50 0 82.5 -27.5t43.5 -75.5h2q38 51 83.5 77t95.5 26q38 0 67.5 -14.5t48.5 -41t25 -62.5t-2 -79l-69 -352h-123l67 346q9 47 -8.5 73t-62.5 26q-43 0 -78.5 -33t-46.5 -91l-63 -321h-125l68 345q8 48 -9 74t-59 26
q-21 0 -41.5 -8.5t-38 -24.5t-30.5 -39.5t-18 -52.5l-62 -320h-125z" />
    <glyph glyph-name="n" unicode="n" horiz-adv-x="580" 
d="M111 534h121l-16 -83h2q31 46 75.5 72t100.5 26q40 0 71.5 -15.5t51.5 -42.5t27 -64.5t-2 -82.5l-68 -344h-124l66 337q10 50 -9.5 79t-71.5 29q-51 0 -90.5 -34t-50.5 -93l-62 -318h-125z" />
    <glyph glyph-name="o" unicode="o" horiz-adv-x="596" 
d="M270 -16q-57 0 -102 18.5t-75.5 51t-47 77t-16.5 96.5q0 66 22.5 124.5t62.5 102.5t95 69.5t121 25.5q57 0 101.5 -18.5t75.5 -51t47.5 -76.5t16.5 -96q0 -67 -22.5 -126t-62.5 -102.5t-95 -69t-121 -25.5zM275 77q40 0 71 20t53 52t33.5 73.5t11.5 85.5q0 68 -30 108.5
t-90 40.5q-39 0 -70.5 -20t-53.5 -52.5t-33.5 -74.5t-11.5 -86q0 -67 30 -107t90 -40z" />
    <glyph glyph-name="p" unicode="p" horiz-adv-x="601" 
d="M314 -17q-68 0 -109 28t-60 73h-2q-1 -8 -4.5 -38t-12.5 -73l-29 -152h-124l138 713h121l-14 -71h2q32 41 74 63.5t93 22.5q45 0 80 -16.5t59.5 -46t37 -70.5t12.5 -91q0 -71 -19 -133.5t-53.5 -109t-82.5 -73t-107 -26.5zM291 81q37 0 66 20.5t49 54t31 76.5t11 87
q0 60 -27.5 94.5t-81.5 34.5q-39 0 -70 -19t-52 -50t-32 -71t-11 -81q0 -31 7.5 -57.5t22 -46t36.5 -31t51 -11.5z" />
    <glyph glyph-name="q" unicode="q" horiz-adv-x="600" 
d="M221 -17q-42 0 -78 15t-62 44.5t-40.5 71.5t-14.5 96q0 75 20.5 137.5t56.5 107.5t84.5 69.5t104.5 24.5q63 0 102.5 -27.5t60.5 -75.5h3l17 88h121l-140 -713h-124l30 152q6 31 11.5 55.5t10.5 39.5h-2q-29 -38 -69 -61.5t-92 -23.5zM263 82q39 0 70 19.5t52 52
t32.5 73.5t11.5 83q0 61 -29 99.5t-89 38.5q-38 0 -67 -19.5t-49 -51.5t-30.5 -73.5t-10.5 -86.5q0 -62 26.5 -98.5t82.5 -36.5z" />
    <glyph glyph-name="r" unicode="r" horiz-adv-x="384" 
d="M111 534h120l-19 -98h3q31 54 71 79.5t90 25.5q25 0 33 -4l-18 -114h-4q-8 2 -15.5 3.5t-18.5 1.5q-63 0 -107.5 -38.5t-60.5 -118.5l-53 -271h-125z" />
    <glyph glyph-name="s" unicode="s" horiz-adv-x="527" 
d="M248 -16q-118 0 -179 49t-65 131h121q5 -49 37 -71t86 -22q52 0 76.5 22t24.5 55q0 32 -31.5 48.5t-90.5 33.5q-34 10 -64 22t-52.5 29t-35.5 41.5t-13 60.5q0 38 15 68.5t43 52.5t67 33.5t87 11.5q107 0 160.5 -43t60.5 -115h-120q-6 73 -101 73q-45 0 -68 -18t-23 -47
q0 -15 8 -26t24 -19.5t39 -15.5t52 -16q32 -9 62 -21t53 -30.5t37.5 -45t14.5 -64.5q0 -42 -16 -74.5t-46 -55.5t-71.5 -35t-91.5 -12z" />
    <glyph glyph-name="t" unicode="t" horiz-adv-x="369" 
d="M78 534h80l33 170h123l-33 -170h100l-17 -85h-100l-58 -299q-6 -32 7 -44.5t40 -12.5q11 0 21.5 1.5l17.5 2.5h4l-17 -94q-13 -3 -31.5 -5.5t-44.5 -2.5q-65 0 -100.5 35t-21.5 107l60 312h-80z" />
    <glyph glyph-name="u" unicode="u" horiz-adv-x="574" 
d="M190 -15q-87 1 -126.5 57t-22.5 148l67 345h124l-67 -341q-4 -22 -2.5 -41t10 -33t25 -22.5t42.5 -8.5q57 0 94 34.5t48 90.5l62 321h125l-105 -535h-120l14 75h-2q-31 -42 -71.5 -66t-94.5 -24z" />
    <glyph glyph-name="v" unicode="v" horiz-adv-x="516" 
d="M60 534h125l28 -247q3 -29 5 -60.5t4 -58.5q2 -32 3 -62h3q12 30 24 61q11 26 24.5 57.5t27.5 58.5l128 251h131l-290 -534h-136z" />
    <glyph glyph-name="w" unicode="w" horiz-adv-x="790" 
d="M63 534h125l18 -247q2 -24 2.5 -52.5t1.5 -53.5q1 -29 1 -57h2q8 27 19 54q9 23 20 51t23 54l113 251h111l17 -246q2 -24 3.5 -52.5t2.5 -53.5q1 -29 2 -59h2q7 27 17 55q8 24 18.5 51.5t23.5 53.5l119 251h129l-269 -534h-121l-17 252q-2 22 -2 49.5v51.5q0 28 1 57h-2
q-12 -29 -23 -56q-10 -24 -21 -50.5t-21 -48.5l-117 -255h-118z" />
    <glyph glyph-name="x" unicode="x" horiz-adv-x="568" 
d="M214 283l-120 251h136l37 -86q5 -13 10.5 -29.5t10.5 -30.5l10 -34h2q12 17 23 34q10 14 21.5 30t21.5 30l69 86h140l-215 -251l138 -283h-138l-49 108q-5 14 -11 31.5t-11 32.5l-12 36h-2q-13 -18 -25 -36q-11 -15 -24 -32.5t-24 -31.5l-89 -108h-143z" />
    <glyph glyph-name="y" unicode="y" horiz-adv-x="532" 
d="M63 -182q-6 0 -19.5 0.5t-28 1.5t-26.5 2t-16 3l20 99h4q2 -1 8.5 -2t14.5 -1.5t16.5 -1t13.5 -0.5q61 0 87 61q1 4 3.5 14.5t5 23.5t4 27t-0.5 25l-89 464h127l39 -243q4 -26 7 -55.5t5 -55.5q2 -30 3 -60h3q10 28 22 56q10 24 23 52.5t27 54.5l132 251h131l-314 -564
q-25 -45 -47.5 -74t-46.5 -46.5t-50.5 -24.5t-57.5 -7z" />
    <glyph glyph-name="z" unicode="z" horiz-adv-x="518" 
d="M6 93l260 264q13 13 29 27t30 26q17 14 33 28v3q-20 -2 -39 -3q-17 -1 -35.5 -1.5t-32.5 -0.5h-156l19 98h409l-15 -84l-259 -264q-14 -14 -31.5 -29.5t-32.5 -28.5q-18 -16 -36 -30l-1 -4q20 1 41 3q17 2 37.5 3t37.5 1h188l-20 -101h-443z" />
    <glyph glyph-name="braceleft" unicode="{" horiz-adv-x="395" 
d="M258 -134q-106 0 -150 45t-23 148l28 149q8 39 -8 59t-64 22l19 95q49 2 71 16.5t30 52.5l33 170q9 46 25 77t41 50t59.5 26.5t81.5 7.5h54l-18 -98h-34q-41 0 -61 -16t-28 -61l-35 -180q-10 -47 -31.5 -68t-61.5 -32v-3q35 -13 47.5 -39t2.5 -75l-33 -167
q-9 -47 8 -63.5t57 -16.5h29l-20 -99h-19v0z" />
    <glyph glyph-name="bar" unicode="|" horiz-adv-x="242" 
d="M90 784h88v-918h-88v918z" />
    <glyph glyph-name="braceright" unicode="}" horiz-adv-x="394" 
d="M-16 -36h34q41 0 61 16.5t29 61.5l36 184q9 47 30.5 68t61.5 32v3q-35 14 -47 39.5t-3 75.5l32 162q8 47 -8.5 63t-56.5 16h-29l20 99h20q106 0 149.5 -44.5t22.5 -148.5l-28 -144q-8 -38 8.5 -58t64.5 -22l-19 -96q-49 -2 -71.5 -16t-30.5 -52l-33 -175q-9 -47 -25 -78
t-40.5 -50t-59.5 -26.5t-82 -7.5h-54z" />
    <glyph glyph-name="asciitilde" unicode="~" horiz-adv-x="435" 
d="M308 268q-22 0 -41 7t-36 15q-22 11 -36 17.5t-28 6.5q-17 0 -26.5 -12.5t-11.5 -34.5h-86q7 75 40 113.5t81 38.5q24 0 42.5 -8t35.5 -16q19 -11 31.5 -17t26.5 -6q35 0 40 46h85q-5 -68 -34 -109t-83 -41z" />
    <glyph glyph-name="uni00A0" unicode="&#xa0;" horiz-adv-x="238" 
 />
    <glyph glyph-name="exclamdown" unicode="&#xa1;" horiz-adv-x="273" 
d="M37 80l92 293h65l-27 -300l-40 -205h-132zM137 612h137l-27 -139h-137z" />
    <glyph glyph-name="cent" unicode="&#xa2;" horiz-adv-x="561" 
d="M207 -12q-85 15 -133 75t-48 152q0 69 21 129t59.5 104.5t91.5 71t118 28.5l17 87h60l-18 -90q84 -14 125.5 -67t46.5 -125h-121q-2 35 -19 61t-50 35l-72 -369q85 12 114 115h124q-24 -104 -91.5 -157t-165.5 -55l-20 -107h-60zM152 210q0 -103 74 -126l71 368
q-34 -6 -61 -28.5t-45.5 -55.5t-28.5 -74t-10 -84z" />
    <glyph glyph-name="sterling" unicode="&#xa3;" horiz-adv-x="600" 
d="M69 387h58q-7 29 -13 58t-6 61q0 51 17.5 91.5t50.5 69.5t79.5 44.5t105.5 15.5q116 0 183 -62t65 -184h-127q2 75 -29 110t-90 35q-58 0 -89 -34.5t-31 -94.5q0 -26 4 -53.5t9 -56.5h144l-15 -79h-121v-1q0 -63 -30.5 -107.5t-97.5 -84.5l2 -3q29 13 49.5 18.5t46.5 5.5
t46.5 -5.5t38.5 -12.5t35.5 -12.5t38.5 -5.5q32 0 58.5 13t47.5 30l50 -97q-35 -26 -76.5 -43t-85.5 -17q-37 0 -64 8.5t-50 18.5t-46.5 18.5t-53.5 8.5q-32 0 -60 -13.5t-53 -28.5l-55 100q27 16 52 36t43.5 44t30 52t11.5 61v8t-1 9h-88z" />
    <glyph glyph-name="currency" unicode="&#xa4;" horiz-adv-x="506" 
d="M272 227q51 0 78 36.5t27 93.5t-27 94t-78 37t-79.5 -37t-28.5 -94t28.5 -93.5t79.5 -36.5zM29 169l69 69q-34 53 -34 119q0 65 34 118l-69 70l63 61l68 -70q23 15 51 23.5t61 8.5q32 0 60 -8.5t51 -23.5l69 70l63 -61l-70 -70q33 -51 33 -118q0 -32 -8.5 -62.5
t-24.5 -55.5l70 -70l-63 -62l-70 70q-45 -30 -110 -30t-111 30l-69 -70z" />
    <glyph glyph-name="yen" unicode="&#xa5;" horiz-adv-x="636" 
d="M93 335h157l-145 378h139l50 -148q8 -25 17 -56t17 -58q9 -32 16 -64h2q20 32 39 64q17 27 36.5 58t37.5 56l106 148h145l-292 -378h159l-12 -59h-178l-15 -78h178l-12 -59h-178l-27 -139h-127l27 139h-179l12 59h179l15 78h-179z" />
    <glyph glyph-name="brokenbar" unicode="&#xa6;" horiz-adv-x="246" 
d="M78 784h89v-398h-89v398zM78 281h89v-415h-89v415z" />
    <glyph glyph-name="section" unicode="&#xa7;" horiz-adv-x="638" 
d="M161 8q3 -45 30.5 -73t85.5 -28q45 0 68 19.5t23 51.5q0 17 -10 32t-29.5 31.5t-48.5 35t-67 42.5q-40 25 -71 48t-52 47t-32 50.5t-11 56.5q0 66 41.5 101.5t112.5 48.5q-16 20 -24.5 42.5t-8.5 51.5q0 40 15.5 71.5t43 53.5t66 34t83.5 12q101 0 158.5 -50.5
t60.5 -133.5h-116q-4 37 -27 62.5t-76 25.5q-42 0 -63 -19.5t-21 -48.5q0 -18 8 -32t24.5 -28t41 -29.5t58.5 -35.5q34 -21 66 -43t56.5 -47t39 -54.5t14.5 -65.5q0 -34 -12 -59t-32 -43t-47.5 -29.5t-58.5 -18.5q19 -21 30.5 -46.5t11.5 -56.5q0 -42 -15.5 -75t-44 -55
t-67.5 -33.5t-85 -11.5q-54 0 -98 14t-75 40t-48 63t-18 82h120zM347 354q-29 17 -54 32t-44 28q-39 -7 -60 -25.5t-21 -48.5q0 -14 6.5 -27.5t20.5 -28.5t36.5 -32t55.5 -38q23 -16 51.5 -34t52.5 -35q36 8 61 26t25 50q0 33 -32 62t-98 71z" />
    <glyph glyph-name="dieresis" unicode="&#xa8;" horiz-adv-x="530" 
d="M408 742h120l-24 -123h-120zM190 742h120l-25 -123h-119z" />
    <glyph glyph-name="copyright" unicode="&#xa9;" horiz-adv-x="865" 
d="M454 -18q-80 0 -149.5 29t-121 81t-81 123t-29.5 154q0 84 29.5 155t81 122.5t121 81t149.5 29.5q81 0 150.5 -29.5t121 -81t81 -122.5t29.5 -155q0 -83 -29.5 -154t-81 -123t-121 -81t-150.5 -29zM454 28q70 0 130 26t103.5 71.5t68.5 108t25 135.5t-25 136t-68.5 108.5
t-103.5 71.5t-130 26t-130 -26t-103.5 -71.5t-68.5 -108.5t-25 -136t25 -135.5t68.5 -108t103.5 -71.5t130 -26zM459 145q-47 0 -86.5 17t-67.5 47t-43.5 71.5t-15.5 90.5t15 91t43 72.5t67.5 48t88.5 17.5q36 0 67 -10t54 -28q28 -20 44 -50.5t21 -65.5h-101
q-5 28 -26.5 48.5t-59.5 20.5q-27 0 -47.5 -11t-34 -30.5t-20.5 -46t-7 -56.5q0 -62 29.5 -101.5t80.5 -39.5q41 0 63.5 23.5t26.5 55.5h99q-2 -33 -15 -63.5t-36 -51.5q-26 -23 -59 -36t-80 -13z" />
    <glyph glyph-name="ordfeminine" unicode="&#xaa;" horiz-adv-x="506" 
d="M346 302q-24 -30 -59 -49.5t-80 -19.5q-33 0 -60.5 9.5t-47 27t-30.5 41t-11 51.5q0 42 15 70t42 45.5t65 26.5t84 14q72 7 104 21t32 49q0 27 -18 43.5t-58 16.5q-42 0 -68 -19t-33 -55h-111q12 68 69 111t147 43q98 0 145.5 -48.5t30.5 -137.5l-42 -215
q-7 -33 -4.5 -51t10.5 -24l-2 -7h-111q-6 9 -8 22t1 35h-2zM383 481q-23 -13 -49.5 -18.5t-65.5 -12.5q-48 -8 -70.5 -26t-22.5 -53q0 -31 18.5 -45.5t47.5 -14.5q56 0 87.5 27.5t39.5 68.5z" />
    <glyph glyph-name="guillemotleft" unicode="&#xab;" horiz-adv-x="506" 
d="M274 217l23 121l185 147l-24 -124l-116 -90v-2l79 -98l-21 -111zM60 217l24 121l184 147l-24 -124l-116 -90v-2l79 -98l-21 -111z" />
    <glyph glyph-name="logicalnot" unicode="&#xac;" horiz-adv-x="546" 
d="M93 440h418l-53 -274h-106l33 173h-312z" />
    <glyph glyph-name="uni00AD" unicode="&#xad;" horiz-adv-x="364" 
d="M57 329h277l-21 -109h-277z" />
    <glyph glyph-name="registered" unicode="&#xae;" horiz-adv-x="657" 
d="M369 172q-60 0 -113 22t-92 61t-61.5 92.5t-22.5 116.5t22.5 117t61.5 93t92 61t113 22t112.5 -22t91.5 -61t61.5 -93t22.5 -117t-22.5 -116.5t-61.5 -92.5t-91.5 -61t-112.5 -22zM369 213q52 0 96 19t76 52.5t50 79.5t18 100t-18 100.5t-50 80t-76 52.5t-96 19t-96 -19
t-76 -52.5t-50 -80t-18 -100.5t18 -100t50 -79.5t76 -52.5t96 -19zM252 619h145q44 0 74.5 -22.5t30.5 -64.5q0 -26 -14 -45t-46 -28v-2q26 -7 36.5 -19.5t13.5 -39.5q4 -27 5.5 -50.5t9.5 -26.5v-6h-70q-6 3 -8 24.5t-4 46.5q-5 45 -52 45h-49v-116h-72v304zM324 484h59
q48 0 48 40q0 17 -11.5 28t-35.5 11h-60v-79z" />
    <glyph glyph-name="macron" unicode="&#xaf;" horiz-adv-x="530" 
d="M213 728h289l-18 -91h-288z" />
    <glyph glyph-name="degree" unicode="&#xb0;" horiz-adv-x="408" 
d="M265 410q-33 0 -63 12t-52 33.5t-35 50.5t-13 62t13 62.5t35 51t52 34t63 12.5t62.5 -12.5t51.5 -34t35 -51t13 -62.5t-13 -62t-35 -50.5t-51.5 -33.5t-62.5 -12zM265 479q38 0 60 25.5t22 63.5t-22 64.5t-60 26.5t-60.5 -26.5t-22.5 -64.5t22.5 -63.5t60.5 -25.5z" />
    <glyph glyph-name="plusminus" unicode="&#xb1;" horiz-adv-x="593" 
d="M92 442h188l33 170h105l-33 -170h187l-19 -99h-188l-33 -172h-105l33 172h-187zM25 97h481l-19 -97h-480z" />
    <glyph glyph-name="twosuperior" unicode="&#xb2;" horiz-adv-x="403" 
d="M25 286q7 50 27 82.5t47 55.5q38 32 81 55.5t79 43.5q35 19 54 39.5t19 52.5q0 25 -15 41t-44 16q-17 0 -30.5 -3.5t-24.5 -13.5q-24 -23 -32 -71h-100q7 43 18.5 69.5t34.5 49.5t56 37t80 14q81 0 121 -39t40 -96q0 -53 -26.5 -84t-67.5 -57q-20 -13 -42 -24.5
t-44 -23.5t-42 -24.5t-34 -26.5q-3 -5 -3 -7h208l-18 -86h-342v0z" />
    <glyph glyph-name="threesuperior" unicode="&#xb3;" horiz-adv-x="421" 
d="M241 275q-48 0 -84 13t-59 36q-24 23 -33.5 55.5t-7.5 62.5h97q0 -17 4.5 -33t14.5 -28.5t26.5 -20t41.5 -7.5q37 0 58 20t21 52q0 31 -19 48.5t-53 17.5h-28l13 71h23q41 0 63 14.5t22 47.5q0 25 -16 40.5t-46 15.5q-38 0 -59.5 -22t-27.5 -57h-97q10 72 58.5 112.5
t128.5 40.5q32 0 61 -7.5t51 -22.5t35 -38t13 -53q0 -42 -25 -69t-70 -38v-1q35 -11 55.5 -38t20.5 -62q0 -38 -14 -66t-39 -46.5t-58 -28t-71 -9.5z" />
    <glyph glyph-name="acute" unicode="&#xb4;" horiz-adv-x="530" 
d="M351 772h150l-128 -154h-98z" />
    <glyph glyph-name="mu" unicode="&#xb5;" horiz-adv-x="576" 
d="M207 -11q-26 0 -44.5 7t-29.5 18h-2q-1 -11 -3 -25q-2 -12 -4.5 -28t-6.5 -35l-20 -105h-124l138 714h125l-67 -341q-10 -48 7 -75.5t64 -29.5q55 -2 94.5 33t50.5 92l62 321h125l-104 -535h-120l14 75h-2q-27 -40 -67.5 -63t-85.5 -23z" />
    <glyph glyph-name="paragraph" unicode="&#xb6;" horiz-adv-x="580" 
d="M292 358h-20q-44 0 -79 14t-58.5 39t-34 59.5t-6.5 75.5q4 47 23.5 86t51.5 66q30 24 69.5 35t90.5 11h277l-172 -884h-79l156 802h-81l-156 -802h-78z" />
    <glyph glyph-name="periodcentered" unicode="&#xb7;" horiz-adv-x="243" 
d="M80 398h137l-27 -140h-138z" />
    <glyph glyph-name="cedilla" unicode="&#xb8;" horiz-adv-x="530" 
d="M171 -209q-36 0 -61.5 9t-42.5 22l20 32q15 -8 31.5 -12t36.5 -4q29 0 46 10t17 30q0 14 -10 21.5t-25 7.5q-14 0 -23.5 -2t-18.5 -5l-12 26l76 74h63l-68 -55l1 -2q18 2 36 0t32.5 -9.5t23 -21t8.5 -32.5q0 -46 -37 -67.5t-93 -21.5z" />
    <glyph glyph-name="onesuperior" unicode="&#xb9;" horiz-adv-x="285" 
d="M178 588h-104l13 68q53 2 88.5 23t55.5 69h82l-90 -462h-103z" />
    <glyph glyph-name="ordmasculine" unicode="&#xba;" horiz-adv-x="545" 
d="M292 231q-50 0 -89.5 16.5t-67 45.5t-42.5 69t-15 87q0 56 19.5 106.5t54.5 89t83.5 61t106.5 22.5q50 0 90 -16.5t68 -45t43 -67.5t15 -84q0 -60 -20 -112t-55.5 -90.5t-84 -60t-106.5 -21.5zM297 316q33 0 59.5 16.5t45 44t28.5 63.5t10 76q0 57 -25 92t-76 35
q-34 0 -61 -17t-45.5 -44.5t-28 -63.5t-9.5 -75q0 -58 25.5 -92.5t76.5 -34.5z" />
    <glyph glyph-name="guillemotright" unicode="&#xbb;" horiz-adv-x="506" 
d="M53 183l117 91v2l-79 97l21 112l126 -158l-23 -121l-186 -146zM267 183l117 91v2l-79 97l21 112l125 -158l-23 -121l-185 -146z" />
    <glyph glyph-name="onequarter" unicode="&#xbc;" horiz-adv-x="868" 
d="M603 -7h-217l18 91l268 270h101l-56 -286h67l-15 -75h-66l-20 -103h-100zM723 744h97l-703 -874h-96zM179 588h-104l13 68q53 2 88.5 23t55.5 69h82l-90 -462h-103zM473 65q12 0 24 1q11 1 24 1.5t25 0.5h71l21 105q2 13 6 27t7 26q4 14 7 27h-2q-10 -12 -20 -23
q-9 -10 -19 -22t-21 -23l-54 -55q-11 -11 -23.5 -22t-22.5 -20q-12 -11 -23 -20v-3z" />
    <glyph glyph-name="onehalf" unicode="&#xbd;" horiz-adv-x="913" 
d="M441 -110q8 51 28 83t46 55q38 32 81 55.5t79 43.5q35 20 54.5 40.5t19.5 51.5q0 26 -15.5 42t-44.5 16q-33 0 -54 -18q-24 -23 -32 -71h-100q7 43 18.5 69.5t34.5 49.5q22 23 55.5 37t80.5 14q81 0 120.5 -39t39.5 -96q0 -26 -7 -46.5t-19.5 -37t-29.5 -30t-38 -26.5
q-20 -13 -42 -25l-44 -24t-41.5 -24.5t-33.5 -26.5q-2 -2 -2.5 -3.5t-1.5 -3.5h208l-17 -86h-343zM179 588h-104l13 68q53 2 88.5 23t55.5 69h82l-90 -462h-103zM719 744h97l-703 -874h-96z" />
    <glyph glyph-name="threequarters" unicode="&#xbe;" horiz-adv-x="955" 
d="M691 -7h-217l18 91l268 270h101l-56 -286h67l-15 -75h-66l-20 -103h-100zM240 275q-48 0 -84 13t-59 36q-24 23 -33.5 55.5t-7.5 62.5h97q0 -17 4.5 -33t14.5 -28.5t26.5 -20t41.5 -7.5q37 0 58 20t21 52q0 31 -19 48.5t-53 17.5h-28l13 71h23q41 0 63 14.5t22 47.5
q0 25 -16 40.5t-46 15.5q-38 0 -59.5 -22t-27.5 -57h-97q10 72 58.5 112.5t128.5 40.5q32 0 61 -7.5t51 -22.5t35 -38t13 -53q0 -42 -25 -69t-70 -38v-1q35 -11 55.5 -38t20.5 -62q0 -38 -14 -66t-39 -46.5t-58 -28t-71 -9.5zM807 744h97l-703 -874h-96zM561 65q12 0 24 1
q11 1 24 1.5t25 0.5h71l21 105q2 13 6 27t7 26q4 14 7 27h-2q-10 -12 -20 -23q-9 -10 -19 -22t-21 -23l-54 -55q-11 -11 -23.5 -22t-22.5 -20q-12 -11 -23 -20v-3z" />
    <glyph glyph-name="questiondown" unicode="&#xbf;" horiz-adv-x="555" 
d="M295 612h137l-27 -139h-137zM221 -145q-52 0 -94.5 13t-72.5 37t-46.5 58.5t-16.5 76.5q0 36 10.5 64t28 50.5t39 39t43.5 30.5q24 15 42 26t32 20t24.5 17.5t18.5 18.5q12 14 18.5 29t11.5 38h115q-7 -40 -17 -67.5t-24 -48.5t-34.5 -38t-48.5 -35q-23 -14 -45.5 -26.5
t-40.5 -28t-29 -35.5t-11 -50q0 -36 26 -60.5t79 -24.5q57 0 96.5 35.5t49.5 103.5h125q-15 -114 -86.5 -178.5t-192.5 -64.5z" />
    <glyph glyph-name="Agrave" unicode="&#xc0;" horiz-adv-x="707" 
d="M374 744h145l122 -744h-142l-24 178h-276l-93 -178h-141zM252 278h209l-22 168q-4 26 -6 59.5t-4 62.5q-2 34 -3 68h-2q-13 -32 -26 -65q-11 -28 -25.5 -60t-28.5 -59zM328 913h141l33 -128h-92z" />
    <glyph glyph-name="Aacute" unicode="&#xc1;" horiz-adv-x="707" 
d="M374 744h145l122 -744h-142l-24 178h-276l-93 -178h-141zM252 278h209l-22 168q-4 26 -6 59.5t-4 62.5q-2 34 -3 68h-2q-13 -32 -26 -65q-11 -28 -25.5 -60t-28.5 -59zM459 913h150l-118 -128h-98z" />
    <glyph glyph-name="Acircumflex" unicode="&#xc2;" horiz-adv-x="707" 
d="M374 744h145l122 -744h-142l-24 178h-276l-93 -178h-141zM252 278h209l-22 168q-4 26 -6 59.5t-4 62.5q-2 34 -3 68h-2q-13 -32 -26 -65q-11 -28 -25.5 -60t-28.5 -59zM408 908h127l80 -123h-110l-39 63h-2l-62 -63h-120z" />
    <glyph glyph-name="Atilde" unicode="&#xc3;" horiz-adv-x="707" 
d="M374 744h145l122 -744h-142l-24 178h-276l-93 -178h-141zM252 278h209l-22 168q-4 26 -6 59.5t-4 62.5q-2 34 -3 68h-2q-13 -32 -26 -65q-11 -28 -25.5 -60t-28.5 -59zM526 786q-21 0 -39 6.5t-33 15t-27.5 15t-23.5 6.5q-12 0 -22.5 -11t-13.5 -32h-74q7 63 37 94t71 31
q22 0 39 -6.5t31 -15t26 -15t25 -6.5q30 0 36 41h75q-7 -57 -34.5 -90t-72.5 -33z" />
    <glyph glyph-name="Adieresis" unicode="&#xc4;" horiz-adv-x="707" 
d="M374 744h145l122 -744h-142l-24 178h-276l-93 -178h-141zM252 278h209l-22 168q-4 26 -6 59.5t-4 62.5q-2 34 -3 68h-2q-13 -32 -26 -65q-11 -28 -25.5 -60t-28.5 -59zM523 906h122l-23 -121h-123zM303 906h123l-24 -121h-122z" />
    <glyph glyph-name="Aring" unicode="&#xc5;" horiz-adv-x="707" 
d="M374 744h145l122 -744h-142l-24 178h-276l-93 -178h-141zM466 771q-23 0 -42.5 8t-34 22.5t-23 33.5t-8.5 41t8.5 41t23 33.5t34 23t42.5 8.5q22 0 41.5 -8.5t34 -23t23 -33.5t8.5 -41t-8.5 -41t-23 -33.5t-34 -22.5t-41.5 -8zM252 278h209l-22 168q-4 26 -6 59.5
t-4 62.5q-2 34 -3 68h-2q-13 -32 -26 -65q-11 -28 -25.5 -60t-28.5 -59zM466 820q23 0 38 16t15 40t-15 40.5t-38 16.5q-24 0 -39 -16.5t-15 -40.5t15 -40t39 -16z" />
    <glyph glyph-name="AE" unicode="&#xc6;" horiz-adv-x="1012" 
d="M373 744h679l-23 -116h-365l-37 -188h320l-22 -108h-319l-41 -210h377l-24 -122h-514l35 180h-238l-96 -180h-139zM255 280h203l68 348h-84z" />
    <glyph glyph-name="Ccedilla" unicode="&#xc7;" horiz-adv-x="740" 
d="M279 -209q-36 0 -61.5 9t-42.5 22l20 32q15 -8 31.5 -12t36.5 -4q29 0 46 10t17 30q0 14 -10 21.5t-25 7.5q-14 0 -23.5 -2t-18.5 -5l-12 26l65 64q-57 10 -102.5 37t-77.5 68t-49 95.5t-17 119.5q0 94 29.5 175.5t82.5 142t126.5 95.5t160.5 35q69 0 120.5 -18.5
t87.5 -50.5q40 -35 59 -83t21 -101h-134q-5 60 -44.5 100.5t-117.5 40.5q-59 0 -105.5 -28t-78.5 -74.5t-49.5 -106.5t-17.5 -125q0 -101 45.5 -158.5t137.5 -57.5q38 0 70 12.5t57 35t42.5 53.5t25.5 67h137q-15 -69 -43.5 -119.5t-76.5 -90.5q-42 -34 -96.5 -52.5
t-120.5 -18.5h-9.5t-9.5 1l-47 -39l1 -2q18 2 36 0t32.5 -9.5t23 -21t8.5 -32.5q0 -46 -37 -67.5t-93 -21.5z" />
    <glyph glyph-name="Egrave" unicode="&#xc8;" horiz-adv-x="658" 
d="M165 744h535l-22 -114h-399l-37 -189h354l-22 -108h-353l-41 -214h407l-23 -119h-544zM319 913h141l33 -128h-92z" />
    <glyph glyph-name="Eacute" unicode="&#xc9;" horiz-adv-x="658" 
d="M165 744h535l-22 -114h-399l-37 -189h354l-22 -108h-353l-41 -214h407l-23 -119h-544zM449 913h150l-118 -128h-98z" />
    <glyph glyph-name="Ecircumflex" unicode="&#xca;" horiz-adv-x="658" 
d="M165 744h535l-22 -114h-399l-37 -189h354l-22 -108h-353l-41 -214h407l-23 -119h-544zM398 908h127l80 -123h-110l-39 63h-2l-62 -63h-120z" />
    <glyph glyph-name="Edieresis" unicode="&#xcb;" horiz-adv-x="658" 
d="M165 744h535l-22 -114h-399l-37 -189h354l-22 -108h-353l-41 -214h407l-23 -119h-544zM294 906h123l-24 -121h-122zM514 906h122l-23 -121h-123z" />
    <glyph glyph-name="Igrave" unicode="&#xcc;" horiz-adv-x="277" 
d="M165 744h137l-145 -744h-137zM119 913h141l33 -128h-92z" />
    <glyph glyph-name="Iacute" unicode="&#xcd;" horiz-adv-x="277" 
d="M165 744h137l-145 -744h-137zM249 913h150l-118 -128h-98z" />
    <glyph glyph-name="Icircumflex" unicode="&#xce;" horiz-adv-x="277" 
d="M165 744h137l-145 -744h-137zM199 908h127l80 -123h-110l-39 63h-2l-62 -63h-120z" />
    <glyph glyph-name="Idieresis" unicode="&#xcf;" horiz-adv-x="277" 
d="M165 744h137l-145 -744h-137zM303 906h118l-24 -121h-117zM109 906h117l-23 -121h-117z" />
    <glyph glyph-name="Eth" unicode="&#xd0;" horiz-adv-x="733" 
d="M45 430h64l61 314h262q72 0 126.5 -22.5t92 -62.5t56.5 -95t19 -119q0 -101 -27 -183.5t-78.5 -140.5t-127.5 -89.5t-174 -31.5h-294l63 322h-64zM325 115q67 0 116.5 24t82 67t48.5 103t16 132q0 42 -10 77t-31.5 60t-55 39t-79.5 14h-127l-40 -201h188l-21 -108h-188
l-40 -207h141z" />
    <glyph glyph-name="Ntilde" unicode="&#xd1;" horiz-adv-x="735" 
d="M548 786q-21 0 -39 6.5t-33 15t-27.5 15t-23.5 6.5q-12 0 -22.5 -11t-13.5 -32h-74q7 63 37 94t71 31q22 0 39 -6.5t31 -15t26 -15t25 -6.5q30 0 36 41h75q-7 -57 -34.5 -90t-72.5 -33zM164 744h141l163 -401q10 -26 21 -57t19 -58q10 -32 19 -64h2l8 70q4 30 9.5 64
t11.5 63l74 383h129l-145 -744h-139l-164 399q-11 26 -21.5 57.5l-19.5 58.5q-11 32 -20 64h-2l-8 -70q-4 -30 -9 -64t-10 -63l-74 -382h-130z" />
    <glyph glyph-name="Ograve" unicode="&#xd2;" horiz-adv-x="798" 
d="M353 913h141l33 -128h-92zM387 -17q-77 0 -138 24t-104.5 68t-66.5 105.5t-23 135.5q0 89 29 169.5t82.5 141t128 96t164.5 35.5q77 0 138 -24.5t103.5 -68.5t65 -104.5t22.5 -132.5q0 -91 -28 -172t-80.5 -141.5t-126.5 -96t-166 -35.5zM392 96q62 0 109.5 27.5t80 73.5
t49.5 105.5t17 123.5q0 103 -51.5 162t-145.5 59q-61 0 -108.5 -28t-80 -74.5t-49.5 -106t-17 -121.5q0 -49 12.5 -89.5t37.5 -70t61.5 -45.5t84.5 -16z" />
    <glyph glyph-name="Oacute" unicode="&#xd3;" horiz-adv-x="798" 
d="M483 913h150l-118 -128h-98zM387 -17q-77 0 -138 24t-104.5 68t-66.5 105.5t-23 135.5q0 89 29 169.5t82.5 141t128 96t164.5 35.5q77 0 138 -24.5t103.5 -68.5t65 -104.5t22.5 -132.5q0 -91 -28 -172t-80.5 -141.5t-126.5 -96t-166 -35.5zM392 96q62 0 109.5 27.5
t80 73.5t49.5 105.5t17 123.5q0 103 -51.5 162t-145.5 59q-61 0 -108.5 -28t-80 -74.5t-49.5 -106t-17 -121.5q0 -49 12.5 -89.5t37.5 -70t61.5 -45.5t84.5 -16z" />
    <glyph glyph-name="Ocircumflex" unicode="&#xd4;" horiz-adv-x="798" 
d="M387 -17q-77 0 -138 24t-104.5 68t-66.5 105.5t-23 135.5q0 89 29 169.5t82.5 141t128 96t164.5 35.5q77 0 138 -24.5t103.5 -68.5t65 -104.5t22.5 -132.5q0 -91 -28 -172t-80.5 -141.5t-126.5 -96t-166 -35.5zM392 96q62 0 109.5 27.5t80 73.5t49.5 105.5t17 123.5
q0 103 -51.5 162t-145.5 59q-61 0 -108.5 -28t-80 -74.5t-49.5 -106t-17 -121.5q0 -49 12.5 -89.5t37.5 -70t61.5 -45.5t84.5 -16zM433 908h127l80 -123h-110l-39 63h-2l-62 -63h-120z" />
    <glyph glyph-name="Otilde" unicode="&#xd5;" horiz-adv-x="798" 
d="M551 786q-21 0 -39 6.5t-33 15t-27.5 15t-23.5 6.5q-12 0 -22.5 -11t-13.5 -32h-74q7 63 37 94t71 31q22 0 39 -6.5t31 -15t26 -15t25 -6.5q30 0 36 41h75q-7 -57 -34.5 -90t-72.5 -33zM387 -17q-77 0 -138 24t-104.5 68t-66.5 105.5t-23 135.5q0 89 29 169.5t82.5 141
t128 96t164.5 35.5q77 0 138 -24.5t103.5 -68.5t65 -104.5t22.5 -132.5q0 -91 -28 -172t-80.5 -141.5t-126.5 -96t-166 -35.5zM392 96q62 0 109.5 27.5t80 73.5t49.5 105.5t17 123.5q0 103 -51.5 162t-145.5 59q-61 0 -108.5 -28t-80 -74.5t-49.5 -106t-17 -121.5
q0 -49 12.5 -89.5t37.5 -70t61.5 -45.5t84.5 -16z" />
    <glyph glyph-name="Odieresis" unicode="&#xd6;" horiz-adv-x="798" 
d="M549 906h122l-23 -121h-123zM329 906h123l-24 -121h-122zM387 -17q-77 0 -138 24t-104.5 68t-66.5 105.5t-23 135.5q0 89 29 169.5t82.5 141t128 96t164.5 35.5q77 0 138 -24.5t103.5 -68.5t65 -104.5t22.5 -132.5q0 -91 -28 -172t-80.5 -141.5t-126.5 -96t-166 -35.5z
M392 96q62 0 109.5 27.5t80 73.5t49.5 105.5t17 123.5q0 103 -51.5 162t-145.5 59q-61 0 -108.5 -28t-80 -74.5t-49.5 -106t-17 -121.5q0 -49 12.5 -89.5t37.5 -70t61.5 -45.5t84.5 -16z" />
    <glyph glyph-name="multiply" unicode="&#xd7;" horiz-adv-x="594" 
d="M57 174l189 166l-137 166l76 66l137 -165l187 165l61 -69l-190 -167l137 -164l-76 -66l-137 164l-187 -165z" />
    <glyph glyph-name="Oslash" unicode="&#xd8;" horiz-adv-x="798" 
d="M1 4l112 109q-58 82 -58 203q0 89 29 169.5t82.5 141t128 96t164.5 35.5q73 0 131.5 -22t100.5 -62l104 101l45 -45l-108 -105q27 -41 41.5 -90.5t14.5 -106.5q0 -91 -28 -172t-80.5 -141.5t-126.5 -96t-166 -35.5q-72 0 -130.5 21.5t-101.5 60.5l-111 -107zM196 317
q0 -30 4 -57t13 -50l386 375q-25 29 -62 45.5t-86 16.5q-61 0 -108.5 -28t-80 -74.5t-49.5 -106t-17 -121.5zM392 96q62 0 109.5 27.5t80 73.5t49.5 105.5t17 123.5q0 29 -4 54t-12 48l-386 -374q25 -28 61 -43t85 -15z" />
    <glyph glyph-name="Ugrave" unicode="&#xd9;" horiz-adv-x="703" 
d="M342 913h141l33 -128h-92zM346 -13q-68 0 -123.5 18t-92.5 53.5t-51.5 88.5t-0.5 123l93 474h135l-94 -482q-15 -78 19 -120.5t119 -42.5q144 0 172 149l97 496h136l-99 -510q-25 -129 -103 -188t-207 -59z" />
    <glyph glyph-name="Uacute" unicode="&#xda;" horiz-adv-x="703" 
d="M474 913h150l-118 -128h-98zM346 -13q-68 0 -123.5 18t-92.5 53.5t-51.5 88.5t-0.5 123l93 474h135l-94 -482q-15 -78 19 -120.5t119 -42.5q144 0 172 149l97 496h136l-99 -510q-25 -129 -103 -188t-207 -59z" />
    <glyph glyph-name="Ucircumflex" unicode="&#xdb;" horiz-adv-x="703" 
d="M346 -13q-68 0 -123.5 18t-92.5 53.5t-51.5 88.5t-0.5 123l93 474h135l-94 -482q-15 -78 19 -120.5t119 -42.5q144 0 172 149l97 496h136l-99 -510q-25 -129 -103 -188t-207 -59zM422 908h127l80 -123h-110l-39 63h-2l-62 -63h-120z" />
    <glyph glyph-name="Udieresis" unicode="&#xdc;" horiz-adv-x="703" 
d="M538 906h122l-23 -121h-123zM318 906h123l-24 -121h-122zM346 -13q-68 0 -123.5 18t-92.5 53.5t-51.5 88.5t-0.5 123l93 474h135l-94 -482q-15 -78 19 -120.5t119 -42.5q144 0 172 149l97 496h136l-99 -510q-25 -129 -103 -188t-207 -59z" />
    <glyph glyph-name="Yacute" unicode="&#xdd;" horiz-adv-x="681" 
d="M278 295l-167 449h143l67 -188q8 -23 15.5 -51t13.5 -52l14 -56h2q16 29 34 57q15 24 32.5 51.5t34.5 50.5l141 188h151l-343 -447l-59 -297h-136zM445 913h150l-118 -128h-98z" />
    <glyph glyph-name="Thorn" unicode="&#xde;" horiz-adv-x="661" 
d="M164 744h137l-23 -117h154q60 0 102.5 -16.5t70.5 -45.5q25 -27 39 -64t14 -80q0 -60 -19 -107.5t-55 -81t-87.5 -51t-115.5 -17.5h-193l-32 -164h-137zM255 511l-46 -239h165q72 0 109.5 38t37.5 104q0 45 -27.5 71t-80.5 26h-158z" />
    <glyph glyph-name="germandbls" unicode="&#xdf;" horiz-adv-x="571" 
d="M290 -10q-29 0 -52.5 4t-37.5 9l16 92h6q11 -3 23.5 -5t29.5 -2q66 0 104.5 40t38.5 118q0 63 -31.5 96.5t-89.5 33.5h-22l15 79h15q64 0 97.5 29t33.5 86q0 40 -23 65t-66 25q-48 0 -74 -29.5t-36 -83.5l-105 -547h-124l107 562q18 92 76.5 142.5t158.5 50.5
q46 0 84 -13t64.5 -36.5t41 -55t14.5 -68.5q0 -130 -131 -167v-3q56 -19 86 -66t30 -108t-19.5 -107.5t-53.5 -77.5t-79 -47t-97 -16z" />
    <glyph glyph-name="agrave" unicode="&#xe0;" horiz-adv-x="549" 
d="M176 -13q-77 0 -122.5 39t-45.5 107q0 46 17 77t47.5 50.5t73.5 29.5t95 16q41 4 71 9.5t49 14.5t28 24t9 38q-1 31 -24 50.5t-69 19.5q-50 0 -80.5 -23t-39.5 -66h-118q7 39 26 71t49.5 55t72 36t93.5 13q111 0 164 -55t34 -156l-42 -219q-5 -26 -6.5 -45t0 -31.5
t4.5 -20.5t8 -12v-9h-119q-5 10 -9 25t-4 38h-3q-27 -35 -66.5 -55.5t-92.5 -20.5zM217 67q31 0 55.5 9.5t42.5 25.5t29 37.5t15 44.5l18 86q-26 -15 -56.5 -22.5t-74.5 -14.5q-54 -10 -83.5 -30t-29.5 -63q0 -39 25.5 -56t58.5 -17zM191 772h142l42 -154h-92z" />
    <glyph glyph-name="aacute" unicode="&#xe1;" horiz-adv-x="549" 
d="M176 -13q-77 0 -122.5 39t-45.5 107q0 46 17 77t47.5 50.5t73.5 29.5t95 16q41 4 71 9.5t49 14.5t28 24t9 38q-1 31 -24 50.5t-69 19.5q-50 0 -80.5 -23t-39.5 -66h-118q7 39 26 71t49.5 55t72 36t93.5 13q111 0 164 -55t34 -156l-42 -219q-5 -26 -6.5 -45t0 -31.5
t4.5 -20.5t8 -12v-9h-119q-5 10 -9 25t-4 38h-3q-27 -35 -66.5 -55.5t-92.5 -20.5zM217 67q31 0 55.5 9.5t42.5 25.5t29 37.5t15 44.5l18 86q-26 -15 -56.5 -22.5t-74.5 -14.5q-54 -10 -83.5 -30t-29.5 -63q0 -39 25.5 -56t58.5 -17zM345 772h150l-128 -154h-98z" />
    <glyph glyph-name="acircumflex" unicode="&#xe2;" horiz-adv-x="549" 
d="M176 -13q-77 0 -122.5 39t-45.5 107q0 46 17 77t47.5 50.5t73.5 29.5t95 16q41 4 71 9.5t49 14.5t28 24t9 38q-1 31 -24 50.5t-69 19.5q-50 0 -80.5 -23t-39.5 -66h-118q7 39 26 71t49.5 55t72 36t93.5 13q111 0 164 -55t34 -156l-42 -219q-5 -26 -6.5 -45t0 -31.5
t4.5 -20.5t8 -12v-9h-119q-5 10 -9 25t-4 38h-3q-27 -35 -66.5 -55.5t-92.5 -20.5zM217 67q31 0 55.5 9.5t42.5 25.5t29 37.5t15 44.5l18 86q-26 -15 -56.5 -22.5t-74.5 -14.5q-54 -10 -83.5 -30t-29.5 -63q0 -39 25.5 -56t58.5 -17zM284 757h128l77 -136h-108l-38 79h-2
l-62 -79h-119z" />
    <glyph glyph-name="atilde" unicode="&#xe3;" horiz-adv-x="549" 
d="M176 -13q-77 0 -122.5 39t-45.5 107q0 46 17 77t47.5 50.5t73.5 29.5t95 16q41 4 71 9.5t49 14.5t28 24t9 38q-1 31 -24 50.5t-69 19.5q-50 0 -80.5 -23t-39.5 -66h-118q7 39 26 71t49.5 55t72 36t93.5 13q111 0 164 -55t34 -156l-42 -219q-5 -26 -6.5 -45t0 -31.5
t4.5 -20.5t8 -12v-9h-119q-5 10 -9 25t-4 38h-3q-27 -35 -66.5 -55.5t-92.5 -20.5zM217 67q31 0 55.5 9.5t42.5 25.5t29 37.5t15 44.5l18 86q-26 -15 -56.5 -22.5t-74.5 -14.5q-54 -10 -83.5 -30t-29.5 -63q0 -39 25.5 -56t58.5 -17zM403 621q-21 0 -39 6.5t-33 15t-27.5 15
t-23.5 6.5q-12 0 -22.5 -11t-13.5 -32h-73q7 63 37 94t70 31q22 0 39 -6.5t31 -14.5t26 -14.5t25 -6.5q17 0 25 10t11 30h75q-7 -57 -34.5 -90t-72.5 -33z" />
    <glyph glyph-name="adieresis" unicode="&#xe4;" horiz-adv-x="549" 
d="M176 -13q-77 0 -122.5 39t-45.5 107q0 46 17 77t47.5 50.5t73.5 29.5t95 16q41 4 71 9.5t49 14.5t28 24t9 38q-1 31 -24 50.5t-69 19.5q-50 0 -80.5 -23t-39.5 -66h-118q7 39 26 71t49.5 55t72 36t93.5 13q111 0 164 -55t34 -156l-42 -219q-5 -26 -6.5 -45t0 -31.5
t4.5 -20.5t8 -12v-9h-119q-5 10 -9 25t-4 38h-3q-27 -35 -66.5 -55.5t-92.5 -20.5zM217 67q31 0 55.5 9.5t42.5 25.5t29 37.5t15 44.5l18 86q-26 -15 -56.5 -22.5t-74.5 -14.5q-54 -10 -83.5 -30t-29.5 -63q0 -39 25.5 -56t58.5 -17zM401 742h120l-24 -123h-120zM183 742
h120l-25 -123h-119z" />
    <glyph glyph-name="aring" unicode="&#xe5;" horiz-adv-x="549" 
d="M176 -13q-77 0 -122.5 39t-45.5 107q0 46 17 77t47.5 50.5t73.5 29.5t95 16q41 4 71 9.5t49 14.5t28 24t9 38q-1 31 -24 50.5t-69 19.5q-50 0 -80.5 -23t-39.5 -66h-118q7 39 26 71t49.5 55t72 36t93.5 13q111 0 164 -55t34 -156l-42 -219q-5 -26 -6.5 -45t0 -31.5
t4.5 -20.5t8 -12v-9h-119q-5 10 -9 25t-4 38h-3q-27 -35 -66.5 -55.5t-92.5 -20.5zM335 598q-22 0 -41.5 8t-34.5 22t-23.5 33t-8.5 42q0 22 8.5 41t23.5 33.5t34.5 23t41.5 8.5t41.5 -8.5t34.5 -23t23.5 -33.5t8.5 -41q0 -23 -8.5 -42t-23.5 -33t-34.5 -22t-41.5 -8z
M217 67q31 0 55.5 9.5t42.5 25.5t29 37.5t15 44.5l18 86q-26 -15 -56.5 -22.5t-74.5 -14.5q-54 -10 -83.5 -30t-29.5 -63q0 -39 25.5 -56t58.5 -17zM335 647q24 0 39 16t15 40t-15 40.5t-39 16.5q-23 0 -38 -16.5t-15 -40.5t15 -40t38 -16z" />
    <glyph glyph-name="ae" unicode="&#xe6;" horiz-adv-x="907" 
d="M183 -13q-85 0 -130.5 39t-45.5 105q0 47 17 78.5t47.5 51t73.5 29.5t95 16q41 4 71 9.5t49 14.5t28 24t9 38q-1 31 -24 50.5t-69 19.5q-50 0 -81 -23t-39 -66h-118q7 39 26 71t49.5 55t72 36t93.5 13q65 0 107 -19t64 -55q34 35 78.5 55t101.5 20q55 0 96.5 -18
t69 -49.5t42 -75t14.5 -94.5q0 -18 -2 -37t-5 -39h-386v-15q0 -69 31 -106.5t93 -37.5q40 0 70.5 19t47.5 56h124q-30 -81 -95.5 -124.5t-153.5 -43.5q-75 0 -126.5 28.5t-79.5 78.5q-24 -32 -50.5 -52t-54 -31.5t-55.5 -16t-55 -4.5zM216 67q31 0 55.5 9.5t42 25.5
t28.5 37.5t16 44.5l18 86q-26 -15 -56.5 -22t-75.5 -15q-54 -10 -83 -30t-29 -63q0 -39 25.5 -56t58.5 -17zM653 459q-30 0 -55 -11.5t-44 -31t-33 -46t-22 -56.5h257q9 64 -17 104.5t-86 40.5z" />
    <glyph glyph-name="ccedilla" unicode="&#xe7;" horiz-adv-x="560" 
d="M176 -209q-36 0 -61.5 9t-42.5 22l20 32q15 -8 31.5 -12t36.5 -4q29 0 46 10t17 30q0 14 -10 21.5t-25 7.5q-14 0 -23.5 -2t-18.5 -5l-12 26l65 64q-81 17 -126.5 76.5t-45.5 148.5q0 70 21 130.5t60 105.5t94 71t122 26q53 0 93 -15t67 -41t41.5 -61t16.5 -75h-121
q-2 43 -27 70t-76 27q-40 0 -71 -20.5t-52 -54.5t-32 -78t-11 -90q0 -62 28.5 -96.5t83.5 -34.5q102 0 136 115h124q-25 -105 -93.5 -158t-167.5 -53h-11l-47 -38l1 -2q18 2 36 0t32.5 -9.5t23 -21t8.5 -32.5q0 -46 -37 -67.5t-93 -21.5z" />
    <glyph glyph-name="egrave" unicode="&#xe8;" horiz-adv-x="577" 
d="M270 -16q-60 0 -105 18.5t-75.5 50.5t-46 75.5t-15.5 93.5q0 67 21.5 126.5t60.5 104t93.5 70.5t120.5 26q57 0 99 -18t70 -50t41.5 -75.5t13.5 -94.5q0 -36 -6 -75h-393v-15q0 -69 32 -106t96 -37q41 0 72.5 18.5t47.5 55.5h125q-31 -81 -97 -124.5t-155 -43.5zM319 458
q-31 0 -56.5 -11.5t-45.5 -31t-34 -45.5t-22 -56h264q9 64 -17.5 104t-88.5 40zM200 772h142l42 -154h-92z" />
    <glyph glyph-name="eacute" unicode="&#xe9;" horiz-adv-x="577" 
d="M270 -16q-60 0 -105 18.5t-75.5 50.5t-46 75.5t-15.5 93.5q0 67 21.5 126.5t60.5 104t93.5 70.5t120.5 26q57 0 99 -18t70 -50t41.5 -75.5t13.5 -94.5q0 -36 -6 -75h-393v-15q0 -69 32 -106t96 -37q41 0 72.5 18.5t47.5 55.5h125q-31 -81 -97 -124.5t-155 -43.5zM319 458
q-31 0 -56.5 -11.5t-45.5 -31t-34 -45.5t-22 -56h264q9 64 -17.5 104t-88.5 40zM354 772h150l-128 -154h-98z" />
    <glyph glyph-name="ecircumflex" unicode="&#xea;" horiz-adv-x="577" 
d="M270 -16q-60 0 -105 18.5t-75.5 50.5t-46 75.5t-15.5 93.5q0 67 21.5 126.5t60.5 104t93.5 70.5t120.5 26q57 0 99 -18t70 -50t41.5 -75.5t13.5 -94.5q0 -36 -6 -75h-393v-15q0 -69 32 -106t96 -37q41 0 72.5 18.5t47.5 55.5h125q-31 -81 -97 -124.5t-155 -43.5zM319 458
q-31 0 -56.5 -11.5t-45.5 -31t-34 -45.5t-22 -56h264q9 64 -17.5 104t-88.5 40zM293 757h128l77 -136h-108l-38 79h-2l-62 -79h-119z" />
    <glyph glyph-name="edieresis" unicode="&#xeb;" horiz-adv-x="577" 
d="M270 -16q-60 0 -105 18.5t-75.5 50.5t-46 75.5t-15.5 93.5q0 67 21.5 126.5t60.5 104t93.5 70.5t120.5 26q57 0 99 -18t70 -50t41.5 -75.5t13.5 -94.5q0 -36 -6 -75h-393v-15q0 -69 32 -106t96 -37q41 0 72.5 18.5t47.5 55.5h125q-31 -81 -97 -124.5t-155 -43.5zM319 458
q-31 0 -56.5 -11.5t-45.5 -31t-34 -45.5t-22 -56h264q9 64 -17.5 104t-88.5 40zM409 742h120l-24 -123h-120zM191 742h120l-25 -123h-119z" />
    <glyph glyph-name="igrave" unicode="&#xec;" horiz-adv-x="242" 
d="M113 534h124l-104 -534h-124zM54 772h142l42 -154h-92z" />
    <glyph glyph-name="iacute" unicode="&#xed;" horiz-adv-x="242" 
d="M209 772h150l-128 -154h-98zM113 534h124l-104 -534h-124z" />
    <glyph glyph-name="icircumflex" unicode="&#xee;" horiz-adv-x="242" 
d="M148 757h128l77 -136h-108l-38 79h-2l-62 -79h-119zM113 534h124l-104 -534h-124z" />
    <glyph glyph-name="idieresis" unicode="&#xef;" horiz-adv-x="242" 
d="M113 534h124l-104 -534h-124zM245 744h109l-24 -123h-109zM78 744h108l-24 -123h-109z" />
    <glyph glyph-name="eth" unicode="&#xf0;" horiz-adv-x="598" 
d="M195 621l131 41q-20 21 -39.5 39.5t-39.5 35.5v7h145q12 -10 24.5 -21t24.5 -24l102 33l19 -52l-82 -27q42 -55 70 -128.5t28 -169.5q0 -76 -20 -143.5t-59 -118.5t-95.5 -80.5t-129.5 -29.5q-55 0 -100 17.5t-77 49.5t-49.5 77.5t-17.5 101.5q0 67 22 124t60 99
t88.5 65.5t108.5 23.5q80 0 129 -60h1q-13 38 -32 71.5t-42 63.5l-151 -48zM278 77q38 0 69 19t52.5 51t33.5 74t12 88q0 66 -30.5 105t-92.5 39q-37 0 -67.5 -18.5t-52.5 -50t-34 -73.5t-12 -90q0 -66 30 -105t92 -39z" />
    <glyph glyph-name="ntilde" unicode="&#xf1;" horiz-adv-x="580" 
d="M111 534h121l-16 -83h2q31 46 75.5 72t100.5 26q40 0 71.5 -15.5t51.5 -42.5t27 -64.5t-2 -82.5l-68 -344h-124l66 337q10 50 -9.5 79t-71.5 29q-51 0 -90.5 -34t-50.5 -93l-62 -318h-125zM427 621q-21 0 -39 6.5t-33 15t-27.5 15t-23.5 6.5q-12 0 -22.5 -11t-13.5 -32
h-73q7 63 37 94t70 31q22 0 39 -6.5t31 -14.5t26 -14.5t25 -6.5q17 0 25 10t11 30h75q-7 -57 -34.5 -90t-72.5 -33z" />
    <glyph glyph-name="ograve" unicode="&#xf2;" horiz-adv-x="596" 
d="M270 -16q-57 0 -102 18.5t-75.5 51t-47 77t-16.5 96.5q0 66 22.5 124.5t62.5 102.5t95 69.5t121 25.5q57 0 101.5 -18.5t75.5 -51t47.5 -76.5t16.5 -96q0 -67 -22.5 -126t-62.5 -102.5t-95 -69t-121 -25.5zM275 77q40 0 71 20t53 52t33.5 73.5t11.5 85.5q0 68 -30 108.5
t-90 40.5q-39 0 -70.5 -20t-53.5 -52.5t-33.5 -74.5t-11.5 -86q0 -67 30 -107t90 -40zM220 772h142l42 -154h-92z" />
    <glyph glyph-name="oacute" unicode="&#xf3;" horiz-adv-x="596" 
d="M374 772h150l-128 -154h-98zM270 -16q-57 0 -102 18.5t-75.5 51t-47 77t-16.5 96.5q0 66 22.5 124.5t62.5 102.5t95 69.5t121 25.5q57 0 101.5 -18.5t75.5 -51t47.5 -76.5t16.5 -96q0 -67 -22.5 -126t-62.5 -102.5t-95 -69t-121 -25.5zM275 77q40 0 71 20t53 52
t33.5 73.5t11.5 85.5q0 68 -30 108.5t-90 40.5q-39 0 -70.5 -20t-53.5 -52.5t-33.5 -74.5t-11.5 -86q0 -67 30 -107t90 -40z" />
    <glyph glyph-name="ocircumflex" unicode="&#xf4;" horiz-adv-x="596" 
d="M313 757h128l77 -136h-108l-38 79h-2l-62 -79h-119zM270 -16q-57 0 -102 18.5t-75.5 51t-47 77t-16.5 96.5q0 66 22.5 124.5t62.5 102.5t95 69.5t121 25.5q57 0 101.5 -18.5t75.5 -51t47.5 -76.5t16.5 -96q0 -67 -22.5 -126t-62.5 -102.5t-95 -69t-121 -25.5zM275 77
q40 0 71 20t53 52t33.5 73.5t11.5 85.5q0 68 -30 108.5t-90 40.5q-39 0 -70.5 -20t-53.5 -52.5t-33.5 -74.5t-11.5 -86q0 -67 30 -107t90 -40z" />
    <glyph glyph-name="otilde" unicode="&#xf5;" horiz-adv-x="596" 
d="M270 -16q-57 0 -102 18.5t-75.5 51t-47 77t-16.5 96.5q0 66 22.5 124.5t62.5 102.5t95 69.5t121 25.5q57 0 101.5 -18.5t75.5 -51t47.5 -76.5t16.5 -96q0 -67 -22.5 -126t-62.5 -102.5t-95 -69t-121 -25.5zM275 77q40 0 71 20t53 52t33.5 73.5t11.5 85.5q0 68 -30 108.5
t-90 40.5q-39 0 -70.5 -20t-53.5 -52.5t-33.5 -74.5t-11.5 -86q0 -67 30 -107t90 -40zM432 621q-21 0 -39 6.5t-33 15t-27.5 15t-23.5 6.5q-12 0 -22.5 -11t-13.5 -32h-73q7 63 37 94t70 31q22 0 39 -6.5t31 -14.5t26 -14.5t25 -6.5q17 0 25 10t11 30h75q-7 -57 -34.5 -90
t-72.5 -33z" />
    <glyph glyph-name="odieresis" unicode="&#xf6;" horiz-adv-x="596" 
d="M430 742h120l-24 -123h-120zM212 742h120l-25 -123h-119zM270 -16q-57 0 -102 18.5t-75.5 51t-47 77t-16.5 96.5q0 66 22.5 124.5t62.5 102.5t95 69.5t121 25.5q57 0 101.5 -18.5t75.5 -51t47.5 -76.5t16.5 -96q0 -67 -22.5 -126t-62.5 -102.5t-95 -69t-121 -25.5z
M275 77q40 0 71 20t53 52t33.5 73.5t11.5 85.5q0 68 -30 108.5t-90 40.5q-39 0 -70.5 -20t-53.5 -52.5t-33.5 -74.5t-11.5 -86q0 -67 30 -107t90 -40z" />
    <glyph glyph-name="divide" unicode="&#xf7;" horiz-adv-x="593" 
d="M295 602h137l-25 -130h-136zM86 391h473l-20 -100h-472zM219 209h137l-25 -129h-137z" />
    <glyph glyph-name="oslash" unicode="&#xf8;" horiz-adv-x="596" 
d="M-16 -6l86 84q-43 61 -43 149q0 66 22.5 124.5t63 102.5t95.5 69.5t121 25.5q52 0 93.5 -15.5t72.5 -43.5l82 79l37 -38l-84 -82q40 -60 40 -142q0 -67 -22.5 -126t-62.5 -102.5t-95 -69t-121 -25.5q-51 0 -92 14t-71 40l-85 -82zM153 224q0 -35 7 -59l257 249
q-15 20 -38.5 31.5t-55.5 11.5q-39 0 -70.5 -20t-53.5 -52.5t-34 -74.5t-12 -86zM274 77q39 0 71 20t54 52t34 73.5t12 85.5q0 28 -6 54l-254 -247q15 -18 37 -28t52 -10z" />
    <glyph glyph-name="ugrave" unicode="&#xf9;" horiz-adv-x="574" 
d="M190 -15q-87 1 -126.5 57t-22.5 148l67 345h124l-67 -341q-4 -22 -2.5 -41t10 -33t25 -22.5t42.5 -8.5q57 0 94 34.5t48 90.5l62 321h125l-105 -535h-120l14 75h-2q-31 -42 -71.5 -66t-94.5 -24zM215 772h142l42 -154h-92z" />
    <glyph glyph-name="uacute" unicode="&#xfa;" horiz-adv-x="574" 
d="M190 -15q-87 1 -126.5 57t-22.5 148l67 345h124l-67 -341q-4 -22 -2.5 -41t10 -33t25 -22.5t42.5 -8.5q57 0 94 34.5t48 90.5l62 321h125l-105 -535h-120l14 75h-2q-31 -42 -71.5 -66t-94.5 -24zM370 772h150l-128 -154h-98z" />
    <glyph glyph-name="ucircumflex" unicode="&#xfb;" horiz-adv-x="574" 
d="M190 -15q-87 1 -126.5 57t-22.5 148l67 345h124l-67 -341q-4 -22 -2.5 -41t10 -33t25 -22.5t42.5 -8.5q57 0 94 34.5t48 90.5l62 321h125l-105 -535h-120l14 75h-2q-31 -42 -71.5 -66t-94.5 -24zM309 757h128l77 -136h-108l-38 79h-2l-62 -79h-119z" />
    <glyph glyph-name="udieresis" unicode="&#xfc;" horiz-adv-x="574" 
d="M190 -15q-87 1 -126.5 57t-22.5 148l67 345h124l-67 -341q-4 -22 -2.5 -41t10 -33t25 -22.5t42.5 -8.5q57 0 94 34.5t48 90.5l62 321h125l-105 -535h-120l14 75h-2q-31 -42 -71.5 -66t-94.5 -24zM425 742h120l-24 -123h-120zM207 742h120l-25 -123h-119z" />
    <glyph glyph-name="yacute" unicode="&#xfd;" horiz-adv-x="532" 
d="M63 -182q-6 0 -19.5 0.5t-28 1.5t-26.5 2t-16 3l20 99h4q2 -1 8.5 -2t14.5 -1.5t16.5 -1t13.5 -0.5q61 0 87 61q1 4 3.5 14.5t5 23.5t4 27t-0.5 25l-89 464h127l39 -243q4 -26 7 -55.5t5 -55.5q2 -30 3 -60h3q10 28 22 56q10 24 23 52.5t27 54.5l132 251h131l-314 -564
q-25 -45 -47.5 -74t-46.5 -46.5t-50.5 -24.5t-57.5 -7zM351 772h150l-128 -154h-98z" />
    <glyph glyph-name="thorn" unicode="&#xfe;" horiz-adv-x="598" 
d="M315 -17q-68 0 -109 28t-59 73h-3q-1 -8 -4.5 -38t-12.5 -73l-29 -152h-124l180 923h124l-35 -178q-5 -29 -11 -55.5t-11 -46.5h2q32 41 73 63t92 22q45 0 80 -16.5t59.5 -46t37 -70.5t12.5 -91q0 -71 -19 -133.5t-53.5 -109t-82.5 -73t-107 -26.5zM292 81q37 0 66 20.5
t49 54t31 76.5t11 87q0 60 -27.5 94.5t-81.5 34.5q-39 0 -70 -19t-52 -50t-32 -71t-11 -81q0 -31 7.5 -57.5t22 -46t36.5 -31t51 -11.5z" />
    <glyph glyph-name="ydieresis" unicode="&#xff;" horiz-adv-x="532" 
d="M63 -182q-6 0 -19.5 0.5t-28 1.5t-26.5 2t-16 3l20 99h4q2 -1 8.5 -2t14.5 -1.5t16.5 -1t13.5 -0.5q61 0 87 61q1 4 3.5 14.5t5 23.5t4 27t-0.5 25l-89 464h127l39 -243q4 -26 7 -55.5t5 -55.5q2 -30 3 -60h3q10 28 22 56q10 24 23 52.5t27 54.5l132 251h131l-314 -564
q-25 -45 -47.5 -74t-46.5 -46.5t-50.5 -24.5t-57.5 -7zM408 742h120l-24 -123h-120zM190 742h120l-25 -123h-119z" />
    <glyph glyph-name="Amacron" unicode="&#x100;" horiz-adv-x="707" 
d="M374 744h145l122 -744h-142l-24 178h-276l-93 -178h-141zM252 278h209l-22 168q-4 26 -6 59.5t-4 62.5q-2 34 -3 68h-2q-13 -32 -26 -65q-11 -28 -25.5 -60t-28.5 -59zM323 883h294l-18 -91h-293z" />
    <glyph glyph-name="amacron" unicode="&#x101;" horiz-adv-x="549" 
d="M176 -13q-77 0 -122.5 39t-45.5 107q0 46 17 77t47.5 50.5t73.5 29.5t95 16q41 4 71 9.5t49 14.5t28 24t9 38q-1 31 -24 50.5t-69 19.5q-50 0 -80.5 -23t-39.5 -66h-118q7 39 26 71t49.5 55t72 36t93.5 13q111 0 164 -55t34 -156l-42 -219q-5 -26 -6.5 -45t0 -31.5
t4.5 -20.5t8 -12v-9h-119q-5 10 -9 25t-4 38h-3q-27 -35 -66.5 -55.5t-92.5 -20.5zM217 67q31 0 55.5 9.5t42.5 25.5t29 37.5t15 44.5l18 86q-26 -15 -56.5 -22.5t-74.5 -14.5q-54 -10 -83.5 -30t-29.5 -63q0 -39 25.5 -56t58.5 -17zM205 728h289l-18 -91h-288z" />
    <glyph glyph-name="Abreve" unicode="&#x102;" horiz-adv-x="707" 
d="M374 744h145l122 -744h-142l-24 178h-276l-93 -178h-141zM252 278h209l-22 168q-4 26 -6 59.5t-4 62.5q-2 34 -3 68h-2q-13 -32 -26 -65q-11 -28 -25.5 -60t-28.5 -59zM456 779q-31 0 -56.5 9t-43.5 26.5t-27.5 43t-7.5 57.5h77q2 -25 16 -39.5t46 -14.5q31 0 50 14
t27 40h79q-14 -63 -54.5 -99.5t-105.5 -36.5z" />
    <glyph glyph-name="abreve" unicode="&#x103;" horiz-adv-x="549" 
d="M176 -13q-77 0 -122.5 39t-45.5 107q0 46 17 77t47.5 50.5t73.5 29.5t95 16q41 4 71 9.5t49 14.5t28 24t9 38q-1 31 -24 50.5t-69 19.5q-50 0 -80.5 -23t-39.5 -66h-118q7 39 26 71t49.5 55t72 36t93.5 13q111 0 164 -55t34 -156l-42 -219q-5 -26 -6.5 -45t0 -31.5
t4.5 -20.5t8 -12v-9h-119q-5 10 -9 25t-4 38h-3q-27 -35 -66.5 -55.5t-92.5 -20.5zM217 67q31 0 55.5 9.5t42.5 25.5t29 37.5t15 44.5l18 86q-26 -15 -56.5 -22.5t-74.5 -14.5q-54 -10 -83.5 -30t-29.5 -63q0 -39 25.5 -56t58.5 -17zM330 613q-32 0 -58 10t-44 28.5
t-26.5 44.5t-5.5 59h76q0 -28 15 -44.5t47 -16.5t51.5 16t27.5 45h79q-13 -65 -54.5 -103.5t-107.5 -38.5z" />
    <glyph glyph-name="Aogonek" unicode="&#x104;" horiz-adv-x="707" 
d="M562 -187q-54 0 -81 22.5t-27 59.5q0 20 7 36.5t18.5 29t26 22.5t28.5 17h-35l-24 178h-276l-93 -178h-141l409 744h145l121 -741q-34 -14 -56.5 -37.5t-22.5 -48.5q0 -29 36 -29q20 0 35 5h2l-14 -72q-21 -8 -58 -8zM252 278h210l-23 168q-4 26 -6 59.5t-4 62.5
q-2 34 -3 68h-2q-13 -32 -26 -65q-11 -28 -25.5 -60t-28.5 -59z" />
    <glyph glyph-name="aogonek" unicode="&#x105;" horiz-adv-x="549" 
d="M395 -187q-53 0 -80 22.5t-27 59.5q0 21 7.5 37t19 29t25.5 22.5t28 16.5h-17q-5 10 -8.5 25.5t-3.5 37.5h-3q-27 -35 -67 -55.5t-93 -20.5q-77 0 -122.5 39t-45.5 107q0 46 17 77t47.5 50.5t73.5 29.5t95 16q41 4 71 9.5t49 14.5t28 24t9 38q-1 31 -24 50.5t-69 19.5
q-50 0 -80.5 -23t-39.5 -66h-118q7 39 26 71t49.5 55t72 36t93.5 13q111 0 164 -55t34 -156l-42 -219q-5 -26 -6.5 -45t0 -31.5t4.5 -20.5t8 -12v-9q-31 -14 -54 -36.5t-23 -46.5q0 -29 37 -29q19 0 34 5h3l-15 -72q-19 -8 -57 -8zM217 67q31 0 55.5 9.5t42.5 25.5t29 37.5
t15 44.5l18 86q-26 -15 -56.5 -22.5t-74.5 -14.5q-54 -10 -83.5 -30t-29.5 -63q0 -39 25.5 -56t58.5 -17z" />
    <glyph glyph-name="Cacute" unicode="&#x106;" horiz-adv-x="740" 
d="M374 -17q-72 0 -131 23t-100.5 65.5t-64 103t-22.5 135.5q0 94 29.5 175.5t82.5 142t126.5 95.5t160.5 35q69 0 120.5 -18.5t87.5 -50.5q40 -35 59 -83t21 -101h-134q-5 60 -44.5 100.5t-117.5 40.5q-59 0 -105.5 -28t-78.5 -74.5t-49.5 -106.5t-17.5 -125
q0 -101 45.5 -158.5t137.5 -57.5q38 0 70 12.5t57 35t42.5 53.5t25.5 67h137q-15 -69 -43.5 -119.5t-76.5 -90.5q-42 -34 -96.5 -52.5t-120.5 -18.5zM473 913h150l-118 -128h-98z" />
    <glyph glyph-name="cacute" unicode="&#x107;" horiz-adv-x="560" 
d="M357 772h150l-128 -154h-98zM263 -17q-54 0 -98 16.5t-74.5 47t-47 73t-16.5 95.5q0 70 21 130.5t60 105.5t94 71t122 26q53 0 93 -15t67 -41t41.5 -61t16.5 -75h-121q-2 43 -27 70t-76 27q-40 0 -71 -20.5t-52 -54.5t-32 -78t-11 -90q0 -62 28.5 -96.5t83.5 -34.5
q102 0 136 115h124q-25 -105 -93.5 -158t-167.5 -53z" />
    <glyph glyph-name="Ccircumflex" unicode="&#x108;" horiz-adv-x="740" 
d="M374 -17q-72 0 -131 23t-100.5 65.5t-64 103t-22.5 135.5q0 94 29.5 175.5t82.5 142t126.5 95.5t160.5 35q69 0 120.5 -18.5t87.5 -50.5q40 -35 59 -83t21 -101h-134q-5 60 -44.5 100.5t-117.5 40.5q-59 0 -105.5 -28t-78.5 -74.5t-49.5 -106.5t-17.5 -125
q0 -101 45.5 -158.5t137.5 -57.5q38 0 70 12.5t57 35t42.5 53.5t25.5 67h137q-15 -69 -43.5 -119.5t-76.5 -90.5q-42 -34 -96.5 -52.5t-120.5 -18.5zM423 908h127l80 -123h-110l-39 63h-2l-62 -63h-120z" />
    <glyph glyph-name="ccircumflex" unicode="&#x109;" horiz-adv-x="560" 
d="M296 757h128l77 -136h-108l-38 79h-2l-62 -79h-119zM263 -17q-54 0 -98 16.5t-74.5 47t-47 73t-16.5 95.5q0 70 21 130.5t60 105.5t94 71t122 26q53 0 93 -15t67 -41t41.5 -61t16.5 -75h-121q-2 43 -27 70t-76 27q-40 0 -71 -20.5t-52 -54.5t-32 -78t-11 -90
q0 -62 28.5 -96.5t83.5 -34.5q102 0 136 115h124q-25 -105 -93.5 -158t-167.5 -53z" />
    <glyph glyph-name="Cdotaccent" unicode="&#x10a;" horiz-adv-x="740" 
d="M426 907h128l-24 -122h-128zM374 -17q-72 0 -131 23t-100.5 65.5t-64 103t-22.5 135.5q0 94 29.5 175.5t82.5 142t126.5 95.5t160.5 35q69 0 120.5 -18.5t87.5 -50.5q40 -35 59 -83t21 -101h-134q-5 60 -44.5 100.5t-117.5 40.5q-59 0 -105.5 -28t-78.5 -74.5
t-49.5 -106.5t-17.5 -125q0 -101 45.5 -158.5t137.5 -57.5q38 0 70 12.5t57 35t42.5 53.5t25.5 67h137q-15 -69 -43.5 -119.5t-76.5 -90.5q-42 -34 -96.5 -52.5t-120.5 -18.5z" />
    <glyph glyph-name="cdotaccent" unicode="&#x10b;" horiz-adv-x="560" 
d="M263 -17q-54 0 -98 16.5t-74.5 47t-47 73t-16.5 95.5q0 70 21 130.5t60 105.5t94 71t122 26q53 0 93 -15t67 -41t41.5 -61t16.5 -75h-121q-2 43 -27 70t-76 27q-40 0 -71 -20.5t-52 -54.5t-32 -78t-11 -90q0 -62 28.5 -96.5t83.5 -34.5q102 0 136 115h124
q-25 -105 -93.5 -158t-167.5 -53zM300 744h127l-24 -123h-127z" />
    <glyph glyph-name="Ccaron" unicode="&#x10c;" horiz-adv-x="740" 
d="M374 -17q-72 0 -131 23t-100.5 65.5t-64 103t-22.5 135.5q0 94 29.5 175.5t82.5 142t126.5 95.5t160.5 35q69 0 120.5 -18.5t87.5 -50.5q40 -35 59 -83t21 -101h-134q-5 60 -44.5 100.5t-117.5 40.5q-59 0 -105.5 -28t-78.5 -74.5t-49.5 -106.5t-17.5 -125
q0 -101 45.5 -158.5t137.5 -57.5q38 0 70 12.5t57 35t42.5 53.5t25.5 67h137q-15 -69 -43.5 -119.5t-76.5 -90.5q-42 -34 -96.5 -52.5t-120.5 -18.5zM531 785h-127l-80 123h110l39 -63h2l62 63h120z" />
    <glyph glyph-name="ccaron" unicode="&#x10d;" horiz-adv-x="560" 
d="M201 755h108l39 -79h2l61 79h119l-125 -137h-127zM263 -17q-54 0 -98 16.5t-74.5 47t-47 73t-16.5 95.5q0 70 21 130.5t60 105.5t94 71t122 26q53 0 93 -15t67 -41t41.5 -61t16.5 -75h-121q-2 43 -27 70t-76 27q-40 0 -71 -20.5t-52 -54.5t-32 -78t-11 -90
q0 -62 28.5 -96.5t83.5 -34.5q102 0 136 115h124q-25 -105 -93.5 -158t-167.5 -53z" />
    <glyph glyph-name="Dcaron" unicode="&#x10e;" horiz-adv-x="728" 
d="M480 785h-127l-80 123h110l39 -63h2l62 63h120zM165 744h262q72 0 127 -22.5t91.5 -62.5t55.5 -95t19 -119q0 -101 -26.5 -183.5t-78.5 -140.5t-127.5 -89.5t-172.5 -31.5h-295zM320 115q67 0 116.5 24t82 67t48.5 103t16 132q0 42 -10 77t-31.5 60t-55 39t-79.5 14h-127
l-101 -516h141z" />
    <glyph glyph-name="dcaron" unicode="&#x10f;" horiz-adv-x="600" 
d="M220 -17q-44 0 -80 16.5t-61.5 46.5t-39.5 73t-13 98q1 75 22 136t57 104.5t84.5 67t103.5 23.5q63 0 101.5 -27t59.5 -73h2q2 12 6.5 42.5t12.5 69.5l36 184h124l-145 -744h-120l13 68h-1q-30 -40 -70 -62.5t-92 -22.5zM261 82q38 0 68.5 18.5t52 50t33 71.5t12.5 82
q1 31 -6 57.5t-21 45.5t-36.5 30t-52.5 11q-37 1 -66 -17.5t-49 -50t-30.5 -72.5t-11.5 -85q-2 -63 24 -101.5t83 -39.5zM782 659q-10 -53 -45 -78.5t-91 -27.5l9 47q29 4 43.5 16t19.5 35h-52l18 93h114z" />
    <glyph glyph-name="Dcroat" unicode="&#x110;" horiz-adv-x="733" 
d="M45 430h64l61 314h262q72 0 126.5 -22.5t92 -62.5t56.5 -95t19 -119q0 -101 -27 -183.5t-78.5 -140.5t-127.5 -89.5t-174 -31.5h-294l63 322h-64zM325 115q67 0 116.5 24t82 67t48.5 103t16 132q0 42 -10 77t-31.5 60t-55 39t-79.5 14h-127l-40 -201h188l-21 -108h-188
l-40 -207h141z" />
    <glyph glyph-name="dcroat" unicode="&#x111;" horiz-adv-x="600" 
d="M220 -17q-44 0 -80 16.5t-61.5 46.5t-39.5 73t-13 98q1 75 22 136.5t57 105t84.5 67t103.5 23.5q63 0 101.5 -27.5t59.5 -73.5h2q2 12 6.5 42.5t12.5 69.5l8 43h-140l13 70h141l14 71h124l-14 -71h64l-13 -70h-65l-117 -603h-120l13 68h-1q-30 -40 -70 -62.5t-92 -22.5z
M261 82q38 0 68.5 18.5t52 50t33 71.5t12.5 82q2 63 -26.5 103.5t-89.5 41.5q-37 0 -66 -18.5t-49 -50t-30.5 -72.5t-11.5 -85q-2 -63 24 -102t83 -39z" />
    <glyph glyph-name="Emacron" unicode="&#x112;" horiz-adv-x="658" 
d="M165 744h535l-22 -114h-399l-37 -189h354l-22 -108h-353l-41 -214h407l-23 -119h-544zM313 883h294l-18 -91h-293z" />
    <glyph glyph-name="emacron" unicode="&#x113;" horiz-adv-x="577" 
d="M270 -16q-60 0 -105 18.5t-75.5 50.5t-46 75.5t-15.5 93.5q0 67 21.5 126.5t60.5 104t93.5 70.5t120.5 26q57 0 99 -18t70 -50t41.5 -75.5t13.5 -94.5q0 -36 -6 -75h-393v-15q0 -69 32 -106t96 -37q41 0 72.5 18.5t47.5 55.5h125q-31 -81 -97 -124.5t-155 -43.5zM319 458
q-31 0 -56.5 -11.5t-45.5 -31t-34 -45.5t-22 -56h264q9 64 -17.5 104t-88.5 40zM213 728h289l-18 -91h-288z" />
    <glyph glyph-name="Ebreve" unicode="&#x114;" horiz-adv-x="658" 
d="M165 744h535l-22 -114h-399l-37 -189h354l-22 -108h-353l-41 -214h407l-23 -119h-544zM447 779q-31 0 -56.5 9t-43.5 26.5t-27.5 43t-7.5 57.5h77q2 -25 16 -39.5t46 -14.5q31 0 50 14t27 40h79q-14 -63 -54.5 -99.5t-105.5 -36.5z" />
    <glyph glyph-name="ebreve" unicode="&#x115;" horiz-adv-x="577" 
d="M270 -16q-60 0 -105 18.5t-75.5 50.5t-46 75.5t-15.5 93.5q0 67 21.5 126.5t60.5 104t93.5 70.5t120.5 26q57 0 99 -18t70 -50t41.5 -75.5t13.5 -94.5q0 -36 -6 -75h-393v-15q0 -69 32 -106t96 -37q41 0 72.5 18.5t47.5 55.5h125q-31 -81 -97 -124.5t-155 -43.5zM319 458
q-31 0 -56.5 -11.5t-45.5 -31t-34 -45.5t-22 -56h264q9 64 -17.5 104t-88.5 40zM339 613q-32 0 -58 10t-44 28.5t-26.5 44.5t-5.5 59h76q0 -28 15 -44.5t47 -16.5t51.5 16t27.5 45h79q-13 -65 -54.5 -103.5t-107.5 -38.5z" />
    <glyph glyph-name="Edotaccent" unicode="&#x116;" horiz-adv-x="658" 
d="M165 744h535l-22 -114h-399l-37 -189h354l-22 -108h-353l-41 -214h407l-23 -119h-544zM401 907h128l-24 -122h-128z" />
    <glyph glyph-name="edotaccent" unicode="&#x117;" horiz-adv-x="577" 
d="M270 -16q-60 0 -105 18.5t-75.5 50.5t-46 75.5t-15.5 93.5q0 67 21.5 126.5t60.5 104t93.5 70.5t120.5 26q57 0 99 -18t70 -50t41.5 -75.5t13.5 -94.5q0 -36 -6 -75h-393v-15q0 -69 32 -106t96 -37q41 0 72.5 18.5t47.5 55.5h125q-31 -81 -97 -124.5t-155 -43.5zM319 458
q-31 0 -56.5 -11.5t-45.5 -31t-34 -45.5t-22 -56h264q9 64 -17.5 104t-88.5 40zM297 744h127l-24 -123h-127z" />
    <glyph glyph-name="Eogonek" unicode="&#x118;" horiz-adv-x="658" 
d="M165 744h535l-22 -114h-399l-37 -189h354l-22 -108h-353l-41 -214h407l-23 -119h-53q-24 -16 -45.5 -37.5t-21.5 -45.5q0 -29 37 -29q19 0 34 5h3l-15 -72q-19 -8 -57 -8q-55 0 -82 22.5t-27 59.5q0 39 23 64.5t51 40.5h-391z" />
    <glyph glyph-name="eogonek" unicode="&#x119;" horiz-adv-x="577" 
d="M300 -187q-53 0 -80 22.5t-27 59.5q0 32 17.5 54t40.5 36q-56 3 -97.5 22.5t-69.5 51t-42 73.5t-14 90q0 67 21.5 126.5t60.5 104t93.5 70.5t120.5 26q57 0 99 -18t70 -50t41.5 -75.5t13.5 -94.5q0 -36 -6 -75h-393v-15q0 -69 32 -106t96 -37q41 0 72.5 18.5t47.5 55.5
h125q-17 -47 -46 -79.5t-65 -52.5q-19 -11 -39 -21.5t-36.5 -23t-27 -26.5t-10.5 -32q0 -29 37 -29q19 0 34 5h3l-15 -72q-19 -8 -57 -8zM319 458q-32 0 -57.5 -11.5t-45 -31t-33.5 -45.5t-22 -56h264q9 64 -17.5 104t-88.5 40z" />
    <glyph glyph-name="Ecaron" unicode="&#x11a;" horiz-adv-x="658" 
d="M165 744h535l-22 -114h-399l-37 -189h354l-22 -108h-353l-41 -214h407l-23 -119h-544zM507 785h-127l-80 123h110l39 -63h2l62 63h120z" />
    <glyph glyph-name="ecaron" unicode="&#x11b;" horiz-adv-x="577" 
d="M270 -16q-60 0 -105 18.5t-75.5 50.5t-46 75.5t-15.5 93.5q0 67 21.5 126.5t60.5 104t93.5 70.5t120.5 26q57 0 99 -18t70 -50t41.5 -75.5t13.5 -94.5q0 -36 -6 -75h-393v-15q0 -69 32 -106t96 -37q41 0 72.5 18.5t47.5 55.5h125q-31 -81 -97 -124.5t-155 -43.5zM319 458
q-31 0 -56.5 -11.5t-45.5 -31t-34 -45.5t-22 -56h264q9 64 -17.5 104t-88.5 40zM198 755h108l39 -79h2l61 79h119l-125 -137h-127z" />
    <glyph glyph-name="Gcircumflex" unicode="&#x11c;" horiz-adv-x="769" 
d="M350 -16q-80 0 -137 27t-95 77q-32 42 -48 96t-16 116q0 114 44 211.5t123 160.5q101 86 246 86q65 0 116.5 -17t87.5 -48.5t56.5 -75t24.5 -95.5h-138q-5 54 -43 88.5t-115 34.5q-67 0 -116 -31t-81.5 -80t-48.5 -109.5t-16 -118.5q0 -102 47 -156.5t133 -54.5
q44 0 81 14t65.5 38.5t46.5 57.5t24 72l3 13h-180l21 106h308l-77 -396h-92l1 99h-3q-38 -55 -95 -85t-127 -30zM433 908h127l80 -123h-110l-39 63h-2l-62 -63h-120z" />
    <glyph glyph-name="gcircumflex" unicode="&#x11d;" horiz-adv-x="591" 
d="M228 -187q-106 0 -166 43.5t-65 115.5h120q7 -29 33 -49.5t80 -20.5q58 0 90.5 30.5t43.5 83.5l4 25q2 11 7 30.5t10 35.5h-3q-29 -35 -65 -56.5t-84 -21.5q-44 0 -80 16t-62 44.5t-40 68t-14 87.5q0 67 20 122.5t54.5 96t81.5 63t100 22.5q59 0 98.5 -25.5t58.5 -72.5h1
l16 84h120l-102 -519q-11 -56 -33.5 -94.5t-55.5 -62.5t-75.5 -35t-92.5 -11zM271 122q40 0 69.5 19t49 48.5t29 65.5t9.5 71q0 57 -29.5 91t-89.5 34q-35 0 -62.5 -17t-46.5 -45t-29.5 -64.5t-10.5 -76.5q0 -57 28 -91.5t83 -34.5zM304 757h128l77 -136h-108l-38 79h-2
l-62 -79h-119z" />
    <glyph glyph-name="Gbreve" unicode="&#x11e;" horiz-adv-x="769" 
d="M350 -16q-80 0 -137 27t-95 77q-32 42 -48 96t-16 116q0 114 44 211.5t123 160.5q101 86 246 86q65 0 116.5 -17t87.5 -48.5t56.5 -75t24.5 -95.5h-138q-5 54 -43 88.5t-115 34.5q-67 0 -116 -31t-81.5 -80t-48.5 -109.5t-16 -118.5q0 -102 47 -156.5t133 -54.5
q44 0 81 14t65.5 38.5t46.5 57.5t24 72l3 13h-180l21 106h308l-77 -396h-92l1 99h-3q-38 -55 -95 -85t-127 -30zM481 779q-31 0 -56.5 9t-43.5 26.5t-27.5 43t-7.5 57.5h77q2 -25 16 -39.5t46 -14.5q31 0 50 14t27 40h79q-14 -63 -54.5 -99.5t-105.5 -36.5z" />
    <glyph glyph-name="gbreve" unicode="&#x11f;" horiz-adv-x="591" 
d="M228 -187q-106 0 -166 43.5t-65 115.5h120q7 -29 33 -49.5t80 -20.5q58 0 90.5 30.5t43.5 83.5l4 25q2 11 7 30.5t10 35.5h-3q-29 -35 -65 -56.5t-84 -21.5q-44 0 -80 16t-62 44.5t-40 68t-14 87.5q0 67 20 122.5t54.5 96t81.5 63t100 22.5q59 0 98.5 -25.5t58.5 -72.5h1
l16 84h120l-102 -519q-11 -56 -33.5 -94.5t-55.5 -62.5t-75.5 -35t-92.5 -11zM271 122q40 0 69.5 19t49 48.5t29 65.5t9.5 71q0 57 -29.5 91t-89.5 34q-35 0 -62.5 -17t-46.5 -45t-29.5 -64.5t-10.5 -76.5q0 -57 28 -91.5t83 -34.5zM351 613q-32 0 -58 10t-44 28.5
t-26.5 44.5t-5.5 59h76q0 -28 15 -44.5t47 -16.5t51.5 16t27.5 45h79q-13 -65 -54.5 -103.5t-107.5 -38.5z" />
    <glyph glyph-name="Gdotaccent" unicode="&#x120;" horiz-adv-x="769" 
d="M350 -16q-80 0 -137 27t-95 77q-32 42 -48 96t-16 116q0 114 44 211.5t123 160.5q101 86 246 86q65 0 116.5 -17t87.5 -48.5t56.5 -75t24.5 -95.5h-138q-5 54 -43 88.5t-115 34.5q-67 0 -116 -31t-81.5 -80t-48.5 -109.5t-16 -118.5q0 -102 47 -156.5t133 -54.5
q44 0 81 14t65.5 38.5t46.5 57.5t24 72l3 13h-180l21 106h308l-77 -396h-92l1 99h-3q-38 -55 -95 -85t-127 -30zM436 907h128l-24 -122h-128z" />
    <glyph glyph-name="gdotaccent" unicode="&#x121;" horiz-adv-x="591" 
d="M228 -187q-106 0 -166 43.5t-65 115.5h120q7 -29 33 -49.5t80 -20.5q58 0 90.5 30.5t43.5 83.5l4 25q2 11 7 30.5t10 35.5h-3q-29 -35 -65 -56.5t-84 -21.5q-44 0 -80 16t-62 44.5t-40 68t-14 87.5q0 67 20 122.5t54.5 96t81.5 63t100 22.5q59 0 98.5 -25.5t58.5 -72.5h1
l16 84h120l-102 -519q-11 -56 -33.5 -94.5t-55.5 -62.5t-75.5 -35t-92.5 -11zM271 122q40 0 69.5 19t49 48.5t29 65.5t9.5 71q0 57 -29.5 91t-89.5 34q-35 0 -62.5 -17t-46.5 -45t-29.5 -64.5t-10.5 -76.5q0 -57 28 -91.5t83 -34.5zM309 744h127l-24 -123h-127z" />
    <glyph glyph-name="Gcommaaccent" unicode="&#x122;" horiz-adv-x="769" 
d="M350 -16q-80 0 -137 27t-95 77q-32 42 -48 96t-16 116q0 114 44 211.5t123 160.5q101 86 246 86q65 0 116.5 -17t87.5 -48.5t56.5 -75t24.5 -95.5h-138q-5 54 -43 88.5t-115 34.5q-67 0 -116 -31t-81.5 -80t-48.5 -109.5t-16 -118.5q0 -102 47 -156.5t133 -54.5
q44 0 81 14t65.5 38.5t46.5 57.5t24 72l3 13h-180l21 106h308l-77 -396h-92l1 99h-3q-38 -55 -95 -85t-127 -30zM394 -139q-12 -60 -52.5 -87t-102.5 -29l10 49q65 8 74 55h-60l19 100h129z" />
    <glyph glyph-name="gcommaaccent" unicode="&#x123;" horiz-adv-x="591" 
d="M228 -187q-106 0 -166 43.5t-65 115.5h120q7 -29 33 -49.5t80 -20.5q58 0 90.5 30.5t43.5 83.5l4 25q2 11 7 30.5t10 35.5h-3q-29 -35 -65 -56.5t-84 -21.5q-44 0 -80 16t-62 44.5t-40 68t-14 87.5q0 67 20 122.5t54.5 96t81.5 63t100 22.5q59 0 98.5 -25.5t58.5 -72.5h1
l16 84h120l-102 -519q-11 -56 -33.5 -94.5t-55.5 -62.5t-75.5 -35t-92.5 -11zM271 122q40 0 69.5 19t49 48.5t29 65.5t9.5 71q0 57 -29.5 91t-89.5 34q-35 0 -62.5 -17t-46.5 -45t-29.5 -64.5t-10.5 -76.5q0 -57 28 -91.5t83 -34.5zM298 709q12 60 52.5 86.5t102.5 28.5
l-10 -48q-65 -9 -74 -56h60l-20 -99h-128z" />
    <glyph glyph-name="Hcircumflex" unicode="&#x124;" horiz-adv-x="733" 
d="M163 744h137l-59 -300h322l59 300h136l-145 -744h-136l64 332h-322l-64 -332h-137zM426 908h127l80 -123h-110l-39 63h-2l-62 -63h-120z" />
    <glyph glyph-name="hcircumflex" unicode="&#x125;" horiz-adv-x="580" 
d="M152 744h125l-39 -201l-18 -86h2q31 44 73.5 68t98.5 24q40 0 71.5 -15.5t51.5 -42.5t27 -64.5t-2 -82.5l-68 -344h-124l66 338q10 49 -9.5 78t-71.5 29q-51 0 -90.5 -34t-50.5 -92l-62 -319h-125zM351 908h127l80 -123h-110l-39 63h-2l-62 -63h-120z" />
    <glyph glyph-name="Hbar" unicode="&#x126;" horiz-adv-x="733" 
d="M74 621h65l24 123h137l-24 -123h322l24 123h136l-24 -123h67l-17 -81h-66l-105 -540h-136l64 332h-322l-64 -332h-137l105 540h-66zM241 444h322l19 96h-322z" />
    <glyph glyph-name="hbar" unicode="&#x127;" horiz-adv-x="580" 
d="M75 673h63l14 71h125l-14 -71h141l-14 -70h-141l-11 -60l-18 -86h2q31 44 73.5 68t98.5 24q40 0 71.5 -15.5t51.5 -42.5t27 -64.5t-2 -82.5l-68 -344h-124l66 338q10 49 -9.5 78t-71.5 29q-51 0 -90.5 -34t-50.5 -92l-62 -319h-125l117 603h-63z" />
    <glyph glyph-name="Itilde" unicode="&#x128;" horiz-adv-x="277" 
d="M165 744h137l-145 -744h-137zM317 786q-21 0 -39 6.5t-33 15t-27.5 15t-23.5 6.5q-12 0 -22.5 -11t-13.5 -32h-74q7 63 37 94t71 31q22 0 39 -6.5t31 -15t26 -15t25 -6.5q30 0 36 41h75q-7 -57 -34.5 -90t-72.5 -33z" />
    <glyph glyph-name="itilde" unicode="&#x129;" horiz-adv-x="242" 
d="M113 534h124l-104 -534h-124zM267 621q-21 0 -39 6.5t-33 15t-27.5 15t-23.5 6.5q-12 0 -22.5 -11t-13.5 -32h-73q7 63 37 94t70 31q22 0 39 -6.5t31 -14.5t26 -14.5t25 -6.5q17 0 25 10t11 30h75q-7 -57 -34.5 -90t-72.5 -33z" />
    <glyph glyph-name="Imacron" unicode="&#x12a;" horiz-adv-x="277" 
d="M165 744h137l-145 -744h-137zM129 883h262l-18 -91h-262z" />
    <glyph glyph-name="imacron" unicode="&#x12b;" horiz-adv-x="242" 
d="M113 534h124l-104 -534h-124zM98 721h226l-18 -92h-225z" />
    <glyph glyph-name="Ibreve" unicode="&#x12c;" horiz-adv-x="277" 
d="M165 744h137l-145 -744h-137zM247 779q-31 0 -56.5 9t-43.5 26.5t-27.5 43t-7.5 57.5h77q2 -25 16 -39.5t46 -14.5q31 0 50 14t27 40h79q-14 -63 -54.5 -99.5t-105.5 -36.5z" />
    <glyph glyph-name="ibreve" unicode="&#x12d;" horiz-adv-x="242" 
d="M113 534h124l-104 -534h-124zM194 613q-32 0 -58 10t-44 28.5t-26.5 44.5t-5.5 59h76q0 -28 15 -44.5t47 -16.5t51.5 16t27.5 45h79q-13 -65 -54.5 -103.5t-107.5 -38.5z" />
    <glyph glyph-name="Iogonek" unicode="&#x12e;" horiz-adv-x="277" 
d="M165 744h137l-145 -743q-31 -14 -54 -37t-23 -47q0 -29 36 -29q20 0 35 5h3l-15 -72q-19 -8 -57 -8q-55 0 -82 22.5t-27 59.5q0 20 7 36t18 29t25 22.5t29 17.5h-32z" />
    <glyph glyph-name="iogonek" unicode="&#x12f;" horiz-adv-x="242" 
d="M112 534h125l-104 -533q-30 -14 -53 -37t-23 -47q0 -29 37 -29q18 0 35 5h2l-14 -72q-21 -8 -58 -8q-53 0 -80 22.5t-27 59.5q0 21 8 37.5t20 29t26.5 22t28.5 16.5h-26zM152 744h128l-25 -123h-127z" />
    <glyph glyph-name="Idotaccent" unicode="&#x130;" horiz-adv-x="277" 
d="M165 744h137l-145 -744h-137zM202 907h128l-24 -122h-128z" />
    <glyph glyph-name="dotlessi" unicode="&#x131;" horiz-adv-x="242" 
d="M113 534h124l-104 -534h-124z" />
    <glyph glyph-name="IJ" unicode="&#x132;" horiz-adv-x="804" 
d="M165 744h137l-145 -744h-137zM500 -14q-57 0 -102 15t-73.5 45.5t-38.5 77.5t2 110l7 32h127l-6 -35q-7 -38 -4 -63.5t14.5 -41t30.5 -22t43 -6.5q47 0 73 28.5t37 81.5l104 536h137l-109 -555q-17 -89 -71 -143q-29 -29 -73 -44.5t-98 -15.5z" />
    <glyph glyph-name="ij" unicode="&#x133;" horiz-adv-x="483" 
d="M203 -176q-19 0 -37.5 2.5t-32.5 5.5l18 91h3q8 -1 14 -1.5t13 -0.5q29 0 43.5 11.5t19.5 40.5l109 561h125l-111 -570q-8 -42 -23.5 -69t-36.5 -43t-47.5 -22t-56.5 -6zM112 534h125l-104 -534h-124zM393 744h128l-25 -123h-127zM152 744h128l-25 -123h-127z" />
    <glyph glyph-name="Jcircumflex" unicode="&#x134;" horiz-adv-x="553" 
d="M249 -14q-57 0 -102 15t-73.5 45.5t-38.5 77.5t2 110l7 32h127l-6 -35q-7 -38 -4 -63.5t14.5 -41t30.5 -22t43 -6.5q47 0 73 28.5t37 81.5l104 536h137l-109 -555q-17 -89 -71 -143q-29 -29 -73 -44.5t-98 -15.5zM491 908h127l80 -123h-110l-39 63h-2l-62 -63h-120z" />
    <glyph glyph-name="jcircumflex" unicode="&#x135;" horiz-adv-x="242" 
d="M-38 -176q-19 0 -37.5 2.5t-32.5 5.5l18 91h3q8 -1 14 -1.5t13 -0.5q29 0 43.5 11.5t19.5 40.5l109 561h125l-111 -570q-8 -42 -23.5 -69t-36.5 -43t-47.5 -22t-56.5 -6zM144 757h128l77 -136h-108l-38 79h-2l-62 -79h-119z" />
    <glyph glyph-name="Kcommaaccent" unicode="&#x136;" horiz-adv-x="693" 
d="M315 356l-108 -92l-51 -264h-137l145 744h137l-34 -172q-10 -44 -19.5 -85.5t-17.5 -70.5l373 328h167l-351 -306l226 -438h-148zM362 -139q-12 -60 -52.5 -87t-102.5 -29l10 49q65 8 74 55h-60l19 100h129z" />
    <glyph glyph-name="kcommaaccent" unicode="&#x137;" horiz-adv-x="556" 
d="M152 744h124l-54 -275q-10 -47 -18.5 -83.5t-14.5 -59.5l236 208h152l-239 -204l157 -330h-136l-116 255l-76 -63l-36 -192h-124zM273 -139q-12 -60 -52.5 -87t-102.5 -29l10 49q65 8 74 55h-60l19 100h129z" />
    <glyph glyph-name="kgreenlandic" unicode="&#x138;" horiz-adv-x="556" 
d="M111 535h124l-13 -66q-10 -47 -18.5 -83.5t-14.5 -59.5l236 208h152l-239 -204l157 -330h-136l-116 255l-76 -63l-36 -192h-124z" />
    <glyph glyph-name="Lacute" unicode="&#x139;" horiz-adv-x="591" 
d="M247 913h150l-118 -128h-98zM164 744h137l-122 -625h355l-24 -119h-491z" />
    <glyph glyph-name="lacute" unicode="&#x13a;" horiz-adv-x="246" 
d="M235 913h150l-118 -128h-98zM155 744h125l-145 -744h-125z" />
    <glyph glyph-name="Lcommaaccent" unicode="&#x13b;" horiz-adv-x="591" 
d="M308 -139q-12 -60 -52.5 -87t-102.5 -29l10 49q65 8 74 55h-60l19 100h129zM164 744h137l-122 -625h355l-24 -119h-491z" />
    <glyph glyph-name="lcommaaccent" unicode="&#x13c;" horiz-adv-x="246" 
d="M114 -139q-12 -60 -52.5 -87t-102.5 -29l10 49q65 8 74 55h-60l19 100h129zM155 744h125l-145 -744h-125z" />
    <glyph glyph-name="Lcaron" unicode="&#x13d;" horiz-adv-x="591" 
d="M164 744h137l-122 -625h355l-24 -119h-491zM547 643q-11 -59 -49.5 -87t-101.5 -30l11 49q32 5 48.5 18t21.5 40h-58l22 111h125z" />
    <glyph glyph-name="lcaron" unicode="&#x13e;" horiz-adv-x="246" 
d="M424 659q-10 -53 -45 -78.5t-91 -27.5l9 47q29 4 43.5 16t19.5 35h-52l18 93h114zM155 744h125l-145 -744h-125z" />
    <glyph glyph-name="Ldot" unicode="&#x13f;" horiz-adv-x="591" 
d="M164 744h137l-122 -625h355l-24 -119h-491zM412 424h126l-25 -129h-127z" />
    <glyph glyph-name="ldot" unicode="&#x140;" horiz-adv-x="374" 
d="M155 744h125l-145 -744h-125zM278 424h126l-25 -129h-127z" />
    <glyph glyph-name="Lslash" unicode="&#x141;" horiz-adv-x="594" 
d="M15 311l75 33l78 400h136l-65 -335l247 109l-20 -99l-247 -109l-37 -191h355l-23 -119h-491l48 245l-76 -33z" />
    <glyph glyph-name="lslash" unicode="&#x142;" horiz-adv-x="288" 
d="M20 330l85 52l71 362h125l-54 -274l91 56l-19 -100l-91 -56l-72 -370h-125l55 282l-85 -52z" />
    <glyph glyph-name="Nacute" unicode="&#x143;" horiz-adv-x="735" 
d="M480 913h150l-118 -128h-98zM164 744h141l163 -401q10 -26 21 -57t19 -58q10 -32 19 -64h2l8 70q4 30 9.5 64t11.5 63l74 383h129l-145 -744h-139l-164 399q-11 26 -21.5 57.5l-19.5 58.5q-11 32 -20 64h-2l-8 -70q-4 -30 -9 -64t-10 -63l-74 -382h-130z" />
    <glyph glyph-name="nacute" unicode="&#x144;" horiz-adv-x="580" 
d="M111 534h121l-16 -83h2q31 46 75.5 72t100.5 26q40 0 71.5 -15.5t51.5 -42.5t27 -64.5t-2 -82.5l-68 -344h-124l66 337q10 50 -9.5 79t-71.5 29q-51 0 -90.5 -34t-50.5 -93l-62 -318h-125zM369 772h150l-128 -154h-98z" />
    <glyph glyph-name="Ncommaaccent" unicode="&#x145;" horiz-adv-x="735" 
d="M360 -139q-12 -60 -52.5 -87t-102.5 -29l10 49q65 8 74 55h-60l19 100h129zM164 744h141l163 -401q10 -26 21 -57t19 -58q10 -32 19 -64h2l8 70q4 30 9.5 64t11.5 63l74 383h129l-145 -744h-139l-164 399q-11 26 -21.5 57.5l-19.5 58.5q-11 32 -20 64h-2l-8 -70
q-4 -30 -9 -64t-10 -63l-74 -382h-130z" />
    <glyph glyph-name="ncommaaccent" unicode="&#x146;" horiz-adv-x="580" 
d="M111 534h121l-16 -83h2q31 46 75.5 72t100.5 26q40 0 71.5 -15.5t51.5 -42.5t27 -64.5t-2 -82.5l-68 -344h-124l66 337q10 50 -9.5 79t-71.5 29q-51 0 -90.5 -34t-50.5 -93l-62 -318h-125zM280 -139q-12 -60 -52.5 -87t-102.5 -29l10 49q65 8 74 55h-60l19 100h129z" />
    <glyph glyph-name="Ncaron" unicode="&#x147;" horiz-adv-x="735" 
d="M538 785h-127l-80 123h110l39 -63h2l62 63h120zM164 744h141l163 -401q10 -26 21 -57t19 -58q10 -32 19 -64h2l8 70q4 30 9.5 64t11.5 63l74 383h129l-145 -744h-139l-164 399q-11 26 -21.5 57.5l-19.5 58.5q-11 32 -20 64h-2l-8 -70q-4 -30 -9 -64t-10 -63l-74 -382
h-130z" />
    <glyph glyph-name="ncaron" unicode="&#x148;" horiz-adv-x="580" 
d="M111 534h121l-16 -83h2q31 46 75.5 72t100.5 26q40 0 71.5 -15.5t51.5 -42.5t27 -64.5t-2 -82.5l-68 -344h-124l66 337q10 50 -9.5 79t-71.5 29q-51 0 -90.5 -34t-50.5 -93l-62 -318h-125zM213 755h108l39 -79h2l61 79h119l-125 -137h-127z" />
    <glyph glyph-name="napostrophe" unicode="&#x149;" horiz-adv-x="580" 
d="M111 534h121l-16 -83h2q31 46 75.5 72t100.5 26q40 0 71.5 -15.5t51.5 -42.5t27 -64.5t-2 -82.5l-68 -344h-124l66 337q10 50 -9.5 79t-71.5 29q-51 0 -90.5 -34t-50.5 -93l-62 -318h-125zM155 659q-10 -53 -45 -78.5t-91 -27.5l9 47q29 4 43.5 16t19.5 35h-52l18 93h114
z" />
    <glyph glyph-name="Eng" unicode="&#x14a;" horiz-adv-x="735" 
d="M380 -75q43 0 66.5 16.5t35.5 46.5l-169 411q-11 26 -21.5 57.5l-19.5 58.5q-11 32 -20 64h-2l-8 -70q-4 -30 -9 -64t-10 -63l-74 -382h-130l145 744h141l163 -401q10 -26 21 -57t19 -58q10 -32 19 -64h2l8 70q4 30 9.5 64t11.5 63l74 383h129l-142 -728q-5 -27 -11 -48
t-13.5 -37.5t-16.5 -30.5t-21 -27q-25 -29 -66 -44.5t-98 -15.5q-24 0 -45.5 2.5t-38.5 6.5l22 109h3q11 -3 23.5 -4.5t22.5 -1.5z" />
    <glyph glyph-name="eng" unicode="&#x14b;" horiz-adv-x="580" 
d="M467 -36q-8 -42 -23.5 -69t-36.5 -43t-47.5 -22t-56.5 -6q-19 0 -37.5 2.5t-32.5 5.5l18 91h3q8 -1 14 -1.5t13 -0.5q29 0 44 11.5t20 40.5l71 364q10 50 -9.5 79t-71.5 29q-51 0 -90.5 -34t-50.5 -93l-62 -318h-125l104 534h121l-16 -83h2q31 46 75.5 72t100.5 26
q40 0 71.5 -15.5t51.5 -42.5t27 -64.5t-2 -82.5z" />
    <glyph glyph-name="Omacron" unicode="&#x14c;" horiz-adv-x="798" 
d="M348 883h294l-18 -91h-293zM387 -17q-77 0 -138 24t-104.5 68t-66.5 105.5t-23 135.5q0 89 29 169.5t82.5 141t128 96t164.5 35.5q77 0 138 -24.5t103.5 -68.5t65 -104.5t22.5 -132.5q0 -91 -28 -172t-80.5 -141.5t-126.5 -96t-166 -35.5zM392 96q62 0 109.5 27.5
t80 73.5t49.5 105.5t17 123.5q0 103 -51.5 162t-145.5 59q-61 0 -108.5 -28t-80 -74.5t-49.5 -106t-17 -121.5q0 -49 12.5 -89.5t37.5 -70t61.5 -45.5t84.5 -16z" />
    <glyph glyph-name="omacron" unicode="&#x14d;" horiz-adv-x="596" 
d="M234 728h289l-18 -91h-288zM270 -16q-57 0 -102 18.5t-75.5 51t-47 77t-16.5 96.5q0 66 22.5 124.5t62.5 102.5t95 69.5t121 25.5q57 0 101.5 -18.5t75.5 -51t47.5 -76.5t16.5 -96q0 -67 -22.5 -126t-62.5 -102.5t-95 -69t-121 -25.5zM275 77q40 0 71 20t53 52t33.5 73.5
t11.5 85.5q0 68 -30 108.5t-90 40.5q-39 0 -70.5 -20t-53.5 -52.5t-33.5 -74.5t-11.5 -86q0 -67 30 -107t90 -40z" />
    <glyph glyph-name="Obreve" unicode="&#x14e;" horiz-adv-x="798" 
d="M481 779q-31 0 -56.5 9t-43.5 26.5t-27.5 43t-7.5 57.5h77q2 -25 16 -39.5t46 -14.5q31 0 50 14t27 40h79q-14 -63 -54.5 -99.5t-105.5 -36.5zM387 -17q-77 0 -138 24t-104.5 68t-66.5 105.5t-23 135.5q0 89 29 169.5t82.5 141t128 96t164.5 35.5q77 0 138 -24.5
t103.5 -68.5t65 -104.5t22.5 -132.5q0 -91 -28 -172t-80.5 -141.5t-126.5 -96t-166 -35.5zM392 96q62 0 109.5 27.5t80 73.5t49.5 105.5t17 123.5q0 103 -51.5 162t-145.5 59q-61 0 -108.5 -28t-80 -74.5t-49.5 -106t-17 -121.5q0 -49 12.5 -89.5t37.5 -70t61.5 -45.5
t84.5 -16z" />
    <glyph glyph-name="obreve" unicode="&#x14f;" horiz-adv-x="596" 
d="M270 -16q-57 0 -102 18.5t-75.5 51t-47 77t-16.5 96.5q0 66 22.5 124.5t62.5 102.5t95 69.5t121 25.5q57 0 101.5 -18.5t75.5 -51t47.5 -76.5t16.5 -96q0 -67 -22.5 -126t-62.5 -102.5t-95 -69t-121 -25.5zM275 77q40 0 71 20t53 52t33.5 73.5t11.5 85.5q0 68 -30 108.5
t-90 40.5q-39 0 -70.5 -20t-53.5 -52.5t-33.5 -74.5t-11.5 -86q0 -67 30 -107t90 -40zM360 613q-32 0 -58 10t-44 28.5t-26.5 44.5t-5.5 59h76q0 -28 15 -44.5t47 -16.5t51.5 16t27.5 45h79q-13 -65 -54.5 -103.5t-107.5 -38.5z" />
    <glyph glyph-name="Ohungarumlaut" unicode="&#x150;" horiz-adv-x="798" 
d="M387 -17q-77 0 -138 24t-104.5 68t-66.5 105.5t-23 135.5q0 89 29 169.5t82.5 141t128 96t164.5 35.5q77 0 138 -24.5t103.5 -68.5t65 -104.5t22.5 -132.5q0 -91 -28 -172t-80.5 -141.5t-126.5 -96t-166 -35.5zM392 96q62 0 109.5 27.5t80 73.5t49.5 105.5t17 123.5
q0 103 -51.5 162t-145.5 59q-61 0 -108.5 -28t-80 -74.5t-49.5 -106t-17 -121.5q0 -49 12.5 -89.5t37.5 -70t61.5 -45.5t84.5 -16zM563 913h119l-89 -128h-84zM396 913h120l-90 -128h-84z" />
    <glyph glyph-name="ohungarumlaut" unicode="&#x151;" horiz-adv-x="596" 
d="M448 772h119l-98 -154h-84zM281 772h120l-99 -154h-84zM270 -16q-57 0 -102 18.5t-75.5 51t-47 77t-16.5 96.5q0 66 22.5 124.5t62.5 102.5t95 69.5t121 25.5q57 0 101.5 -18.5t75.5 -51t47.5 -76.5t16.5 -96q0 -67 -22.5 -126t-62.5 -102.5t-95 -69t-121 -25.5zM275 77
q40 0 71 20t53 52t33.5 73.5t11.5 85.5q0 68 -30 108.5t-90 40.5q-39 0 -70.5 -20t-53.5 -52.5t-33.5 -74.5t-11.5 -86q0 -67 30 -107t90 -40z" />
    <glyph glyph-name="OE" unicode="&#x152;" horiz-adv-x="1123" 
d="M347 -17q-69 0 -122.5 25t-90 69t-56 104t-19.5 130q0 95 29.5 177t82 142t124.5 94t156 34q71 0 120 -26.5t78 -74.5l16 87h498l-23 -115h-371l-37 -189h325l-21 -108h-325l-41 -211h383l-24 -121h-502l12 65q-39 -39 -87 -60.5t-105 -21.5zM374 93q72 0 124 40.5
t69 111.5q1 5 4 21.5t7 39t9 48t8.5 48.5t6 40.5t2.5 23.5q8 86 -35 133.5t-120 47.5q-56 0 -102 -26t-78.5 -71t-50.5 -106t-18 -130q0 -48 10 -89t31.5 -70t54.5 -45.5t78 -16.5z" />
    <glyph glyph-name="oe" unicode="&#x153;" horiz-adv-x="978" 
d="M675 -16q-74 0 -122 28t-74 76q-37 -48 -90.5 -76t-121.5 -28q-56 0 -100 18.5t-75 51t-47 77t-16 96.5q0 66 22.5 124.5t62.5 102.5t94.5 69.5t118.5 25.5q69 0 116.5 -29t73.5 -77q36 49 89 77.5t122 28.5q56 0 97.5 -18.5t69.5 -50.5t41.5 -76t13.5 -96
q-1 -17 -2.5 -35.5t-4.5 -36.5h-387v-15q0 -69 31 -106t94 -37q40 0 70.5 18.5t47.5 55.5h124q-30 -81 -95.5 -124.5t-152.5 -43.5zM272 77q38 0 69 20t52.5 52t33 73.5t11.5 85.5q0 68 -29 108.5t-88 40.5q-38 0 -69 -20t-52.5 -52.5t-33 -74.5t-11.5 -86q0 -67 29 -107
t88 -40zM723 458q-30 0 -55 -11.5t-44.5 -31t-33.5 -45.5t-22 -56h258q9 64 -17 104t-86 40z" />
    <glyph glyph-name="Racute" unicode="&#x154;" horiz-adv-x="691" 
d="M164 744h298q51 0 93.5 -14t72.5 -40.5t45.5 -64.5t11.5 -86q-4 -72 -44.5 -121.5t-123.5 -71.5v-3q50 -16 74.5 -49.5t24.5 -90.5q0 -38 -3.5 -76.5t-3.5 -65.5q0 -46 13 -52l-1 -9h-133q-5 5 -9 17.5t-4 30.5q0 30 4 68t4 78q0 53 -28 78.5t-92 25.5h-149l-58 -298
h-137zM234 401h163q75 0 112 34.5t40 91.5q2 49 -23.5 78t-88.5 29h-158zM427 913h150l-118 -128h-98z" />
    <glyph glyph-name="racute" unicode="&#x155;" horiz-adv-x="384" 
d="M111 534h120l-19 -98h3q31 54 71 79.5t90 25.5q25 0 33 -4l-18 -114h-4q-8 2 -15.5 3.5t-18.5 1.5q-63 0 -107.5 -38.5t-60.5 -118.5l-53 -271h-125zM294 772h150l-128 -154h-98z" />
    <glyph glyph-name="Rcommaaccent" unicode="&#x156;" horiz-adv-x="691" 
d="M164 744h298q51 0 93.5 -14t72.5 -40.5t45.5 -64.5t11.5 -86q-4 -72 -44.5 -121.5t-123.5 -71.5v-3q50 -16 74.5 -49.5t24.5 -90.5q0 -38 -3.5 -76.5t-3.5 -65.5q0 -46 13 -52l-1 -9h-133q-5 5 -9 17.5t-4 30.5q0 30 4 68t4 78q0 53 -28 78.5t-92 25.5h-149l-58 -298
h-137zM234 401h163q75 0 112 34.5t40 91.5q2 49 -23.5 78t-88.5 29h-158zM360 -139q-12 -60 -52.5 -87t-102.5 -29l10 49q65 8 74 55h-60l19 100h129z" />
    <glyph glyph-name="rcommaaccent" unicode="&#x157;" horiz-adv-x="384" 
d="M111 534h120l-19 -98h3q31 54 71 79.5t90 25.5q25 0 33 -4l-18 -114h-4q-8 2 -15.5 3.5t-18.5 1.5q-63 0 -107.5 -38.5t-60.5 -118.5l-53 -271h-125zM109 -139q-12 -60 -52.5 -87t-102.5 -29l10 49q65 8 74 55h-60l19 100h129z" />
    <glyph glyph-name="Rcaron" unicode="&#x158;" horiz-adv-x="691" 
d="M164 744h298q51 0 93.5 -14t72.5 -40.5t45.5 -64.5t11.5 -86q-4 -72 -44.5 -121.5t-123.5 -71.5v-3q50 -16 74.5 -49.5t24.5 -90.5q0 -38 -3.5 -76.5t-3.5 -65.5q0 -46 13 -52l-1 -9h-133q-5 5 -9 17.5t-4 30.5q0 30 4 68t4 78q0 53 -28 78.5t-92 25.5h-149l-58 -298
h-137zM234 401h163q75 0 112 34.5t40 91.5q2 49 -23.5 78t-88.5 29h-158zM486 785h-127l-80 123h110l39 -63h2l62 63h120z" />
    <glyph glyph-name="rcaron" unicode="&#x159;" horiz-adv-x="384" 
d="M111 534h120l-19 -98h3q31 54 71 79.5t90 25.5q25 0 33 -4l-18 -114h-4q-8 2 -15.5 3.5t-18.5 1.5q-63 0 -107.5 -38.5t-60.5 -118.5l-53 -271h-125zM137 755h108l39 -79h2l61 79h119l-125 -137h-127z" />
    <glyph glyph-name="Sacute" unicode="&#x15a;" horiz-adv-x="667" 
d="M337 -17q-78 0 -137 19t-99 52.5t-61 80.5t-22 103h138q7 -71 50.5 -109t131.5 -38q66 0 106 30t40 83q0 24 -10 41.5t-30.5 31.5t-52 27t-73.5 28q-45 16 -83.5 33.5t-67 41.5t-45 56.5t-16.5 78.5q0 48 18 87.5t52.5 68t84.5 44.5t114 16q66 0 116.5 -16.5t85 -45.5
t53.5 -70t23 -90h-132q-5 53 -43 86t-107 33q-61 0 -95 -26.5t-34 -71.5q0 -21 9.5 -36.5t29 -29t50 -26t71.5 -27.5q46 -16 86.5 -34t71 -43.5t48 -60.5t17.5 -85t-20 -92.5t-57.5 -73.5t-91 -48.5t-119.5 -17.5zM409 913h150l-118 -128h-98z" />
    <glyph glyph-name="sacute" unicode="&#x15b;" horiz-adv-x="527" 
d="M316 772h150l-128 -154h-98zM248 -16q-118 0 -179 49t-65 131h121q5 -49 37 -71t86 -22q52 0 76.5 22t24.5 55q0 32 -31.5 48.5t-90.5 33.5q-34 10 -64 22t-52.5 29t-35.5 41.5t-13 60.5q0 38 15 68.5t43 52.5t67 33.5t87 11.5q107 0 160.5 -43t60.5 -115h-120
q-6 73 -101 73q-45 0 -68 -18t-23 -47q0 -15 8 -26t24 -19.5t39 -15.5t52 -16q32 -9 62 -21t53 -30.5t37.5 -45t14.5 -64.5q0 -42 -16 -74.5t-46 -55.5t-71.5 -35t-91.5 -12z" />
    <glyph glyph-name="Scircumflex" unicode="&#x15c;" horiz-adv-x="667" 
d="M337 -17q-78 0 -137 19t-99 52.5t-61 80.5t-22 103h138q7 -71 50.5 -109t131.5 -38q66 0 106 30t40 83q0 24 -10 41.5t-30.5 31.5t-52 27t-73.5 28q-45 16 -83.5 33.5t-67 41.5t-45 56.5t-16.5 78.5q0 48 18 87.5t52.5 68t84.5 44.5t114 16q66 0 116.5 -16.5t85 -45.5
t53.5 -70t23 -90h-132q-5 53 -43 86t-107 33q-61 0 -95 -26.5t-34 -71.5q0 -21 9.5 -36.5t29 -29t50 -26t71.5 -27.5q46 -16 86.5 -34t71 -43.5t48 -60.5t17.5 -85t-20 -92.5t-57.5 -73.5t-91 -48.5t-119.5 -17.5zM358 908h127l80 -123h-110l-39 63h-2l-62 -63h-120z" />
    <glyph glyph-name="scircumflex" unicode="&#x15d;" horiz-adv-x="527" 
d="M255 757h128l77 -136h-108l-38 79h-2l-62 -79h-119zM248 -16q-118 0 -179 49t-65 131h121q5 -49 37 -71t86 -22q52 0 76.5 22t24.5 55q0 32 -31.5 48.5t-90.5 33.5q-34 10 -64 22t-52.5 29t-35.5 41.5t-13 60.5q0 38 15 68.5t43 52.5t67 33.5t87 11.5q107 0 160.5 -43
t60.5 -115h-120q-6 73 -101 73q-45 0 -68 -18t-23 -47q0 -15 8 -26t24 -19.5t39 -15.5t52 -16q32 -9 62 -21t53 -30.5t37.5 -45t14.5 -64.5q0 -42 -16 -74.5t-46 -55.5t-71.5 -35t-91.5 -12z" />
    <glyph glyph-name="Scedilla" unicode="&#x15e;" horiz-adv-x="667" 
d="M242 -209q-36 0 -61.5 9t-42.5 22l20 32q15 -8 31.5 -12t36.5 -4q29 0 46 10t17 30q0 14 -10 21.5t-25 7.5q-14 0 -23.5 -2t-18.5 -5l-12 26l63 62q-120 17 -181.5 84.5t-63.5 165.5h138q7 -71 50.5 -109t131.5 -38q66 0 106 30t40 83q0 24 -10 41.5t-30.5 31.5t-52 27
t-73.5 28q-45 16 -83.5 33.5t-67 41.5t-45 56.5t-16.5 78.5q0 48 18 87.5t52.5 68t84.5 44.5t114 16q66 0 116.5 -16.5t85 -45.5t53.5 -70t23 -90h-132q-5 53 -43 86t-107 33q-61 0 -95 -26.5t-34 -71.5q0 -21 9.5 -36.5t29 -29t50 -26t71.5 -27.5q46 -16 86.5 -34t71 -43.5
t48 -60.5t17.5 -85t-20 -92.5t-57.5 -73.5t-91 -48.5t-119.5 -17.5h-19l-47 -38l1 -2q18 2 36 0t32.5 -9.5t23 -21t8.5 -32.5q0 -46 -37 -67.5t-93 -21.5z" />
    <glyph glyph-name="scedilla" unicode="&#x15f;" horiz-adv-x="527" 
d="M168 -209q-36 0 -61.5 9t-42.5 22l20 32q15 -8 31.5 -12t36.5 -4q29 0 46 10t17 30q0 14 -10 21.5t-25 7.5q-14 0 -23.5 -2t-18.5 -5l-12 26l63 62q-90 11 -136 57.5t-49 118.5h121q5 -49 37 -71t86 -22q52 0 76.5 22t24.5 55q0 32 -31.5 48.5t-90.5 33.5q-34 10 -64 22
t-52.5 29t-35.5 41.5t-13 60.5q0 38 15 68.5t43 52.5t67 33.5t87 11.5q107 0 160.5 -43t60.5 -115h-120q-6 73 -101 73q-45 0 -68 -18t-23 -47q0 -15 8 -26t24 -19.5t39 -15.5t52 -16q32 -9 62 -21t53 -30.5t37.5 -45t14.5 -64.5q0 -42 -16 -74.5t-46 -55.5t-71.5 -35
t-91.5 -12h-3l-48 -39l1 -2q18 2 36 0t32.5 -9.5t23 -21t8.5 -32.5q0 -46 -37 -67.5t-93 -21.5z" />
    <glyph glyph-name="Scaron" unicode="&#x160;" horiz-adv-x="667" 
d="M337 -17q-78 0 -137 19t-99 52.5t-61 80.5t-22 103h138q7 -71 50.5 -109t131.5 -38q66 0 106 30t40 83q0 24 -10 41.5t-30.5 31.5t-52 27t-73.5 28q-45 16 -83.5 33.5t-67 41.5t-45 56.5t-16.5 78.5q0 48 18 87.5t52.5 68t84.5 44.5t114 16q66 0 116.5 -16.5t85 -45.5
t53.5 -70t23 -90h-132q-5 53 -43 86t-107 33q-61 0 -95 -26.5t-34 -71.5q0 -21 9.5 -36.5t29 -29t50 -26t71.5 -27.5q46 -16 86.5 -34t71 -43.5t48 -60.5t17.5 -85t-20 -92.5t-57.5 -73.5t-91 -48.5t-119.5 -17.5zM466 785h-127l-80 123h110l39 -63h2l62 63h120z" />
    <glyph glyph-name="scaron" unicode="&#x161;" horiz-adv-x="527" 
d="M160 755h108l39 -79h2l61 79h119l-125 -137h-127zM248 -16q-118 0 -179 49t-65 131h121q5 -49 37 -71t86 -22q52 0 76.5 22t24.5 55q0 32 -31.5 48.5t-90.5 33.5q-34 10 -64 22t-52.5 29t-35.5 41.5t-13 60.5q0 38 15 68.5t43 52.5t67 33.5t87 11.5q107 0 160.5 -43
t60.5 -115h-120q-6 73 -101 73q-45 0 -68 -18t-23 -47q0 -15 8 -26t24 -19.5t39 -15.5t52 -16q32 -9 62 -21t53 -30.5t37.5 -45t14.5 -64.5q0 -42 -16 -74.5t-46 -55.5t-71.5 -35t-91.5 -12z" />
    <glyph glyph-name="uni0162" unicode="&#x162;" horiz-adv-x="652" 
d="M124 744h593l-23 -116h-229l-122 -628h-135l121 628h-228zM312 -139q-12 -60 -52.5 -87t-102.5 -29l10 49q65 8 74 55h-60l19 100h129z" />
    <glyph glyph-name="uni0163" unicode="&#x163;" horiz-adv-x="369" 
d="M78 534h80l33 170h123l-33 -170h100l-17 -85h-100l-58 -299q-6 -32 7 -44.5t40 -12.5q11 0 21.5 1.5l17.5 2.5h4l-17 -94q-13 -3 -31.5 -5.5t-44.5 -2.5q-65 0 -100.5 35t-21.5 107l60 312h-80zM202 -139q-12 -60 -52.5 -87t-102.5 -29l10 49q65 8 74 55h-60l19 100h129z
" />
    <glyph glyph-name="Tcaron" unicode="&#x164;" horiz-adv-x="652" 
d="M124 744h593l-23 -116h-229l-122 -628h-135l121 628h-228zM491 785h-127l-80 123h110l39 -63h2l62 63h120z" />
    <glyph glyph-name="tcaron" unicode="&#x165;" horiz-adv-x="369" 
d="M78 534h81l33 170h123l-33 -170h101l-18 -86h-100l-58 -298q-6 -31 7 -42.5t39 -11.5q10 0 21 1t19 2h5l-19 -97q-13 -2 -32.5 -4.5t-45.5 -2.5q-32 0 -58 7.5t-42.5 23.5t-22.5 41t1 60l63 321h-81zM477 677q-6 -31 -18 -52t-29.5 -34.5t-40 -20t-49.5 -7.5l9 47
q29 3 43 14t19 34h-52l17 86h114z" />
    <glyph glyph-name="Tbar" unicode="&#x166;" horiz-adv-x="652" 
d="M124 744h593l-23 -116h-229l-39 -201h156l-19 -88h-154l-66 -339h-135l65 339h-153l18 88h152l39 201h-228z" />
    <glyph glyph-name="tbar" unicode="&#x167;" horiz-adv-x="369" 
d="M78 534h80l33 170h123l-33 -170h100l-17 -85h-100l-17 -90h104l-15 -79h-105l-25 -130q-6 -32 7 -44.5t40 -12.5q11 0 21.5 1.5l17.5 2.5h4l-17 -94q-13 -3 -31.5 -5.5t-44.5 -2.5q-65 0 -100.5 35t-21.5 107l27 143h-79l15 79h80l17 90h-80z" />
    <glyph glyph-name="Utilde" unicode="&#x168;" horiz-adv-x="703" 
d="M540 786q-21 0 -39 6.5t-33 15t-27.5 15t-23.5 6.5q-12 0 -22.5 -11t-13.5 -32h-74q7 63 37 94t71 31q22 0 39 -6.5t31 -15t26 -15t25 -6.5q30 0 36 41h75q-7 -57 -34.5 -90t-72.5 -33zM346 -13q-68 0 -123.5 18t-92.5 53.5t-51.5 88.5t-0.5 123l93 474h135l-94 -482
q-15 -78 19 -120.5t119 -42.5q144 0 172 149l97 496h136l-99 -510q-25 -129 -103 -188t-207 -59z" />
    <glyph glyph-name="utilde" unicode="&#x169;" horiz-adv-x="574" 
d="M190 -15q-87 1 -126.5 57t-22.5 148l67 345h124l-67 -341q-4 -22 -2.5 -41t10 -33t25 -22.5t42.5 -8.5q57 0 94 34.5t48 90.5l62 321h125l-105 -535h-120l14 75h-2q-31 -42 -71.5 -66t-94.5 -24zM428 621q-21 0 -39 6.5t-33 15t-27.5 15t-23.5 6.5q-12 0 -22.5 -11
t-13.5 -32h-73q7 63 37 94t70 31q22 0 39 -6.5t31 -14.5t26 -14.5t25 -6.5q17 0 25 10t11 30h75q-7 -57 -34.5 -90t-72.5 -33z" />
    <glyph glyph-name="Umacron" unicode="&#x16a;" horiz-adv-x="703" 
d="M337 883h294l-18 -91h-293zM346 -13q-68 0 -123.5 18t-92.5 53.5t-51.5 88.5t-0.5 123l93 474h135l-94 -482q-15 -78 19 -120.5t119 -42.5q144 0 172 149l97 496h136l-99 -510q-25 -129 -103 -188t-207 -59z" />
    <glyph glyph-name="umacron" unicode="&#x16b;" horiz-adv-x="574" 
d="M190 -15q-87 1 -126.5 57t-22.5 148l67 345h124l-67 -341q-4 -22 -2.5 -41t10 -33t25 -22.5t42.5 -8.5q57 0 94 34.5t48 90.5l62 321h125l-105 -535h-120l14 75h-2q-31 -42 -71.5 -66t-94.5 -24zM229 728h289l-18 -91h-288z" />
    <glyph glyph-name="Ubreve" unicode="&#x16c;" horiz-adv-x="703" 
d="M470 779q-31 0 -56.5 9t-43.5 26.5t-27.5 43t-7.5 57.5h77q2 -25 16 -39.5t46 -14.5q31 0 50 14t27 40h79q-14 -63 -54.5 -99.5t-105.5 -36.5zM346 -13q-68 0 -123.5 18t-92.5 53.5t-51.5 88.5t-0.5 123l93 474h135l-94 -482q-15 -78 19 -120.5t119 -42.5q144 0 172 149
l97 496h136l-99 -510q-25 -129 -103 -188t-207 -59z" />
    <glyph glyph-name="ubreve" unicode="&#x16d;" horiz-adv-x="574" 
d="M190 -15q-87 1 -126.5 57t-22.5 148l67 345h124l-67 -341q-4 -22 -2.5 -41t10 -33t25 -22.5t42.5 -8.5q57 0 94 34.5t48 90.5l62 321h125l-105 -535h-120l14 75h-2q-31 -42 -71.5 -66t-94.5 -24zM354 613q-32 0 -58 10t-44 28.5t-26.5 44.5t-5.5 59h76q0 -28 15 -44.5
t47 -16.5t51.5 16t27.5 45h79q-13 -65 -54.5 -103.5t-107.5 -38.5z" />
    <glyph glyph-name="Uring" unicode="&#x16e;" horiz-adv-x="703" 
d="M346 -13q-68 0 -123.5 18t-92.5 53.5t-51.5 88.5t-0.5 123l93 474h135l-94 -482q-15 -78 19 -120.5t119 -42.5q144 0 172 149l97 496h136l-99 -510q-25 -129 -103 -188t-207 -59zM463 743q-23 0 -42.5 8t-34 22.5t-23 33.5t-8.5 41t8.5 41t23 33.5t34 23t42.5 8.5
q22 0 41.5 -8.5t34 -23t23 -33.5t8.5 -41t-8.5 -41t-23 -33.5t-34 -22.5t-41.5 -8zM463 792q23 0 38 16t15 40t-15 40.5t-38 16.5q-24 0 -39 -16.5t-15 -40.5t15 -40t39 -16z" />
    <glyph glyph-name="uring" unicode="&#x16f;" horiz-adv-x="574" 
d="M190 -15q-87 1 -126.5 57t-22.5 148l67 345h124l-67 -341q-4 -22 -2.5 -41t10 -33t25 -22.5t42.5 -8.5q57 0 94 34.5t48 90.5l62 321h125l-105 -535h-120l14 75h-2q-31 -42 -71.5 -66t-94.5 -24zM349 598q-22 0 -41.5 8t-34.5 22t-23.5 33t-8.5 42q0 22 8.5 41t23.5 33.5
t34.5 23t41.5 8.5t41.5 -8.5t34.5 -23t23.5 -33.5t8.5 -41q0 -23 -8.5 -42t-23.5 -33t-34.5 -22t-41.5 -8zM349 647q24 0 39 16t15 40t-15 40.5t-39 16.5q-23 0 -38 -16.5t-15 -40.5t15 -40t38 -16z" />
    <glyph glyph-name="Uhungarumlaut" unicode="&#x170;" horiz-adv-x="703" 
d="M346 -13q-68 0 -123.5 18t-92.5 53.5t-51.5 88.5t-0.5 123l93 474h135l-94 -482q-15 -78 19 -120.5t119 -42.5q144 0 172 149l97 496h136l-99 -510q-25 -129 -103 -188t-207 -59zM557 913h119l-89 -128h-84zM390 913h120l-90 -128h-84z" />
    <glyph glyph-name="uhungarumlaut" unicode="&#x171;" horiz-adv-x="574" 
d="M190 -15q-87 1 -126.5 57t-22.5 148l67 345h124l-67 -341q-4 -22 -2.5 -41t10 -33t25 -22.5t42.5 -8.5q57 0 94 34.5t48 90.5l62 321h125l-105 -535h-120l14 75h-2q-31 -42 -71.5 -66t-94.5 -24zM277 772h120l-99 -154h-84zM444 772h119l-98 -154h-84z" />
    <glyph glyph-name="Uogonek" unicode="&#x172;" horiz-adv-x="703" 
d="M355 -187q-54 0 -81.5 22.5t-27.5 59.5q0 34 19.5 56.5t43.5 36.5q-60 5 -109 25t-80.5 55.5t-43 86t1.5 115.5l93 474h135l-94 -482q-15 -78 19 -120.5t119 -42.5q144 0 172 149l97 496h136l-99 -510q-18 -94 -61.5 -146t-104.5 -76q-28 -12 -53 -22t-43.5 -20.5
t-29.5 -23t-11 -30.5q0 -28 37 -28q18 0 35 5h2l-15 -72q-19 -8 -57 -8z" />
    <glyph glyph-name="uogonek" unicode="&#x173;" horiz-adv-x="574" 
d="M390 -187q-53 0 -80 22.5t-27 59.5q0 21 8 37.5t20 29t26.5 22t28.5 16.5h-22l14 75h-2q-31 -42 -71.5 -66t-94.5 -24q-87 1 -126.5 57t-22.5 148l67 345h124l-67 -341q-4 -22 -2.5 -41t10 -33t25 -22.5t42.5 -8.5q57 0 94 34.5t48 90.5l62 321h125l-105 -535
q-30 -13 -53 -36t-23 -47q0 -29 37 -29q18 0 35 5h2l-15 -72q-19 -8 -57 -8z" />
    <glyph glyph-name="Wcircumflex" unicode="&#x174;" horiz-adv-x="965" 
d="M110 744h135l16 -350q2 -35 1 -79t-3 -85l-4 -96h2q14 48 30 94q14 39 29.5 82.5t30.5 77.5l158 356h134l17 -355q1 -34 1.5 -78t0.5 -83q0 -47 -1 -94h2q14 48 29 96q13 41 28.5 85.5t30.5 79.5l154 349h140l-346 -744h-133l-18 392q-2 29 -1 67.5t2 73.5q1 40 3 82h-2
q-14 -42 -27 -82q-12 -35 -25.5 -73t-26.5 -68l-175 -392h-133zM534 908h127l80 -123h-110l-39 63h-2l-62 -63h-120z" />
    <glyph glyph-name="wcircumflex" unicode="&#x175;" horiz-adv-x="790" 
d="M414 757h128l77 -136h-108l-38 79h-2l-62 -79h-119zM63 534h125l18 -247q2 -24 2.5 -52.5t1.5 -53.5q1 -29 1 -57h2q8 27 19 54q9 23 20 51t23 54l113 251h111l17 -246q2 -24 3.5 -52.5t2.5 -53.5q1 -29 2 -59h2q7 27 17 55q8 24 18.5 51.5t23.5 53.5l119 251h129
l-269 -534h-121l-17 252q-2 22 -2 49.5v51.5q0 28 1 57h-2q-12 -29 -23 -56q-10 -24 -21 -50.5t-21 -48.5l-117 -255h-118z" />
    <glyph glyph-name="Ycircumflex" unicode="&#x176;" horiz-adv-x="681" 
d="M278 295l-167 449h143l67 -188q8 -23 15.5 -51t13.5 -52l14 -56h2q16 29 34 57q15 24 32.5 51.5t34.5 50.5l141 188h151l-343 -447l-59 -297h-136zM395 908h127l80 -123h-110l-39 63h-2l-62 -63h-120z" />
    <glyph glyph-name="ycircumflex" unicode="&#x177;" horiz-adv-x="532" 
d="M63 -182q-6 0 -19.5 0.5t-28 1.5t-26.5 2t-16 3l20 99h4q2 -1 8.5 -2t14.5 -1.5t16.5 -1t13.5 -0.5q61 0 87 61q1 4 3.5 14.5t5 23.5t4 27t-0.5 25l-89 464h127l39 -243q4 -26 7 -55.5t5 -55.5q2 -30 3 -60h3q10 28 22 56q10 24 23 52.5t27 54.5l132 251h131l-314 -564
q-25 -45 -47.5 -74t-46.5 -46.5t-50.5 -24.5t-57.5 -7zM291 757h128l77 -136h-108l-38 79h-2l-62 -79h-119z" />
    <glyph glyph-name="Ydieresis" unicode="&#x178;" horiz-adv-x="681" 
d="M278 295l-167 449h143l67 -188q8 -23 15.5 -51t13.5 -52l14 -56h2q16 29 34 57q15 24 32.5 51.5t34.5 50.5l141 188h151l-343 -447l-59 -297h-136zM290 906h123l-24 -121h-122zM510 906h122l-23 -121h-123z" />
    <glyph glyph-name="Zacute" unicode="&#x179;" horiz-adv-x="666" 
d="M11 115l385 399q18 18 40 38.5t42 38.5q23 20 46 41l1 3q-26 -2 -52 -3q-22 -1 -47 -1.5t-45 -0.5h-244l22 114h545l-21 -106l-377 -392q-20 -20 -44.5 -42.5t-46.5 -42.5q-26 -23 -51 -45v-3q28 1 55 2q23 1 49.5 2t47.5 1h282l-24 -118h-586zM435 913h150l-118 -128
h-98z" />
    <glyph glyph-name="zacute" unicode="&#x17a;" horiz-adv-x="518" 
d="M342 772h150l-128 -154h-98zM6 93l260 264q13 13 29 27t30 26q17 14 33 28v3q-20 -2 -39 -3q-17 -1 -35.5 -1.5t-32.5 -0.5h-156l19 98h409l-15 -84l-259 -264q-14 -14 -31.5 -29.5t-32.5 -28.5q-18 -16 -36 -30l-1 -4q20 1 41 3q17 2 37.5 3t37.5 1h188l-20 -101h-443z
" />
    <glyph glyph-name="Zdotaccent" unicode="&#x17b;" horiz-adv-x="666" 
d="M388 907h128l-24 -122h-128zM11 115l385 399q18 18 40 38.5t42 38.5q23 20 46 41l1 3q-26 -2 -52 -3q-22 -1 -47 -1.5t-45 -0.5h-244l22 114h545l-21 -106l-377 -392q-20 -20 -44.5 -42.5t-46.5 -42.5q-26 -23 -51 -45v-3q28 1 55 2q23 1 49.5 2t47.5 1h282l-24 -118
h-586z" />
    <glyph glyph-name="zdotaccent" unicode="&#x17c;" horiz-adv-x="518" 
d="M6 93l260 264q13 13 29 27t30 26q17 14 33 28v3q-20 -2 -39 -3q-17 -1 -35.5 -1.5t-32.5 -0.5h-156l19 98h409l-15 -84l-259 -264q-14 -14 -31.5 -29.5t-32.5 -28.5q-18 -16 -36 -30l-1 -4q20 1 41 3q17 2 37.5 3t37.5 1h188l-20 -101h-443zM286 744h127l-24 -123h-127z
" />
    <glyph glyph-name="Zcaron" unicode="&#x17d;" horiz-adv-x="666" 
d="M493 785h-127l-80 123h110l39 -63h2l62 63h120zM11 115l385 399q18 18 40 38.5t42 38.5q23 20 46 41l1 3q-26 -2 -52 -3q-22 -1 -47 -1.5t-45 -0.5h-244l22 114h545l-21 -106l-377 -392q-20 -20 -44.5 -42.5t-46.5 -42.5q-26 -23 -51 -45v-3q28 1 55 2q23 1 49.5 2
t47.5 1h282l-24 -118h-586z" />
    <glyph glyph-name="zcaron" unicode="&#x17e;" horiz-adv-x="518" 
d="M186 755h108l39 -79h2l61 79h119l-125 -137h-127zM6 93l260 264q13 13 29 27t30 26q17 14 33 28v3q-20 -2 -39 -3q-17 -1 -35.5 -1.5t-32.5 -0.5h-156l19 98h409l-15 -84l-259 -264q-14 -14 -31.5 -29.5t-32.5 -28.5q-18 -16 -36 -30l-1 -4q20 1 41 3q17 2 37.5 3t37.5 1
h188l-20 -101h-443z" />
    <glyph glyph-name="florin" unicode="&#x192;" horiz-adv-x="423" 
d="M69 428h98l36 159q9 39 24.5 67.5t40.5 45.5q34 23 84 27t104 -4l-13 -93q-56 5 -81.5 -6.5t-34.5 -53.5l-32 -142h118l-16 -84h-121l-82 -368q-9 -39 -24 -66.5t-38 -44.5q-15 -11 -35 -17t-41.5 -8t-44 -0.5t-43.5 4.5l14 87q37 -3 58 7.5t30 50.5l79 355h-96z" />
    <glyph glyph-name="AEacute" unicode="&#x1fc;" horiz-adv-x="1012" 
d="M373 744h679l-23 -116h-365l-37 -188h320l-22 -108h-319l-41 -210h377l-24 -122h-514l35 180h-238l-96 -180h-139zM255 280h203l68 348h-84zM711 913h150l-118 -128h-98z" />
    <glyph glyph-name="aeacute" unicode="&#x1fd;" horiz-adv-x="907" 
d="M183 -13q-85 0 -130.5 39t-45.5 105q0 47 17 78.5t47.5 51t73.5 29.5t95 16q41 4 71 9.5t49 14.5t28 24t9 38q-1 31 -24 50.5t-69 19.5q-50 0 -81 -23t-39 -66h-118q7 39 26 71t49.5 55t72 36t93.5 13q65 0 107 -19t64 -55q34 35 78.5 55t101.5 20q55 0 96.5 -18
t69 -49.5t42 -75t14.5 -94.5q0 -18 -2 -37t-5 -39h-386v-15q0 -69 31 -106.5t93 -37.5q40 0 70.5 19t47.5 56h124q-30 -81 -95.5 -124.5t-153.5 -43.5q-75 0 -126.5 28.5t-79.5 78.5q-24 -32 -50.5 -52t-54 -31.5t-55.5 -16t-55 -4.5zM216 67q31 0 55.5 9.5t42 25.5
t28.5 37.5t16 44.5l18 86q-26 -15 -56.5 -22t-75.5 -15q-54 -10 -83 -30t-29 -63q0 -39 25.5 -56t58.5 -17zM653 459q-30 0 -55 -11.5t-44 -31t-33 -46t-22 -56.5h257q9 64 -17 104.5t-86 40.5zM533 772h150l-128 -154h-98z" />
    <glyph glyph-name="Oslashacute" unicode="&#x1fe;" horiz-adv-x="798" 
d="M1 4l112 109q-58 82 -58 203q0 89 29 169.5t82.5 141t128 96t164.5 35.5q73 0 131.5 -22t100.5 -62l104 101l45 -45l-108 -105q27 -41 41.5 -90.5t14.5 -106.5q0 -91 -28 -172t-80.5 -141.5t-126.5 -96t-166 -35.5q-72 0 -130.5 21.5t-101.5 60.5l-111 -107zM196 317
q0 -30 4 -57t13 -50l386 375q-25 29 -62 45.5t-86 16.5q-61 0 -108.5 -28t-80 -74.5t-49.5 -106t-17 -121.5zM392 96q62 0 109.5 27.5t80 73.5t49.5 105.5t17 123.5q0 29 -4 54t-12 48l-386 -374q25 -28 61 -43t85 -15zM483 913h150l-118 -128h-98z" />
    <glyph glyph-name="oslashacute" unicode="&#x1ff;" horiz-adv-x="596" 
d="M-16 -6l86 84q-43 61 -43 149q0 66 22.5 124.5t63 102.5t95.5 69.5t121 25.5q52 0 93.5 -15.5t72.5 -43.5l82 79l37 -38l-84 -82q40 -60 40 -142q0 -67 -22.5 -126t-62.5 -102.5t-95 -69t-121 -25.5q-51 0 -92 14t-71 40l-85 -82zM153 224q0 -35 7 -59l257 249
q-15 20 -38.5 31.5t-55.5 11.5q-39 0 -70.5 -20t-53.5 -52.5t-34 -74.5t-12 -86zM274 77q39 0 71 20t54 52t34 73.5t12 85.5q0 28 -6 54l-254 -247q15 -18 37 -28t52 -10zM374 772h150l-128 -154h-98z" />
    <glyph glyph-name="Scommaaccent" unicode="&#x218;" horiz-adv-x="667" 
d="M333 -139q-12 -60 -52.5 -87t-102.5 -29l10 49q65 8 74 55h-60l19 100h129zM337 -17q-78 0 -137 19t-99 52.5t-61 80.5t-22 103h138q7 -71 50.5 -109t131.5 -38q66 0 106 30t40 83q0 24 -10 41.5t-30.5 31.5t-52 27t-73.5 28q-45 16 -83.5 33.5t-67 41.5t-45 56.5
t-16.5 78.5q0 48 18 87.5t52.5 68t84.5 44.5t114 16q66 0 116.5 -16.5t85 -45.5t53.5 -70t23 -90h-132q-5 53 -43 86t-107 33q-61 0 -95 -26.5t-34 -71.5q0 -21 9.5 -36.5t29 -29t50 -26t71.5 -27.5q46 -16 86.5 -34t71 -43.5t48 -60.5t17.5 -85t-20 -92.5t-57.5 -73.5
t-91 -48.5t-119.5 -17.5z" />
    <glyph glyph-name="scommaaccent" unicode="&#x219;" horiz-adv-x="527" 
d="M254 -139q-12 -60 -52.5 -87t-102.5 -29l10 49q65 8 74 55h-60l19 100h129zM248 -16q-118 0 -179 49t-65 131h121q5 -49 37 -71t86 -22q52 0 76.5 22t24.5 55q0 32 -31.5 48.5t-90.5 33.5q-34 10 -64 22t-52.5 29t-35.5 41.5t-13 60.5q0 38 15 68.5t43 52.5t67 33.5
t87 11.5q107 0 160.5 -43t60.5 -115h-120q-6 73 -101 73q-45 0 -68 -18t-23 -47q0 -15 8 -26t24 -19.5t39 -15.5t52 -16q32 -9 62 -21t53 -30.5t37.5 -45t14.5 -64.5q0 -42 -16 -74.5t-46 -55.5t-71.5 -35t-91.5 -12z" />
    <glyph glyph-name="uni021A" unicode="&#x21a;" horiz-adv-x="652" 
d="M124 744h593l-23 -116h-229l-122 -628h-135l121 628h-228zM312 -139q-12 -60 -52.5 -87t-102.5 -29l10 49q65 8 74 55h-60l19 100h129z" />
    <glyph glyph-name="uni021B" unicode="&#x21b;" horiz-adv-x="369" 
d="M78 534h80l33 170h123l-33 -170h100l-17 -85h-100l-58 -299q-6 -32 7 -44.5t40 -12.5q11 0 21.5 1.5l17.5 2.5h4l-17 -94q-13 -3 -31.5 -5.5t-44.5 -2.5q-65 0 -100.5 35t-21.5 107l60 312h-80zM202 -139q-12 -60 -52.5 -87t-102.5 -29l10 49q65 8 74 55h-60l19 100h129z
" />
    <glyph glyph-name="uni0237" unicode="&#x237;" horiz-adv-x="242" 
d="M-38 -176q-19 0 -37.5 2.5t-32.5 5.5l18 91h3q8 -1 14 -1.5t13 -0.5q29 0 43.5 11.5t19.5 40.5l109 561h125l-111 -570q-8 -42 -23.5 -69t-36.5 -43t-47.5 -22t-56.5 -6z" />
    <glyph glyph-name="circumflex" unicode="&#x2c6;" horiz-adv-x="530" 
d="M296 757h128l77 -136h-108l-38 79h-2l-62 -79h-119z" />
    <glyph glyph-name="caron" unicode="&#x2c7;" horiz-adv-x="530" 
d="M197 755h108l39 -79h2l61 79h119l-125 -137h-127z" />
    <glyph glyph-name="uni02C9" unicode="&#x2c9;" horiz-adv-x="530" 
d="M215 739h289l-18 -91h-288z" />
    <glyph glyph-name="breve" unicode="&#x2d8;" horiz-adv-x="530" 
d="M373 613q-32 0 -58 10t-44 28.5t-26.5 44.5t-5.5 59h76q0 -28 15 -44.5t47 -16.5t51.5 16t27.5 45h79q-13 -65 -54.5 -103.5t-107.5 -38.5z" />
    <glyph glyph-name="dotaccent" unicode="&#x2d9;" horiz-adv-x="530" 
d="M296 744h127l-24 -123h-127z" />
    <glyph glyph-name="ring" unicode="&#x2da;" horiz-adv-x="537" 
d="M355 598q-22 0 -41.5 8t-34.5 22t-23.5 33t-8.5 42q0 22 8.5 41t23.5 33.5t34.5 23t41.5 8.5t41.5 -8.5t34.5 -23t23.5 -33.5t8.5 -41q0 -23 -8.5 -42t-23.5 -33t-34.5 -22t-41.5 -8zM355 647q24 0 39 16t15 40t-15 40.5t-39 16.5q-23 0 -38 -16.5t-15 -40.5t15 -40
t38 -16z" />
    <glyph glyph-name="ogonek" unicode="&#x2db;" horiz-adv-x="530" 
d="M184 -187q-55 0 -82 22.5t-27 59.5q0 21 8 37.5t20.5 29t27.5 22t29 16.5h89q-24 -16 -45.5 -37.5t-21.5 -45.5q0 -29 37 -29q19 0 34 5h3l-15 -72q-19 -8 -57 -8z" />
    <glyph glyph-name="tilde" unicode="&#x2dc;" horiz-adv-x="530" 
d="M410 621q-21 0 -39 6.5t-33 15t-27.5 15t-23.5 6.5q-12 0 -22.5 -11t-13.5 -32h-73q7 63 37 94t70 31q22 0 39 -6.5t31 -14.5t26 -14.5t25 -6.5q17 0 25 10t11 30h75q-7 -57 -34.5 -90t-72.5 -33z" />
    <glyph glyph-name="hungarumlaut" unicode="&#x2dd;" horiz-adv-x="530" 
d="M427 772h119l-98 -154h-84zM260 772h120l-99 -154h-84z" />
    <glyph glyph-name="uni0394" unicode="&#x394;" horiz-adv-x="705" 
d="M-2 102l372 642h154l123 -646l-18 -98h-650zM140 108h368l-63 344q-7 35 -10.5 67.5t-5.5 58.5q-3 30 -3 56h-2q-10 -24 -22 -51q-11 -23 -25 -52.5t-32 -61.5z" />
    <glyph glyph-name="uni03A9" unicode="&#x3a9;" horiz-adv-x="763" 
d="M150 107v2q-47 32 -70 90t-23 127q0 96 30 175.5t82 136.5t123 88.5t152 31.5q72 0 130.5 -22t99 -63t62.5 -100t22 -133q0 -63 -14.5 -115.5t-39 -94.5t-56.5 -72.5t-66 -48.5v-2h116l-20 -107h-307l20 105q54 7 96.5 36.5t72.5 74.5t45.5 102t15.5 117q0 100 -47.5 156
t-133.5 56q-57 0 -102.5 -25t-77.5 -69t-49.5 -104t-17.5 -130q0 -85 29 -141t94 -73l-21 -105h-296l20 107h131z" />
    <glyph glyph-name="uni03BC" unicode="&#x3bc;" horiz-adv-x="576" 
d="M207 -11q-26 0 -44.5 7t-29.5 18h-2q-1 -11 -3 -25q-2 -12 -4.5 -28t-6.5 -35l-20 -105h-124l138 714h125l-67 -341q-10 -48 7 -75.5t64 -29.5q55 -2 94.5 33t50.5 92l62 321h125l-104 -535h-120l14 75h-2q-27 -40 -67.5 -63t-85.5 -23z" />
    <glyph glyph-name="pi" unicode="&#x3c0;" horiz-adv-x="664" 
d="M78 535h604l-16 -86h-93l-58 -302q-10 -54 36 -54q11 0 20 1.5t15 3.5h3l-19 -95q-13 -4 -31 -6t-35 -2q-29 0 -53.5 8t-40.5 25t-22 43.5t2 64.5l61 313h-186l-86 -449h-124l87 449h-81z" />
    <glyph glyph-name="Wgrave" unicode="&#x1e80;" horiz-adv-x="965" 
d="M455 913h141l33 -128h-92zM110 744h135l16 -350q2 -35 1 -79t-3 -85l-4 -96h2q14 48 30 94q14 39 29.5 82.5t30.5 77.5l158 356h134l17 -355q1 -34 1.5 -78t0.5 -83q0 -47 -1 -94h2q14 48 29 96q13 41 28.5 85.5t30.5 79.5l154 349h140l-346 -744h-133l-18 392
q-2 29 -1 67.5t2 73.5q1 40 3 82h-2q-14 -42 -27 -82q-12 -35 -25.5 -73t-26.5 -68l-175 -392h-133z" />
    <glyph glyph-name="wgrave" unicode="&#x1e81;" horiz-adv-x="790" 
d="M63 534h125l18 -247q2 -24 2.5 -52.5t1.5 -53.5q1 -29 1 -57h2q8 27 19 54q9 23 20 51t23 54l113 251h111l17 -246q2 -24 3.5 -52.5t2.5 -53.5q1 -29 2 -59h2q7 27 17 55q8 24 18.5 51.5t23.5 53.5l119 251h129l-269 -534h-121l-17 252q-2 22 -2 49.5v51.5q0 28 1 57h-2
q-12 -29 -23 -56q-10 -24 -21 -50.5t-21 -48.5l-117 -255h-118zM321 772h142l42 -154h-92z" />
    <glyph glyph-name="Wacute" unicode="&#x1e82;" horiz-adv-x="965" 
d="M586 913h150l-118 -128h-98zM110 744h135l16 -350q2 -35 1 -79t-3 -85l-4 -96h2q14 48 30 94q14 39 29.5 82.5t30.5 77.5l158 356h134l17 -355q1 -34 1.5 -78t0.5 -83q0 -47 -1 -94h2q14 48 29 96q13 41 28.5 85.5t30.5 79.5l154 349h140l-346 -744h-133l-18 392
q-2 29 -1 67.5t2 73.5q1 40 3 82h-2q-14 -42 -27 -82q-12 -35 -25.5 -73t-26.5 -68l-175 -392h-133z" />
    <glyph glyph-name="wacute" unicode="&#x1e83;" horiz-adv-x="790" 
d="M475 772h150l-128 -154h-98zM63 534h125l18 -247q2 -24 2.5 -52.5t1.5 -53.5q1 -29 1 -57h2q8 27 19 54q9 23 20 51t23 54l113 251h111l17 -246q2 -24 3.5 -52.5t2.5 -53.5q1 -29 2 -59h2q7 27 17 55q8 24 18.5 51.5t23.5 53.5l119 251h129l-269 -534h-121l-17 252
q-2 22 -2 49.5v51.5q0 28 1 57h-2q-12 -29 -23 -56q-10 -24 -21 -50.5t-21 -48.5l-117 -255h-118z" />
    <glyph glyph-name="Wdieresis" unicode="&#x1e84;" horiz-adv-x="965" 
d="M651 906h122l-23 -121h-123zM431 906h123l-24 -121h-122zM110 744h135l16 -350q2 -35 1 -79t-3 -85l-4 -96h2q14 48 30 94q14 39 29.5 82.5t30.5 77.5l158 356h134l17 -355q1 -34 1.5 -78t0.5 -83q0 -47 -1 -94h2q14 48 29 96q13 41 28.5 85.5t30.5 79.5l154 349h140
l-346 -744h-133l-18 392q-2 29 -1 67.5t2 73.5q1 40 3 82h-2q-14 -42 -27 -82q-12 -35 -25.5 -73t-26.5 -68l-175 -392h-133z" />
    <glyph glyph-name="wdieresis" unicode="&#x1e85;" horiz-adv-x="790" 
d="M531 742h120l-24 -123h-120zM313 742h120l-25 -123h-119zM63 534h125l18 -247q2 -24 2.5 -52.5t1.5 -53.5q1 -29 1 -57h2q8 27 19 54q9 23 20 51t23 54l113 251h111l17 -246q2 -24 3.5 -52.5t2.5 -53.5q1 -29 2 -59h2q7 27 17 55q8 24 18.5 51.5t23.5 53.5l119 251h129
l-269 -534h-121l-17 252q-2 22 -2 49.5v51.5q0 28 1 57h-2q-12 -29 -23 -56q-10 -24 -21 -50.5t-21 -48.5l-117 -255h-118z" />
    <glyph glyph-name="Ygrave" unicode="&#x1ef2;" horiz-adv-x="681" 
d="M278 295l-167 449h143l67 -188q8 -23 15.5 -51t13.5 -52l14 -56h2q16 29 34 57q15 24 32.5 51.5t34.5 50.5l141 188h151l-343 -447l-59 -297h-136zM312 913h141l33 -128h-92z" />
    <glyph glyph-name="ygrave" unicode="&#x1ef3;" horiz-adv-x="532" 
d="M63 -182q-6 0 -19.5 0.5t-28 1.5t-26.5 2t-16 3l20 99h4q2 -1 8.5 -2t14.5 -1.5t16.5 -1t13.5 -0.5q61 0 87 61q1 4 3.5 14.5t5 23.5t4 27t-0.5 25l-89 464h127l39 -243q4 -26 7 -55.5t5 -55.5q2 -30 3 -60h3q10 28 22 56q10 24 23 52.5t27 54.5l132 251h131l-314 -564
q-25 -45 -47.5 -74t-46.5 -46.5t-50.5 -24.5t-57.5 -7zM193 772h142l42 -154h-92z" />
    <glyph glyph-name="uni2009" unicode="&#x2009;" horiz-adv-x="110" 
 />
    <glyph glyph-name="endash" unicode="&#x2013;" horiz-adv-x="500" 
d="M61 318h402l-21 -107h-401z" />
    <glyph glyph-name="emdash" unicode="&#x2014;" horiz-adv-x="1000" 
d="M111 318h802l-22 -107h-800z" />
    <glyph glyph-name="quoteleft" unicode="&#x2018;" horiz-adv-x="213" 
d="M112 603q8 39 22.5 65.5t34.5 43t44.5 25t51.5 10.5l-10 -52q-28 -7 -47.5 -26.5t-28.5 -64.5l-1 -8h56l-25 -128h-124z" />
    <glyph glyph-name="quoteright" unicode="&#x2019;" horiz-adv-x="213" 
d="M93 517q29 7 48.5 26.5t27.5 64.5l2 8h-56l25 128h123l-27 -134q-8 -39 -22.5 -65.5t-34 -43.5t-44 -25.5t-51.5 -10.5z" />
    <glyph glyph-name="quotesinglbase" unicode="&#x201a;" horiz-adv-x="213" 
d="M-26 -99q28 7 47.5 26.5t28.5 64.5l1 8h-56l25 128h124l-27 -134q-8 -39 -22.5 -66t-34.5 -43.5t-44.5 -25t-51.5 -10.5z" />
    <glyph glyph-name="quotedblleft" unicode="&#x201c;" horiz-adv-x="402" 
d="M112 603q8 39 22.5 65.5t34.5 43t44.5 25t51.5 10.5l-10 -52q-28 -7 -47.5 -26.5t-28.5 -64.5l-1 -8h56l-25 -128h-124zM301 603q8 39 22.5 65.5t34.5 43t44.5 25t51.5 10.5l-10 -52q-28 -7 -47.5 -26.5t-27.5 -64.5l-2 -8h56l-25 -128h-123z" />
    <glyph glyph-name="quotedblright" unicode="&#x201d;" horiz-adv-x="402" 
d="M283 517q27 7 46.5 26.5t28.5 64.5l1 8h-55l25 128h123l-26 -134q-8 -39 -22.5 -65.5t-34.5 -43.5t-44.5 -25.5t-51.5 -10.5zM93 517q29 7 48.5 26.5t27.5 64.5l2 8h-56l25 128h123l-27 -134q-8 -39 -22.5 -65.5t-34 -43.5t-44 -25.5t-51.5 -10.5z" />
    <glyph glyph-name="quotedblbase" unicode="&#x201e;" horiz-adv-x="403" 
d="M163 -99q28 7 47.5 26.5t28.5 64.5l1 8h-56l26 128h123l-27 -134q-8 -39 -22.5 -65.5t-34.5 -43.5t-44.5 -25.5t-51.5 -10.5zM-26 -99q28 7 47.5 26.5t28.5 64.5l1 8h-56l25 128h124l-27 -134q-8 -39 -22.5 -66t-34.5 -43.5t-44.5 -25t-51.5 -10.5z" />
    <glyph glyph-name="dagger" unicode="&#x2020;" horiz-adv-x="601" 
d="M99 543h191l39 201h132l-40 -201h191l-20 -106h-191l-110 -566h-131l109 566h-190z" />
    <glyph glyph-name="daggerdbl" unicode="&#x2021;" horiz-adv-x="601" 
d="M401 437l-51 -259h192l-21 -106h-191l-39 -201h-131l39 201h-192l21 106h191l50 259h-190l20 106h191l39 201h132l-40 -201h191l-20 -106h-191z" />
    <glyph glyph-name="bullet" unicode="&#x2022;" horiz-adv-x="366" 
d="M190 196q-28 0 -53 11t-43.5 29.5t-29.5 44t-11 54.5t11 54.5t29.5 45t43.5 30.5t53 11t53.5 -11t44 -30.5t29.5 -45t11 -54.5t-11 -54.5t-29.5 -44t-44 -29.5t-53.5 -11z" />
    <glyph glyph-name="ellipsis" unicode="&#x2026;" horiz-adv-x="759" 
d="M25 139h138l-27 -139h-138zM288 139h137l-27 -139h-138zM550 139h138l-27 -139h-138z" />
    <glyph glyph-name="perthousand" unicode="&#x2030;" horiz-adv-x="1295" 
d="M672 712h82l-494 -712h-83zM240 313q-74 0 -118 47t-44 125q0 52 15 96.5t41.5 77t63 51t79.5 18.5q75 0 117 -46.5t42 -124.5q0 -53 -15 -97.5t-41.5 -77t-62.5 -51t-77 -18.5zM241 388q23 0 41.5 15.5t31 41t19.5 58.5t7 67q0 40 -16.5 63t-48.5 23q-23 0 -41.5 -15.5
t-31 -40.5t-19 -57.5t-6.5 -66.5q0 -40 15 -64t49 -24zM656 -17q-74 0 -118 46.5t-44 124.5q0 52 15 96.5t41.5 77.5t63 51.5t79.5 18.5q75 0 117 -47t42 -125q0 -53 -15 -97.5t-41.5 -76.5t-62.5 -50.5t-77 -18.5zM657 57q23 0 41.5 16t31 41.5t19.5 58.5t7 67
q0 40 -16.5 62.5t-48.5 22.5q-23 0 -41.5 -15.5t-31 -40.5t-19 -57.5t-6.5 -66.5q0 -40 15 -64t49 -24zM1058 -17q-36 0 -66 12t-51 34.5t-32.5 54t-11.5 70.5q0 52 15 96.5t41.5 77.5t62.5 51.5t79 18.5q37 0 67 -12.5t50.5 -35t31.5 -54t11 -70.5q0 -53 -15.5 -97.5
t-42 -76.5t-62.5 -50.5t-77 -18.5zM1060 57q23 0 41.5 16t31 41.5t19 58.5t6.5 67q0 40 -16.5 62.5t-48.5 22.5q-23 0 -41.5 -15.5t-31 -40.5t-19 -57.5t-6.5 -66.5q0 -40 15 -64t50 -24z" />
    <glyph glyph-name="uni2032" unicode="&#x2032;" horiz-adv-x="217" 
d="M164 744h110l-87 -268h-110z" />
    <glyph glyph-name="uni2033" unicode="&#x2033;" horiz-adv-x="398" 
d="M344 744h111l-87 -268h-111zM164 744h110l-87 -268h-110z" />
    <glyph glyph-name="guilsinglleft" unicode="&#x2039;" horiz-adv-x="307" 
d="M60 215l24 124l201 153l-26 -127l-127 -94v-2l90 -100l-23 -118z" />
    <glyph glyph-name="guilsinglright" unicode="&#x203a;" horiz-adv-x="307" 
d="M53 179l127 94v2l-89 100l22 117l140 -163l-24 -124l-202 -154z" />
    <glyph glyph-name="fraction" unicode="&#x2044;" horiz-adv-x="230" 
d="M398 744h97l-703 -874h-96z" />
    <glyph glyph-name="zero.superior" unicode="&#x2070;" horiz-adv-x="454" 
d="M244 275q-85 0 -131 50.5t-46 135.5q0 60 17.5 113.5t48.5 93t74 62.5t94 23q82 0 127.5 -48t45.5 -139q0 -60 -16 -113t-45.5 -92.5t-72 -62.5t-96.5 -23zM247 356q30 0 53 19.5t38.5 50t23 69t7.5 76.5q0 48 -17 75t-54 27q-30 0 -53 -19.5t-39 -50.5t-24.5 -69.5
t-8.5 -75.5q0 -49 18.5 -75.5t55.5 -26.5z" />
    <glyph glyph-name="four.superior" unicode="&#x2074;" horiz-adv-x="425" 
d="M261 389h-217l18 91l269 270h100l-56 -287h67l-14 -74h-67l-20 -103h-100zM131 461q13 0 25 1q11 0 23.5 0.5t24.5 0.5h72l21 105q2 13 5.5 27l6.5 26q4 14 8 27h-2q-9 -12 -20 -23q-9 -10 -19.5 -22t-21.5 -23l-54 -54q-11 -11 -23.5 -22t-22.5 -20q-12 -11 -23 -21v-2z
" />
    <glyph glyph-name="five.superior" unicode="&#x2075;" horiz-adv-x="409" 
d="M227 275q-39 0 -71.5 10.5t-55.5 29t-36.5 44.5t-15.5 56h102q3 -26 22.5 -42.5t54.5 -16.5q38 0 62.5 25t24.5 68q0 35 -18.5 54t-48.5 19q-25 1 -44.5 -9t-32.5 -25h-93l85 256h275l-15 -82h-203l-34 -101h3q15 15 38 25t57 10q24 0 48 -8.5t43 -26t31 -45t12 -64.5
q0 -41 -14 -73.5t-39 -55.5t-60 -35.5t-77 -12.5z" />
    <glyph glyph-name="six.superior" unicode="&#x2076;" horiz-adv-x="420" 
d="M242 275q-69 0 -115 37q-28 23 -43.5 61t-15.5 91q0 68 24.5 134t72.5 108q27 23 59 35.5t76 12.5q35 0 62.5 -9.5t46 -25.5t29 -38t12.5 -46h-96q-3 19 -16 32.5t-42 13.5q-42 0 -72 -35t-46 -94h2q40 45 107 45q29 0 55 -10.5t45 -29t30 -45t11 -58.5q0 -39 -14 -71.5
t-39 -56.5t-59 -37.5t-74 -13.5zM241 353q39 0 65 27.5t26 70.5q0 34 -21 54.5t-53 20.5q-40 0 -67.5 -26.5t-27.5 -68.5q0 -35 21.5 -56.5t56.5 -21.5z" />
    <glyph glyph-name="seven.superior" unicode="&#x2077;" horiz-adv-x="382" 
d="M91 285q12 62 37.5 118.5t58 104.5t69 86.5t72.5 64.5v2l-36 -2q-16 -1 -35.5 -1.5t-39.5 -0.5h-121l16 87h330l-14 -78q-38 -31 -74 -72t-66.5 -89.5t-53 -104t-33.5 -115.5h-110v0z" />
    <glyph glyph-name="eight.superior" unicode="&#x2078;" horiz-adv-x="422" 
d="M238 273q-40 0 -73.5 10t-58 28t-38.5 43t-14 56q0 54 31.5 84.5t79.5 43.5v2q-26 14 -40 36t-14 49q0 29 13 53t36 40.5t54 25.5t68 9q75 0 119.5 -31.5t44.5 -88.5q0 -37 -21.5 -66t-66.5 -41v-2q34 -14 52 -41.5t18 -59.5q0 -37 -14.5 -65t-40 -47t-60.5 -28.5
t-75 -9.5zM276 560q34 0 54 19t20 48q0 26 -18.5 41.5t-50.5 15.5q-33 0 -53.5 -18.5t-20.5 -47.5q0 -27 19 -42.5t50 -15.5zM239 350q39 0 62.5 21.5t23.5 59.5q0 30 -22 48.5t-57 18.5q-39 0 -63.5 -21.5t-24.5 -58.5q0 -32 22 -50t59 -18z" />
    <glyph glyph-name="nine.superior" unicode="&#x2079;" horiz-adv-x="421" 
d="M212 275q-73 0 -113.5 35t-45.5 89h98q2 -19 16 -35t49 -16q38 0 68 32t45 96h-2q-42 -45 -104 -45q-31 0 -57.5 10.5t-46 29.5t-30.5 45.5t-11 57.5q0 39 14.5 72t40.5 57t61 37.5t77 13.5q39 0 67.5 -10t48.5 -27q26 -22 40.5 -56t14.5 -88q0 -36 -6 -73t-19 -71
t-32 -63t-44 -50q-26 -22 -58 -31.5t-71 -9.5zM250 503q41 0 68.5 26t27.5 72q0 35 -21.5 55.5t-54.5 20.5q-42 0 -68 -27.5t-26 -70.5q0 -34 19.5 -55t54.5 -21z" />
    <glyph glyph-name="zero.inferior" unicode="&#x2080;" horiz-adv-x="454" 
d="M165 -171q-85 0 -131 51t-46 136q0 60 17.5 113t48 92.5t73.5 62.5t94 23q83 0 128.5 -47.5t45.5 -138.5q0 -60 -16 -113t-46 -93t-72.5 -63t-95.5 -23zM167 -90q31 0 54 19.5t38.5 50.5t23 69t7.5 76q0 49 -17.5 76t-54.5 27q-30 0 -53 -20t-38.5 -51t-24 -69.5
t-8.5 -75.5q0 -49 18 -75.5t55 -26.5z" />
    <glyph glyph-name="one.inferior" unicode="&#x2081;" horiz-adv-x="285" 
d="M102 142h-105l14 69q52 2 88 22.5t55 69.5h83l-90 -463h-104z" />
    <glyph glyph-name="two.inferior" unicode="&#x2082;" horiz-adv-x="403" 
d="M-55 -160q8 51 28 83t46 55q38 32 81 55.5t79 43.5q35 20 54.5 40.5t19.5 51.5q0 26 -15.5 42t-44.5 16q-33 0 -54 -18q-24 -23 -32 -71h-100q7 43 18.5 69.5t34.5 49.5q22 23 55.5 37t80.5 14q81 0 120.5 -39t39.5 -96q0 -26 -7 -46.5t-19.5 -37t-29.5 -30t-38 -26.5
q-20 -13 -42 -25l-44 -24t-41.5 -24.5t-33.5 -26.5q-2 -2 -2.5 -3.5t-1.5 -3.5h208l-17 -86h-343v0z" />
    <glyph glyph-name="three.inferior" unicode="&#x2083;" horiz-adv-x="421" 
d="M162 -171q-49 0 -84.5 13t-59.5 37q-23 23 -32.5 55.5t-7.5 62.5h97q0 -17 4 -33.5t14 -29t27 -20t42 -7.5q37 0 58 20.5t21 52.5q0 30 -19 47.5t-53 17.5h-29l13 71h24q41 0 63 15t22 48q0 24 -16.5 39.5t-45.5 15.5q-38 0 -60 -22t-27 -57h-98q10 72 59 112.5t129 40.5
q32 0 61 -7.5t51 -22.5t35 -37.5t13 -52.5q0 -43 -25 -69.5t-70 -38.5v-1q35 -10 55.5 -37.5t20.5 -61.5q0 -38 -14 -66.5t-39 -47t-58 -28t-71 -9.5z" />
    <glyph glyph-name="four.inferior" unicode="&#x2084;" horiz-adv-x="425" 
d="M182 -57h-217l18 91l268 270h101l-56 -286h67l-15 -75h-66l-20 -103h-100zM52 15q12 0 24 1q11 1 24 1.5t25 0.5h71l21 105q2 13 6 27t7 26q4 14 7 27h-2q-10 -12 -20 -23q-9 -10 -19 -22t-21 -23l-54 -55q-11 -11 -23.5 -22t-22.5 -20q-12 -11 -23 -20v-3z" />
    <glyph glyph-name="five.inferior" unicode="&#x2085;" horiz-adv-x="409" 
d="M147 -171q-39 0 -71 10.5t-55.5 29.5t-36.5 44.5t-15 55.5h101q4 -25 23.5 -42t54.5 -17q38 0 62.5 25.5t24.5 68.5q0 35 -18.5 54t-49.5 19q-24 0 -44 -9.5t-32 -25.5h-94l86 256h274l-14 -81h-203l-35 -102h3q16 15 39 25.5t57 10.5q24 0 48 -8.5t42.5 -26t30.5 -45
t12 -65.5q0 -41 -14 -73.5t-39 -55.5t-60 -35.5t-77 -12.5z" />
    <glyph glyph-name="six.inferior" unicode="&#x2086;" horiz-adv-x="420" 
d="M163 -171q-68 0 -115 38q-28 23 -43.5 60.5t-15.5 91.5q0 68 24.5 133.5t72.5 107.5q26 23 58.5 35.5t75.5 12.5q71 0 108.5 -34.5t42.5 -83.5h-97q-3 18 -15.5 31.5t-41.5 13.5q-42 0 -72 -34.5t-47 -93.5h2q20 21 46.5 33t61.5 12q29 0 55 -10.5t45 -29.5t30 -45.5
t11 -58.5q0 -38 -14 -71t-39 -57t-59 -37.5t-74 -13.5zM161 -93q39 0 65.5 27.5t26.5 70.5q0 35 -21.5 55.5t-53.5 20.5q-40 0 -67 -26.5t-27 -68.5q0 -35 21 -57t56 -22z" />
    <glyph glyph-name="seven.inferior" unicode="&#x2087;" horiz-adv-x="382" 
d="M12 -161q12 63 37 119.5t57.5 104.5t69 86t72.5 64v3l-36 -2q-16 -1 -35 -1.5t-39 -0.5h-121l16 86h329l-13 -78q-38 -31 -74 -71.5t-66.5 -89.5t-53.5 -104.5t-34 -115.5h-109v0z" />
    <glyph glyph-name="eight.inferior" unicode="&#x2088;" horiz-adv-x="422" 
d="M159 -172q-40 0 -74 9.5t-58.5 27.5t-38 43t-13.5 56q0 54 31.5 85t79.5 43v2q-27 14 -40.5 36t-13.5 49q0 29 13 53t35.5 41t54 26t68.5 9q75 0 119.5 -32t44.5 -89q0 -37 -21.5 -65.5t-66.5 -40.5v-2q34 -14 52 -42t18 -60q0 -36 -14.5 -64t-40 -47t-60.5 -28.5
t-75 -9.5zM197 115q34 0 53.5 18.5t19.5 47.5q0 26 -18 42t-51 16t-53.5 -19t-20.5 -48q0 -26 19 -41.5t51 -15.5zM159 -96q39 0 63 21.5t24 59.5q0 30 -22.5 48.5t-57.5 18.5q-39 0 -63 -21.5t-24 -58.5q0 -32 21.5 -50t58.5 -18z" />
    <glyph glyph-name="nine.inferior" unicode="&#x2089;" horiz-adv-x="421" 
d="M133 -171q-73 0 -114 35.5t-46 89.5h99q2 -20 16 -35.5t48 -15.5q38 0 68.5 32t45.5 96h-3q-39 -45 -104 -45q-31 0 -57.5 10.5t-45.5 29.5t-30 45t-11 58q0 39 14.5 71.5t40 56.5t61 37.5t77.5 13.5q38 0 66.5 -10t48.5 -27q26 -21 41 -55t15 -88q0 -37 -6.5 -74
t-19 -70.5t-31.5 -62.5t-44 -50q-27 -23 -58.5 -32.5t-70.5 -9.5zM171 57q41 0 68 26.5t27 71.5q0 36 -21 56t-55 20q-41 0 -67 -27t-26 -70q0 -34 19.5 -55.5t54.5 -21.5z" />
    <glyph glyph-name="Euro" unicode="&#x20ac;" horiz-adv-x="662" 
d="M63 453h55q19 63 50 113.5t72 86.5t91 55.5t106 19.5q57 0 100 -17t72.5 -47.5t45.5 -72.5t19 -91h-127q-7 58 -33 92t-83 34q-31 0 -58.5 -13t-50 -36t-40.5 -54.5t-30 -69.5h184l-12 -61h-188q-4 -19 -6 -38.5t-4 -39.5h183l-12 -60h-172q4 -85 37 -125t96 -40
t99.5 39.5t58.5 109.5h126q-12 -57 -37 -104t-61.5 -80t-84.5 -51.5t-106 -18.5q-56 0 -102.5 17.5t-80 52t-53.5 84.5t-23 116h-70l12 60h59q1 40 9 78h-53z" />
    <glyph glyph-name="afii61289" unicode="&#x2113;" horiz-adv-x="411" 
d="M143 606q8 40 24.5 68t39.5 45t51 25t58 8q129 0 129 -137q0 -60 -18 -115.5t-50.5 -103t-79 -86.5t-104.5 -66l-12 -58q-8 -46 3 -66.5t52 -20.5q23 0 38.5 4t30.5 9h3l-20 -100q-37 -16 -93 -16q-81 0 -118.5 42.5t-17.5 132.5l4 26q-14 -6 -31 -12t-31 -9l16 80
q14 5 31.5 10.5t30.5 11.5zM265 386q19 21 35 49t27.5 58.5t18 62t6.5 58.5q0 28 -9.5 39t-27.5 11q-17 0 -31 -12.5t-21 -46.5l-52 -270q25 17 54 51z" />
    <glyph glyph-name="trademark" unicode="&#x2122;" horiz-adv-x="905" 
d="M525 744h125l15 -138q2 -20 3 -45t2 -48q1 -26 1 -53h2q10 26 21 52q9 22 19.5 47t20.5 45l69 140h132l-75 -382h-84l24 126q5 24 11 53t12 55q7 30 14 59h-3l-24 -54q-11 -23 -24 -51.5t-26 -53.5l-68 -134h-78l-14 134q-2 26 -4 54t-4 51q-2 27 -3 54h-3
q-5 -29 -10 -59q-5 -26 -9.5 -55t-9.5 -53l-25 -126h-82zM140 744h319l-15 -77h-114l-60 -305h-92l59 305h-113z" />
    <glyph glyph-name="Omega" unicode="&#x2126;" horiz-adv-x="763" 
d="M150 107v2q-47 32 -70 90t-23 127q0 96 30 175.5t82 136.5t123 88.5t152 31.5q72 0 130.5 -22t99 -63t62.5 -100t22 -133q0 -63 -14.5 -115.5t-39 -94.5t-56.5 -72.5t-66 -48.5v-2h116l-20 -107h-307l20 105q54 7 96.5 36.5t72.5 74.5t45.5 102t15.5 117q0 100 -47.5 156
t-133.5 56q-57 0 -102.5 -25t-77.5 -69t-49.5 -104t-17.5 -130q0 -85 29 -141t94 -73l-21 -105h-296l20 107h131z" />
    <glyph glyph-name="estimated" unicode="&#x212e;" horiz-adv-x="720" 
d="M202 335v-242q32 -26 74.5 -40.5t101.5 -14.5q100 0 157.5 45t84.5 124h55q-11 -48 -35.5 -88t-61.5 -69.5t-87 -46t-113 -16.5q-80 0 -143 26.5t-106.5 73.5t-66 112.5t-22.5 143.5t24.5 143t69 112t105.5 73t134 26q61 0 111 -17t87 -49q62 -51 85.5 -125.5
t22.5 -170.5h-477zM373 650q-54 0 -98 -16t-73 -41v-212h318v226q-26 19 -63 31t-84 12z" />
    <glyph glyph-name="onethird" unicode="&#x2153;" horiz-adv-x="930" 
d="M179 588h-104l13 68q53 2 88.5 23t55.5 69h82l-90 -462h-103zM718 744h97l-703 -874h-96zM666 -121q-49 0 -84.5 13t-59.5 37q-23 23 -32.5 55.5t-7.5 62.5h97q0 -17 4 -33.5t14 -29t27 -20t42 -7.5q37 0 58 20.5t21 52.5q0 30 -19 47.5t-53 17.5h-29l13 71h24
q41 0 63 15t22 48q0 24 -16.5 39.5t-45.5 15.5q-38 0 -60 -22t-27 -57h-98q10 72 59 112.5t129 40.5q32 0 61 -7.5t51 -22.5t35 -37.5t13 -52.5q0 -43 -25 -69.5t-70 -38.5v-1q35 -10 55.5 -37.5t20.5 -61.5q0 -38 -14 -66.5t-39 -47t-58 -28t-71 -9.5z" />
    <glyph glyph-name="twothirds" unicode="&#x2154;" horiz-adv-x="1012" 
d="M24 286q7 50 27 82.5t47 55.5q38 32 81 55.5t79 43.5q35 19 54 39.5t19 52.5q0 25 -15 41t-44 16q-17 0 -30.5 -3.5t-24.5 -13.5q-24 -23 -32 -71h-100q7 43 18.5 69.5t34.5 49.5t56 37t80 14q81 0 121 -39t40 -96q0 -53 -26.5 -84t-67.5 -57q-20 -13 -42 -24.5
t-44 -23.5t-42 -24.5t-34 -26.5q-3 -5 -3 -7h208l-18 -86h-342zM816 744h97l-703 -874h-96zM749 -121q-49 0 -84.5 13t-59.5 37q-23 23 -32.5 55.5t-7.5 62.5h97q0 -17 4 -33.5t14 -29t27 -20t42 -7.5q37 0 58 20.5t21 52.5q0 30 -19 47.5t-53 17.5h-29l13 71h24q41 0 63 15
t22 48q0 24 -16.5 39.5t-45.5 15.5q-38 0 -60 -22t-27 -57h-98q10 72 59 112.5t129 40.5q32 0 61 -7.5t51 -22.5t35 -37.5t13 -52.5q0 -43 -25 -69.5t-70 -38.5v-1q35 -10 55.5 -37.5t20.5 -61.5q0 -38 -14 -66.5t-39 -47t-58 -28t-71 -9.5z" />
    <glyph glyph-name="oneeighth" unicode="&#x215b;" horiz-adv-x="922" 
d="M180 588h-104l13 68q53 2 88.5 23t55.5 69h82l-90 -462h-103zM713 744h97l-703 -874h-96zM639 -122q-40 0 -74 9.5t-58.5 27.5t-38 43t-13.5 56q0 54 31.5 85t79.5 43v2q-27 14 -40.5 36t-13.5 49q0 29 13 53t35.5 41t54 26t68.5 9q75 0 119.5 -32t44.5 -89
q0 -37 -21.5 -65.5t-66.5 -40.5v-2q34 -14 52 -42t18 -60q0 -36 -14.5 -64t-40 -47t-60.5 -28.5t-75 -9.5zM677 165q34 0 53.5 18.5t19.5 47.5q0 26 -18 42t-51 16t-53.5 -19t-20.5 -48q0 -26 19 -41.5t51 -15.5zM639 -46q39 0 63 21.5t24 59.5q0 30 -22.5 48.5t-57.5 18.5
q-39 0 -63 -21.5t-24 -58.5q0 -32 21.5 -50t58.5 -18z" />
    <glyph glyph-name="threeeighths" unicode="&#x215c;" horiz-adv-x="992" 
d="M240 275q-48 0 -84 13t-59 36q-24 23 -33.5 55.5t-7.5 62.5h97q0 -17 4.5 -33t14.5 -28.5t26.5 -20t41.5 -7.5q37 0 58 20t21 52q0 31 -19 48.5t-53 17.5h-28l13 71h23q41 0 63 14.5t22 47.5q0 25 -16 40.5t-46 15.5q-38 0 -59.5 -22t-27.5 -57h-97q10 72 58.5 112.5
t128.5 40.5q32 0 61 -7.5t51 -22.5t35 -38t13 -53q0 -42 -25 -69t-70 -38v-1q35 -11 55.5 -38t20.5 -62q0 -38 -14 -66t-39 -46.5t-58 -28t-71 -9.5zM791 744h97l-703 -874h-96zM708 -122q-40 0 -74 9.5t-58.5 27.5t-38 43t-13.5 56q0 54 31.5 85t79.5 43v2q-27 14 -40.5 36
t-13.5 49q0 29 13 53t35.5 41t54 26t68.5 9q75 0 119.5 -32t44.5 -89q0 -37 -21.5 -65.5t-66.5 -40.5v-2q34 -14 52 -42t18 -60q0 -36 -14.5 -64t-40 -47t-60.5 -28.5t-75 -9.5zM746 165q34 0 53.5 18.5t19.5 47.5q0 26 -18 42t-51 16t-53.5 -19t-20.5 -48q0 -26 19 -41.5
t51 -15.5zM708 -46q39 0 63 21.5t24 59.5q0 30 -22.5 48.5t-57.5 18.5q-39 0 -63 -21.5t-24 -58.5q0 -32 21.5 -50t58.5 -18z" />
    <glyph glyph-name="fiveeighths" unicode="&#x215d;" horiz-adv-x="976" 
d="M226 275q-39 0 -71.5 10.5t-55.5 29t-36.5 44.5t-15.5 56h102q3 -26 22.5 -42.5t54.5 -16.5q38 0 62.5 25t24.5 68q0 35 -18.5 54t-48.5 19q-25 1 -44.5 -9t-32.5 -25h-93l85 256h275l-15 -82h-203l-34 -101h3q15 15 38 25t57 10q24 0 48 -8.5t43 -26t31 -45t12 -64.5
q0 -41 -14 -73.5t-39 -55.5t-60 -35.5t-77 -12.5zM777 744h97l-703 -874h-96zM691 -122q-40 0 -74 9.5t-58.5 27.5t-38 43t-13.5 56q0 54 31.5 85t79.5 43v2q-27 14 -40.5 36t-13.5 49q0 29 13 53t35.5 41t54 26t68.5 9q75 0 119.5 -32t44.5 -89q0 -37 -21.5 -65.5
t-66.5 -40.5v-2q34 -14 52 -42t18 -60q0 -36 -14.5 -64t-40 -47t-60.5 -28.5t-75 -9.5zM729 165q34 0 53.5 18.5t19.5 47.5q0 26 -18 42t-51 16t-53.5 -19t-20.5 -48q0 -26 19 -41.5t51 -15.5zM691 -46q39 0 63 21.5t24 59.5q0 30 -22.5 48.5t-57.5 18.5q-39 0 -63 -21.5
t-24 -58.5q0 -32 21.5 -50t58.5 -18z" />
    <glyph glyph-name="seveneighths" unicode="&#x215e;" horiz-adv-x="938" 
d="M712 744h97l-703 -874h-96zM654 -122q-40 0 -74 9.5t-58.5 27.5t-38 43t-13.5 56q0 54 31.5 85t79.5 43v2q-27 14 -40.5 36t-13.5 49q0 29 13 53t35.5 41t54 26t68.5 9q75 0 119.5 -32t44.5 -89q0 -37 -21.5 -65.5t-66.5 -40.5v-2q34 -14 52 -42t18 -60q0 -36 -14.5 -64
t-40 -47t-60.5 -28.5t-75 -9.5zM692 165q34 0 53.5 18.5t19.5 47.5q0 26 -18 42t-51 16t-53.5 -19t-20.5 -48q0 -26 19 -41.5t51 -15.5zM654 -46q39 0 63 21.5t24 59.5q0 30 -22.5 48.5t-57.5 18.5q-39 0 -63 -21.5t-24 -58.5q0 -32 21.5 -50t58.5 -18zM91 285
q12 62 37.5 118.5t58 104.5t69 86.5t72.5 64.5v2l-36 -2q-16 -1 -35.5 -1.5t-39.5 -0.5h-121l16 87h330l-14 -78q-38 -31 -74 -72t-66.5 -89.5t-53 -104t-33.5 -115.5h-110z" />
    <glyph glyph-name="partialdiff" unicode="&#x2202;" horiz-adv-x="606" 
d="M429 432q-18 95 -80 144t-177 67v108q105 -11 179 -45t121 -90.5t68.5 -133t21.5 -170.5q0 -66 -17 -125.5t-51.5 -104.5t-87.5 -71.5t-126 -26.5q-57 0 -102 17.5t-76 48t-47.5 72t-16.5 89.5q0 58 19 108t53 87t82 57.5t105 20.5q39 0 74 -12.5t58 -39.5zM282 79
q36 0 63 16t45.5 42.5t28 59.5t9.5 67q0 58 -29.5 92.5t-87.5 34.5q-33 0 -60 -13t-45.5 -36.5t-29 -56.5t-10.5 -73q0 -60 29 -96.5t87 -36.5z" />
    <glyph glyph-name="Delta" unicode="&#x2206;" horiz-adv-x="705" 
d="M-2 102l372 642h154l123 -646l-18 -98h-650zM140 108h368l-63 344q-7 35 -10.5 67.5t-5.5 58.5q-3 30 -3 56h-2q-10 -24 -22 -51q-11 -23 -25 -52.5t-32 -61.5z" />
    <glyph glyph-name="product" unicode="&#x220f;" horiz-adv-x="757" 
d="M682 744v-848h-140v729h-328v-729h-139v848h607z" />
    <glyph glyph-name="summation" unicode="&#x2211;" horiz-adv-x="671" 
d="M50 -104v122l274 310v2l-274 298v116h566v-112h-406v-2l253 -271v-55l-260 -289v-2h423v-117h-576z" />
    <glyph glyph-name="minus" unicode="&#x2212;" horiz-adv-x="595" 
d="M83 390h481l-19 -98h-482z" />
    <glyph glyph-name="uni2215" unicode="&#x2215;" horiz-adv-x="230" 
d="M398 744h97l-703 -874h-96z" />
    <glyph glyph-name="uni2219" unicode="&#x2219;" horiz-adv-x="243" 
d="M80 398h137l-27 -140h-138z" />
    <glyph glyph-name="radical" unicode="&#x221a;" horiz-adv-x="664" 
d="M23 336h170l63 -163q11 -28 19.5 -55.5t15.5 -49.5q8 -26 15 -49h2q6 23 12 49q5 22 12.5 49.5t16.5 55.5l175 571h131l-273 -848h-143l-135 328h-81v112z" />
    <glyph glyph-name="infinity" unicode="&#x221e;" horiz-adv-x="747" 
d="M194 131q-40 0 -70.5 15t-51 40.5t-31 59t-10.5 71.5q0 37 10.5 71t31.5 59t51.5 40t69.5 15q32 0 58 -9t48.5 -25t41 -37t35.5 -45q16 24 34 45t39 37t46.5 25t55.5 9q36 0 66 -13t51.5 -37.5t33.5 -58.5t12 -76t-12 -76.5t-33.5 -58.5t-51.5 -37.5t-66 -13.5
q-30 0 -55.5 9t-46.5 25t-39 37.5t-34 46.5q-17 -25 -35.5 -46.5t-41 -37.5t-48.5 -25t-58 -9zM202 405q-36 0 -52 -25.5t-16 -62.5t16 -63t52 -26q34 0 60.5 27t46.5 61q-20 35 -46 62t-61 27zM544 228q37 0 53.5 26t16.5 63t-16.5 62.5t-53.5 25.5q-32 0 -56.5 -27
t-45.5 -62q21 -34 45.5 -61t56.5 -27z" />
    <glyph glyph-name="integral" unicode="&#x222b;" horiz-adv-x="370" 
d="M117 596q0 86 43 123t121 37q23 0 44.5 -2.5t40.5 -7.5v-99h-3q-8 2 -20 4t-29 2q-35 0 -52.5 -15t-17.5 -51v-612q0 -84 -43 -122t-120 -38q-24 0 -46 2.5t-40 7.5v100h3q9 -2 21.5 -4t29.5 -2q34 0 51 15t17 51v611z" />
    <glyph glyph-name="approxequal" unicode="&#x2248;" horiz-adv-x="592" 
d="M442 357q-29 0 -61 6t-63 13t-58 13t-47 6q-40 0 -50 -45h-86q10 76 48.5 112t92.5 36q30 0 62 -6t62 -13.5t56 -13.5t45 -6q23 0 34.5 11t15.5 32h88q-9 -69 -43 -107t-96 -38zM406 155q-30 0 -62 6t-62.5 13t-58 13t-47.5 6q-40 0 -49 -45h-87q11 77 49.5 112.5
t92.5 35.5q30 0 61.5 -6t61.5 -13.5t56.5 -13.5t45.5 -6q23 0 34.5 11t15.5 32h87q-9 -69 -43 -107t-95 -38z" />
    <glyph glyph-name="notequal" unicode="&#x2260;" horiz-adv-x="593" 
d="M104 473h267l79 114h88l-79 -114h118l-19 -96h-165l-73 -106h218l-19 -96h-266l-78 -114h-89l79 114h-119l19 96h166l74 106h-221z" />
    <glyph glyph-name="lessequal" unicode="&#x2264;" horiz-adv-x="535" 
d="M27 98h418l-19 -98h-418zM64 296l25 126l447 147l-22 -112l-212 -66q-21 -6 -46.5 -13t-47.5 -12q-26 -6 -51 -12v-2l46 -14q20 -6 43 -13.5t43 -14.5l183 -69l-21 -107z" />
    <glyph glyph-name="greaterequal" unicode="&#x2265;" horiz-adv-x="535" 
d="M430 0h-418l19 98h418zM509 407l-25 -125l-447 -147l22 112l213 65q20 6 45.5 12.5t47.5 12.5q26 6 51 13v2q-23 6 -46 13q-20 6 -43 13.5t-43 15.5l-183 69l21 107z" />
    <glyph glyph-name="uni24C5" unicode="&#x24c5;" horiz-adv-x="865" 
d="M454 -18q-80 0 -149.5 29t-121 81t-81 123t-29.5 154q0 84 29.5 155t81 122.5t121 81t149.5 29.5q81 0 150.5 -29.5t121 -81t81 -122.5t29.5 -155q0 -83 -29.5 -154t-81 -123t-121 -81t-150.5 -29zM454 28q70 0 130 26t103.5 71.5t68.5 108t25 135.5t-25 136t-68.5 108.5
t-103.5 71.5t-130 26t-130 -26t-103.5 -71.5t-68.5 -108.5t-25 -136t25 -135.5t68.5 -108t103.5 -71.5t130 -26zM305 580h189q37 0 64.5 -10.5t46.5 -29.5q38 -36 38 -97t-37.5 -98.5t-103.5 -37.5h-102v-148h-95v421zM400 381h83q32 0 49 16t17 44q0 29 -17 45.5t-49 16.5
h-83v-122z" />
    <glyph glyph-name="lozenge" unicode="&#x25ca;" horiz-adv-x="610" 
d="M584 371l-209 -371h-139l-210 372l209 372h139zM252 203q14 -26 23.5 -47t16.5 -36q8 -18 13 -31h2q5 13 12 31q6 15 16 36t24 47l88 165l-90 171q-14 26 -23.5 47.5t-16.5 36.5q-8 18 -13 30h-2l-12 -30q-6 -15 -16 -36.5t-24 -47.5l-89 -165z" />
    <glyph glyph-name="f_i" unicode="&#xf001;" horiz-adv-x="598" 
d="M156 534l14 72q8 41 22 66.5t37 42.5q22 17 53 24.5t69 7.5q17 -1 35.5 -2.5t37.5 -6.5l-17 -91q-30 3 -50.5 2t-34 -6.5t-20.5 -17t-10 -29.5l-12 -62h107l-17 -86h-107l-87 -448h-124l87 448h-78l18 86h77zM468 534h125l-104 -534h-125zM483 621l25 123h127l-25 -123
h-127z" />
    <glyph glyph-name="f_l" unicode="&#xf002;" horiz-adv-x="600" 
d="M170 606q8 43 23.5 69t40.5 43q41 29 112 29q37 0 78 -9l-17 -91q-30 3 -50.5 2t-34 -6.5t-20.5 -17t-10 -29.5l-12 -62h107l-17 -86h-107l-87 -448h-124l87 448h-78l18 86h77zM509 744h125l-145 -744h-125z" />
    <glyph glyph-name="uniF8FF" unicode="&#xf8ff;" horiz-adv-x="880" 
d="M68 745h745v-745h-745v745zM190 299h175v-176h150v176h175v149h-175v170h-150v-170h-175v-149z" />
    <glyph glyph-name="dotlessj" horiz-adv-x="242" 
d="M-38 -176q-19 0 -37.5 2.5t-32.5 5.5l18 91h3q8 -1 14 -1.5t13 -0.5q29 0 43.5 11.5t19.5 40.5l109 561h125l-111 -570q-8 -42 -23.5 -69t-36.5 -43t-47.5 -22t-56.5 -6z" />
    <glyph glyph-name="commaaccent" horiz-adv-x="530" 
d="M228 -139q-12 -60 -52.5 -87t-102.5 -29l10 49q65 8 74 55h-60l19 100h129z" />
    <glyph glyph-name="zero.denominator" horiz-adv-x="454" 
d="M169 -121q-85 0 -131 51t-46 136q0 60 17.5 113t48 92.5t73.5 62.5t94 23q83 0 128.5 -47.5t45.5 -138.5q0 -60 -16 -113t-46 -93t-72.5 -63t-95.5 -23zM171 -40q31 0 54 19.5t38.5 50.5t23 69t7.5 76q0 49 -17.5 76t-54.5 27q-30 0 -53 -20t-38.5 -51t-24 -69.5
t-8.5 -75.5q0 -49 18 -75.5t55 -26.5z" />
    <glyph glyph-name="one.denominator" horiz-adv-x="285" 
d="M106 192h-105l14 69q52 2 88 22.5t55 69.5h83l-90 -463h-104z" />
    <glyph glyph-name="two.denominator" horiz-adv-x="403" 
d="M-51 -110q8 51 28 83t46 55q38 32 81 55.5t79 43.5q35 20 54.5 40.5t19.5 51.5q0 26 -15.5 42t-44.5 16q-33 0 -54 -18q-24 -23 -32 -71h-100q7 43 18.5 69.5t34.5 49.5q22 23 55.5 37t80.5 14q81 0 120.5 -39t39.5 -96q0 -26 -7 -46.5t-19.5 -37t-29.5 -30t-38 -26.5
q-20 -13 -42 -25l-44 -24t-41.5 -24.5t-33.5 -26.5q-2 -2 -2.5 -3.5t-1.5 -3.5h208l-17 -86h-343v0z" />
    <glyph glyph-name="three.denominator" horiz-adv-x="421" 
d="M166 -121q-49 0 -84.5 13t-59.5 37q-23 23 -32.5 55.5t-7.5 62.5h97q0 -17 4 -33.5t14 -29t27 -20t42 -7.5q37 0 58 20.5t21 52.5q0 30 -19 47.5t-53 17.5h-29l13 71h24q41 0 63 15t22 48q0 24 -16.5 39.5t-45.5 15.5q-38 0 -60 -22t-27 -57h-98q10 72 59 112.5t129 40.5
q32 0 61 -7.5t51 -22.5t35 -37.5t13 -52.5q0 -43 -25 -69.5t-70 -38.5v-1q35 -10 55.5 -37.5t20.5 -61.5q0 -38 -14 -66.5t-39 -47t-58 -28t-71 -9.5z" />
    <glyph glyph-name="four.denominator" horiz-adv-x="425" 
d="M186 -7h-217l18 91l268 270h101l-56 -286h67l-15 -75h-66l-20 -103h-100zM56 65q12 0 24 1q11 1 24 1.5t25 0.5h71l21 105q2 13 6 27t7 26q4 14 7 27h-2q-10 -12 -20 -23q-9 -10 -19 -22t-21 -23l-54 -55q-11 -11 -23.5 -22t-22.5 -20q-12 -11 -23 -20v-3z" />
    <glyph glyph-name="five.denominator" horiz-adv-x="409" 
d="M151 -121q-39 0 -71 10.5t-55.5 29.5t-36.5 44.5t-15 55.5h101q4 -25 23.5 -42t54.5 -17q38 0 62.5 25.5t24.5 68.5q0 35 -18.5 54t-49.5 19q-24 0 -44 -9.5t-32 -25.5h-94l86 256h274l-14 -81h-203l-35 -102h3q16 15 39 25.5t57 10.5q24 0 48 -8.5t42.5 -26t30.5 -45
t12 -65.5q0 -41 -14 -73.5t-39 -55.5t-60 -35.5t-77 -12.5z" />
    <glyph glyph-name="six.denominator" horiz-adv-x="420" 
d="M167 -121q-68 0 -115 38q-28 23 -43.5 60.5t-15.5 91.5q0 68 24.5 133.5t72.5 107.5q26 23 58.5 35.5t75.5 12.5q71 0 108.5 -34.5t42.5 -83.5h-97q-3 18 -15.5 31.5t-41.5 13.5q-42 0 -72 -34.5t-47 -93.5h2q20 21 46.5 33t61.5 12q29 0 55 -10.5t45 -29.5t30 -45.5
t11 -58.5q0 -38 -14 -71t-39 -57t-59 -37.5t-74 -13.5zM165 -43q39 0 65.5 27.5t26.5 70.5q0 35 -21.5 55.5t-53.5 20.5q-40 0 -67 -26.5t-27 -68.5q0 -35 21 -57t56 -22z" />
    <glyph glyph-name="seven.denominator" horiz-adv-x="382" 
d="M16 -111q12 63 37 119.5t57.5 104.5t69 86t72.5 64v3l-36 -2q-16 -1 -35 -1.5t-39 -0.5h-121l16 86h329l-13 -78q-38 -31 -74 -71.5t-66.5 -89.5t-53.5 -104.5t-34 -115.5h-109v0z" />
    <glyph glyph-name="eight.denominator" horiz-adv-x="422" 
d="M163 -122q-40 0 -74 9.5t-58.5 27.5t-38 43t-13.5 56q0 54 31.5 85t79.5 43v2q-27 14 -40.5 36t-13.5 49q0 29 13 53t35.5 41t54 26t68.5 9q75 0 119.5 -32t44.5 -89q0 -37 -21.5 -65.5t-66.5 -40.5v-2q34 -14 52 -42t18 -60q0 -36 -14.5 -64t-40 -47t-60.5 -28.5
t-75 -9.5zM201 165q34 0 53.5 18.5t19.5 47.5q0 26 -18 42t-51 16t-53.5 -19t-20.5 -48q0 -26 19 -41.5t51 -15.5zM163 -46q39 0 63 21.5t24 59.5q0 30 -22.5 48.5t-57.5 18.5q-39 0 -63 -21.5t-24 -58.5q0 -32 21.5 -50t58.5 -18z" />
    <glyph glyph-name="nine.denominator" horiz-adv-x="421" 
d="M137 -121q-73 0 -114 35.5t-46 89.5h99q2 -20 16 -35.5t48 -15.5q38 0 68.5 32t45.5 96h-3q-39 -45 -104 -45q-31 0 -57.5 10.5t-45.5 29.5t-30 45t-11 58q0 39 14.5 71.5t40 56.5t61 37.5t77.5 13.5q38 0 66.5 -10t48.5 -27q26 -21 41 -55t15 -88q0 -37 -6.5 -74
t-19 -70.5t-31.5 -62.5t-44 -50q-27 -23 -58.5 -32.5t-70.5 -9.5zM175 107q41 0 68 26.5t27 71.5q0 36 -21 56t-55 20q-41 0 -67 -27t-26 -70q0 -34 19.5 -55.5t54.5 -21.5z" />
    <glyph glyph-name="zero.numerator" horiz-adv-x="454" 
d="M244 275q-85 0 -131 50.5t-46 135.5q0 60 17.5 113.5t48.5 93t74 62.5t94 23q82 0 127.5 -48t45.5 -139q0 -60 -16 -113t-45.5 -92.5t-72 -62.5t-96.5 -23zM247 356q30 0 53 19.5t38.5 50t23 69t7.5 76.5q0 48 -17 75t-54 27q-30 0 -53 -19.5t-39 -50.5t-24.5 -69.5
t-8.5 -75.5q0 -49 18.5 -75.5t55.5 -26.5z" />
    <glyph glyph-name="one.numerator" horiz-adv-x="285" 
d="M178 588h-104l13 68q53 2 88.5 23t55.5 69h82l-90 -462h-103z" />
    <glyph glyph-name="two.numerator" horiz-adv-x="403" 
d="M25 286q7 50 27 82.5t47 55.5q38 32 81 55.5t79 43.5q35 19 54 39.5t19 52.5q0 25 -15 41t-44 16q-17 0 -30.5 -3.5t-24.5 -13.5q-24 -23 -32 -71h-100q7 43 18.5 69.5t34.5 49.5t56 37t80 14q81 0 121 -39t40 -96q0 -53 -26.5 -84t-67.5 -57q-20 -13 -42 -24.5
t-44 -23.5t-42 -24.5t-34 -26.5q-3 -5 -3 -7h208l-18 -86h-342v0z" />
    <glyph glyph-name="three.numerator" horiz-adv-x="421" 
d="M241 275q-48 0 -84 13t-59 36q-24 23 -33.5 55.5t-7.5 62.5h97q0 -17 4.5 -33t14.5 -28.5t26.5 -20t41.5 -7.5q37 0 58 20t21 52q0 31 -19 48.5t-53 17.5h-28l13 71h23q41 0 63 14.5t22 47.5q0 25 -16 40.5t-46 15.5q-38 0 -59.5 -22t-27.5 -57h-97q10 72 58.5 112.5
t128.5 40.5q32 0 61 -7.5t51 -22.5t35 -38t13 -53q0 -42 -25 -69t-70 -38v-1q35 -11 55.5 -38t20.5 -62q0 -38 -14 -66t-39 -46.5t-58 -28t-71 -9.5z" />
    <glyph glyph-name="four.numerator" horiz-adv-x="425" 
d="M261 389h-217l18 91l269 270h100l-56 -287h67l-14 -74h-67l-20 -103h-100zM131 461q13 0 25 1q11 0 23.5 0.5t24.5 0.5h72l21 105q2 13 5.5 27l6.5 26q4 14 8 27h-2q-9 -12 -20 -23q-9 -10 -19.5 -22t-21.5 -23l-54 -54q-11 -11 -23.5 -22t-22.5 -20q-12 -11 -23 -21v-2z
" />
    <glyph glyph-name="five.numerator" horiz-adv-x="409" 
d="M227 275q-39 0 -71.5 10.5t-55.5 29t-36.5 44.5t-15.5 56h102q3 -26 22.5 -42.5t54.5 -16.5q38 0 62.5 25t24.5 68q0 35 -18.5 54t-48.5 19q-25 1 -44.5 -9t-32.5 -25h-93l85 256h275l-15 -82h-203l-34 -101h3q15 15 38 25t57 10q24 0 48 -8.5t43 -26t31 -45t12 -64.5
q0 -41 -14 -73.5t-39 -55.5t-60 -35.5t-77 -12.5z" />
    <glyph glyph-name="six.numerator" horiz-adv-x="420" 
d="M242 275q-69 0 -115 37q-28 23 -43.5 61t-15.5 91q0 68 24.5 134t72.5 108q27 23 59 35.5t76 12.5q35 0 62.5 -9.5t46 -25.5t29 -38t12.5 -46h-96q-3 19 -16 32.5t-42 13.5q-42 0 -72 -35t-46 -94h2q40 45 107 45q29 0 55 -10.5t45 -29t30 -45t11 -58.5q0 -39 -14 -71.5
t-39 -56.5t-59 -37.5t-74 -13.5zM241 353q39 0 65 27.5t26 70.5q0 34 -21 54.5t-53 20.5q-40 0 -67.5 -26.5t-27.5 -68.5q0 -35 21.5 -56.5t56.5 -21.5z" />
    <glyph glyph-name="seven.numerator" horiz-adv-x="382" 
d="M91 285q12 62 37.5 118.5t58 104.5t69 86.5t72.5 64.5v2l-36 -2q-16 -1 -35.5 -1.5t-39.5 -0.5h-121l16 87h330l-14 -78q-38 -31 -74 -72t-66.5 -89.5t-53 -104t-33.5 -115.5h-110v0z" />
    <glyph glyph-name="eight.numerator" horiz-adv-x="422" 
d="M238 273q-40 0 -73.5 10t-58 28t-38.5 43t-14 56q0 54 31.5 84.5t79.5 43.5v2q-26 14 -40 36t-14 49q0 29 13 53t36 40.5t54 25.5t68 9q75 0 119.5 -31.5t44.5 -88.5q0 -37 -21.5 -66t-66.5 -41v-2q34 -14 52 -41.5t18 -59.5q0 -37 -14.5 -65t-40 -47t-60.5 -28.5
t-75 -9.5zM276 560q34 0 54 19t20 48q0 26 -18.5 41.5t-50.5 15.5q-33 0 -53.5 -18.5t-20.5 -47.5q0 -27 19 -42.5t50 -15.5zM239 350q39 0 62.5 21.5t23.5 59.5q0 30 -22 48.5t-57 18.5q-39 0 -63.5 -21.5t-24.5 -58.5q0 -32 22 -50t59 -18z" />
    <glyph glyph-name="nine.numerator" horiz-adv-x="421" 
d="M212 275q-73 0 -113.5 35t-45.5 89h98q2 -19 16 -35t49 -16q38 0 68 32t45 96h-2q-42 -45 -104 -45q-31 0 -57.5 10.5t-46 29.5t-30.5 45.5t-11 57.5q0 39 14.5 72t40.5 57t61 37.5t77 13.5q39 0 67.5 -10t48.5 -27q26 -22 40.5 -56t14.5 -88q0 -36 -6 -73t-19 -71
t-32 -63t-44 -50q-26 -22 -58 -31.5t-71 -9.5zM250 503q41 0 68.5 26t27.5 72q0 35 -21.5 55.5t-54.5 20.5q-42 0 -68 -27.5t-26 -70.5q0 -34 19.5 -55t54.5 -21z" />
    <glyph glyph-name="acute.cap" horiz-adv-x="530" 
d="M356 913h150l-118 -128h-98z" />
    <glyph glyph-name="breve.cap" horiz-adv-x="530" 
d="M380 779q-31 0 -56.5 9t-43.5 26.5t-27.5 43t-7.5 57.5h77q2 -25 16 -39.5t46 -14.5q31 0 50 14t27 40h79q-14 -63 -54.5 -99.5t-105.5 -36.5z" />
    <glyph glyph-name="caron.alt" horiz-adv-x="492" 
d="M378 659q-10 -53 -45 -78.5t-91 -27.5l9 47q29 4 43.5 16t19.5 35h-52l18 93h114z" />
    <glyph glyph-name="caron.cap" horiz-adv-x="530" 
d="M397 785h-127l-80 123h110l39 -63h2l62 63h120z" />
    <glyph glyph-name="circumflex.cap" horiz-adv-x="530" 
d="M306 908h127l80 -123h-110l-39 63h-2l-62 -63h-120z" />
    <glyph glyph-name="commaaccent.alt" horiz-adv-x="530" 
d="M228 -139q-12 -60 -52.5 -87t-102.5 -29l10 49q65 8 74 55h-60l19 100h129z" />
    <glyph glyph-name="dieresis.cap" horiz-adv-x="530" 
d="M421 906h122l-23 -121h-123zM201 906h123l-24 -121h-122z" />
    <glyph glyph-name="dotaccent.cap" horiz-adv-x="530" 
d="M309 907h128l-24 -122h-128z" />
    <glyph glyph-name="grave.cap" horiz-adv-x="530" 
d="M237 913h141l33 -128h-92z" />
    <glyph glyph-name="hungarumlaut.cap" horiz-adv-x="530" 
d="M438 913h119l-89 -128h-84zM271 913h120l-90 -128h-84z" />
    <glyph glyph-name="macron.cap" horiz-adv-x="530" 
d="M222 883h294l-18 -91h-293z" />
    <glyph glyph-name="ring.cap" horiz-adv-x="537" 
d="M365 767q-23 0 -42.5 8t-34 22.5t-23 33.5t-8.5 41t8.5 41t23 33.5t34 23t42.5 8.5q22 0 41.5 -8.5t34 -23t23 -33.5t8.5 -41t-8.5 -41t-23 -33.5t-34 -22.5t-41.5 -8zM365 816q23 0 38 16t15 40t-15 40.5t-38 16.5q-24 0 -39 -16.5t-15 -40.5t15 -40t39 -16z" />
    <glyph glyph-name="tilde.cap" horiz-adv-x="530" 
d="M425 786q-21 0 -39 6.5t-33 15t-27.5 15t-23.5 6.5q-12 0 -22.5 -11t-13.5 -32h-74q7 63 37 94t71 31q22 0 39 -6.5t31 -15t26 -15t25 -6.5q30 0 36 41h75q-7 -57 -34.5 -90t-72.5 -33z" />
    <glyph glyph-name="Tcommaaccent" horiz-adv-x="652" 
d="M124 744h593l-23 -116h-229l-122 -628h-135l121 628h-228zM312 -139q-12 -60 -52.5 -87t-102.5 -29l10 49q65 8 74 55h-60l19 100h129z" />
    <glyph glyph-name="idotaccent" horiz-adv-x="242" 
d="M112 534h125l-104 -534h-124zM152 744h128l-25 -123h-127z" />
    <glyph glyph-name="tcommaaccent" horiz-adv-x="369" 
d="M78 534h80l33 170h123l-33 -170h100l-17 -85h-100l-58 -299q-6 -32 7 -44.5t40 -12.5q11 0 21.5 1.5l17.5 2.5h4l-17 -94q-13 -3 -31.5 -5.5t-44.5 -2.5q-65 0 -100.5 35t-21.5 107l60 312h-80zM202 -139q-12 -60 -52.5 -87t-102.5 -29l10 49q65 8 74 55h-60l19 100h129z
" />
    <glyph glyph-name="space_uni0326" horiz-adv-x="492" 
d="M235 -139q-12 -60 -52.5 -87t-102.5 -29l10 49q65 8 74 55h-60l19 100h129z" />
    <glyph glyph-name="space_uni0326.alt" horiz-adv-x="496" 
d="M288 709q12 60 52.5 86.5t102.5 28.5l-10 -48q-65 -9 -74 -56h60l-20 -99h-128z" />
    <glyph glyph-name="R.alt" horiz-adv-x="694" 
d="M373 289h-161l-56 -289h-137l145 744h297q60 0 102.5 -16t71.5 -45q26 -26 40 -63t14 -79q0 -89 -46.5 -154t-136.5 -88l123 -299h-146zM233 396h174q72 0 109 37.5t37 102.5q0 44 -27.5 69.5t-81.5 25.5h-165z" />
    <glyph glyph-name="Racute.alt" horiz-adv-x="694" 
d="M373 289h-161l-56 -289h-137l145 744h297q60 0 102.5 -16t71.5 -45q26 -26 40 -63t14 -79q0 -89 -46.5 -154t-136.5 -88l123 -299h-146zM233 396h174q72 0 109 37.5t37 102.5q0 44 -27.5 69.5t-81.5 25.5h-165zM431 913h150l-118 -128h-98z" />
    <glyph glyph-name="Rcaron.alt" horiz-adv-x="694" 
d="M373 289h-161l-56 -289h-137l145 744h297q60 0 102.5 -16t71.5 -45q26 -26 40 -63t14 -79q0 -89 -46.5 -154t-136.5 -88l123 -299h-146zM233 396h174q72 0 109 37.5t37 102.5q0 44 -27.5 69.5t-81.5 25.5h-165zM489 785h-127l-80 123h110l39 -63h2l62 63h120z" />
    <glyph glyph-name="Rcommaaccent.alt" horiz-adv-x="694" 
d="M373 289h-161l-56 -289h-137l145 744h297q60 0 102.5 -16t71.5 -45q26 -26 40 -63t14 -79q0 -89 -46.5 -154t-136.5 -88l123 -299h-146zM233 396h174q72 0 109 37.5t37 102.5q0 44 -27.5 69.5t-81.5 25.5h-165zM352 -139q-12 -60 -52.5 -87t-102.5 -29l10 49q65 8 74 55
h-60l19 100h129z" />
    <glyph glyph-name="Ccedilla.alt" horiz-adv-x="740" 
d="M262 -84l15 79q-103 27 -162 109.5t-59 205.5q0 94 29.5 175.5t82.5 142t126.5 95.5t160.5 35q69 0 120.5 -18.5t87.5 -50.5q40 -35 59 -83t21 -101h-134q-5 60 -44.5 100.5t-117.5 40.5q-59 0 -105.5 -28t-78.5 -74.5t-49.5 -106.5t-17.5 -125q0 -101 45.5 -158.5
t137.5 -57.5q38 0 70 12.5t57 35t42.5 53.5t25.5 67h137q-15 -69 -43.5 -119.5t-76.5 -90.5q-37 -30 -84 -48t-104 -22l-11 -59q-11 -56 -48 -81.5t-105 -26.5l10 48q33 3 50.5 14.5t22.5 36.5h-60z" />
    <glyph glyph-name="Scedilla.alt" horiz-adv-x="667" 
d="M625 215q0 -48 -18 -88.5t-51.5 -70.5t-81.5 -49t-108 -23l-11 -59q-11 -56 -48 -81.5t-105 -26.5l10 48q33 3 50.5 14.5t22.5 36.5h-60l14 76q-107 21 -163 87t-58 159h138q7 -71 50.5 -109t131.5 -38q66 0 106 30t40 83q0 24 -10 41.5t-30.5 31.5t-52 27t-73.5 28
q-45 16 -83.5 33.5t-67 41.5t-45 56.5t-16.5 78.5q0 48 18 87.5t52.5 68t84.5 44.5t114 16q66 0 116.5 -16.5t85 -45.5t53.5 -70t23 -90h-132q-5 53 -43 86t-107 33q-61 0 -95 -26.5t-34 -71.5q0 -21 9.5 -36.5t29 -29t50 -26t71.5 -27.5q46 -16 86.5 -34t71 -43.5t48 -60.5
t17.5 -85z" />
    <glyph glyph-name="ccedilla.alt" horiz-adv-x="560" 
d="M158 -84l15 81q-69 23 -107.5 79.5t-38.5 138.5q0 70 21 130.5t60 105.5t94 71t122 26q53 0 93 -15t67 -41t41.5 -61t16.5 -75h-121q-2 43 -27 70t-76 27q-40 0 -71 -20.5t-52 -54.5t-32 -78t-11 -90q0 -62 28.5 -96.5t83.5 -34.5q102 0 136 115h124q-23 -95 -81 -147
t-143 -62l-12 -60q-11 -56 -48 -81.5t-105 -26.5l10 48q32 3 50 14.5t22 36.5h-59z" />
    <glyph glyph-name="scedilla.alt" horiz-adv-x="527" 
d="M149 -84l15 76q-77 16 -117 61t-43 111h121q5 -49 37 -71t86 -22q52 0 76.5 22t24.5 55q0 32 -31.5 48.5t-90.5 33.5q-34 10 -64 22t-52.5 29t-35.5 41.5t-13 60.5q0 38 15 68.5t43 52.5t67 33.5t87 11.5q107 0 160.5 -43t60.5 -115h-120q-6 73 -101 73q-45 0 -68 -18
t-23 -47q0 -15 8 -26t24 -19.5t39 -15.5t52 -16q32 -9 62 -21t53 -30.5t37.5 -45t14.5 -64.5q0 -37 -12.5 -67t-36.5 -52t-57.5 -36t-74.5 -19l-12 -62q-11 -56 -48 -81.5t-105 -26.5l9 48q33 3 51 14.5t22 36.5h-60z" />
    <glyph glyph-name="hyphen.cap" horiz-adv-x="378" 
d="M66 392h299l-24 -125h-299z" />
    <glyph glyph-name="endash.cap" horiz-adv-x="500" 
d="M75 384h401l-22 -108h-401z" />
    <glyph glyph-name="emdash.cap" horiz-adv-x="1000" 
d="M125 384h801l-21 -108h-801z" />
    <glyph glyph-name="questiondown.cap" horiz-adv-x="555" 
d="M321 744h137l-27 -139h-137zM247 -13q-52 0 -94.5 13t-72.5 37t-46.5 58.5t-16.5 76.5q0 36 10.5 64t28 50.5t39 39t43.5 30.5q24 15 42 26t32 20t24.5 17.5t18.5 18.5q12 14 18.5 29t11.5 38h115q-7 -40 -17 -67.5t-24 -48.5t-34.5 -38t-48.5 -35q-23 -14 -45.5 -26.5
t-40.5 -28t-29 -35.5t-11 -50q0 -36 26 -60.5t79 -24.5q57 0 96.5 35.5t49.5 103.5h125q-15 -114 -86.5 -178.5t-192.5 -64.5z" />
    <glyph glyph-name="exclamdown.cap" horiz-adv-x="273" 
d="M63 212l92 293h65l-27 -300l-40 -205h-132zM163 744h137l-27 -139h-137z" />
    <glyph glyph-name="parenleft.cap" horiz-adv-x="348" 
d="M172 -99q-42 74 -67.5 164t-25.5 192q0 91 20 171.5t54.5 151t81.5 130.5t101 109h108q-55 -61 -98.5 -126.5t-74 -138t-46.5 -152.5t-16 -171q0 -92 16 -175t45 -155h-98v0z" />
    <glyph glyph-name="parenright.cap" horiz-adv-x="348" 
d="M-57 -99q55 61 98.5 126.5t74 138t46.5 152.5t16 171q0 92 -16 175t-45 155h98q42 -74 67.5 -164t25.5 -192q0 -91 -19.5 -171.5t-54 -151t-81.5 -130.5t-101 -109h-109v0z" />
    <glyph glyph-name="bracketleft.cap" horiz-adv-x="392" 
d="M186 819h274l-19 -98h-152l-140 -721h152l-20 -99h-273z" />
    <glyph glyph-name="bracketright.cap" horiz-adv-x="393" 
d="M-9 0h151l140 721h-150l18 98h274l-179 -918h-273z" />
    <glyph glyph-name="braceleft.cap" horiz-adv-x="395" 
d="M264 -99q-106 0 -149.5 44.5t-23.5 148.5l29 149q8 38 -8 58t-64 22l18 96q24 1 42 5t30 11.5t19 20t11 31.5l33 170q9 47 25 78t40.5 50t59 26.5t81.5 7.5h55l-19 -98h-33q-41 0 -61 -16t-29 -61l-35 -180q-9 -47 -31 -68t-62 -32v-3q35 -14 48 -39.5t3 -74.5l-33 -168
q-9 -47 7.5 -63t57.5 -16h28l-19 -99h-20v0z" />
    <glyph glyph-name="braceright.cap" horiz-adv-x="394" 
d="M-9 -2h34q41 0 61 16.5t28 61.5l36 185q9 47 30.5 68t61.5 32v3q-35 14 -47 39.5t-2 74.5l31 163q9 47 -7.5 62.5t-57.5 15.5h-28l20 100h19q106 0 149.5 -44.5t23.5 -148.5l-28 -144q-8 -38 8 -58t64 -22l-19 -96q-48 -2 -70.5 -16t-30.5 -52l-33 -175q-9 -47 -25 -78
t-41 -50t-60 -26.5t-81 -7.5h-55z" />
    <glyph glyph-name="guillemotleft.cap" horiz-adv-x="506" 
d="M71 275l24 122l185 146l-25 -129l-108 -85v-2l73 -91l-23 -118zM285 275l25 122l184 146l-25 -129l-108 -85v-2l73 -91l-23 -118z" />
    <glyph glyph-name="guillemotright.cap" horiz-adv-x="506" 
d="M463 386l-25 -121l-184 -147l25 130l108 84v2l-73 92l23 117zM248 386l-24 -121l-184 -147l25 130l108 84v2l-73 92l22 117z" />
    <glyph glyph-name="guilsinglleft.cap" horiz-adv-x="307" 
d="M71 275l24 123l201 153l-27 -135l-118 -88v-2l83 -94l-24 -122z" />
    <glyph glyph-name="guilsinglright.cap" horiz-adv-x="307" 
d="M264 386l-24 -124l-201 -152l26 134l119 88v2l-83 94l24 123z" />
    <glyph glyph-name="registered.alt" horiz-adv-x="865" 
d="M454 -18q-80 0 -149.5 29t-121 81t-81 123t-29.5 154q0 84 29.5 155t81 122.5t121 81t149.5 29.5t150 -29.5t121.5 -81t81 -122.5t29.5 -155q0 -83 -29.5 -154t-81 -123t-121.5 -81t-150 -29zM454 28q70 0 130 26t103.5 71.5t68.5 108t25 135.5t-25 136t-68.5 108.5
t-103.5 71.5t-130 26t-130 -26t-104 -71.5t-69 -108.5t-25 -136t25 -135.5t69 -108t104 -71.5t130 -26zM291 583h201q62 0 102.5 -31t40.5 -89q0 -37 -18.5 -63.5t-57.5 -39.5v-2q31 -9 45.5 -28.5t19.5 -53.5q6 -44 7 -73t11 -34v-6h-94q-8 5 -9.5 33t-6.5 64
q-4 32 -20.5 47.5t-51.5 15.5h-74v-160h-95v420zM386 393h87q34 0 50.5 15.5t16.5 41.5q0 27 -15 42.5t-49 15.5h-90v-115z" />
    <glyph glyph-name="dollar.cap" horiz-adv-x="651" 
d="M241 -1q-108 17 -164 79t-58 153h134q8 -107 108 -131l44 226q-43 14 -80 31.5t-64 41.5t-42 56t-15 76q0 46 18 85t52.5 66.5t83.5 43t112 15.5h16l15 76h63l-17 -83q88 -17 137 -68.5t54 -129.5h-128q-6 73 -82 98l-40 -203h1q45 -14 84 -31.5t68.5 -43t46.5 -60.5
t17 -83q0 -49 -20 -89.5t-56.5 -70t-88.5 -45.5t-115 -16h-12t-11 1l-22 -114h-62zM468 202q0 38 -24.5 61t-80.5 44l-42 -214h5q63 0 102.5 29t39.5 80zM236 546q-1 -32 21.5 -53.5t72.5 -41.5l37 192h-4q-62 0 -94 -27t-33 -70z" />
    <glyph glyph-name="Euro.cap" horiz-adv-x="678" 
d="M64 463h56q19 64 50.5 116.5t74 89.5t93.5 57t109 20t102 -17.5t74 -49t46.5 -74.5t20.5 -93h-130q-7 60 -34 94.5t-86 34.5q-64 0 -110 -50t-72 -128h188l-12 -61h-192q-4 -20 -6.5 -40.5t-4.5 -40.5h187l-12 -61h-176q7 -170 136 -170q65 0 102.5 41t59.5 113h129
q-13 -59 -38.5 -107t-63 -82t-86 -53t-108.5 -19q-57 0 -104.5 18t-82 53.5t-55 87t-23.5 118.5h-72l13 61h60q1 42 9 81h-54z" />
    <glyph glyph-name="sterling.cap" horiz-adv-x="614" 
d="M70 396h61q-7 29 -13.5 59.5t-6.5 62.5q0 52 18 94t51.5 71.5t81.5 45.5t108 16q119 0 187 -63.5t66 -188.5h-130q2 76 -30 112t-92 36t-91.5 -36t-31.5 -96q0 -27 4.5 -55.5t9.5 -57.5h147l-15 -81h-124v-1q0 -65 -31 -111.5t-100 -88.5l2 -3q29 14 51 19.5t48 5.5
t46.5 -5.5t39.5 -12.5t37 -12.5t39 -5.5q32 0 59.5 13t49.5 30l50 -96q-35 -26 -77.5 -43.5t-88.5 -17.5q-38 0 -65 8.5t-51 19t-48 19t-55 8.5q-33 0 -61 -13.5t-54 -29.5l-56 103q28 16 53.5 36t45 44.5t31.5 53.5t12 63v8t-1 9h-92z" />
    <glyph glyph-name="yen.cap" horiz-adv-x="651" 
d="M95 343h160l-148 387h142l52 -151q8 -26 17 -57.5l17 -59.5q9 -33 17 -66h2l40 66q17 28 37 59.5t39 57.5l109 151h147l-298 -387h162l-12 -61h-183l-15 -79h183l-12 -61h-183l-28 -142h-129l28 142h-184l13 61h183l15 79h-183z" />
    <glyph glyph-name="zero.cap" horiz-adv-x="699" 
d="M327 -18q-67 0 -117.5 23t-85 63.5t-52 96.5t-17.5 123q0 93 25.5 178.5t73 151t113.5 104t147 38.5q64 0 113.5 -21.5t84 -61t52.5 -95.5t18 -124q0 -95 -24 -181t-69.5 -151.5t-111.5 -104.5t-150 -39zM328 91q55 0 96 33t68 86.5t40.5 120t13.5 133.5
q0 87 -33.5 138.5t-102.5 51.5q-52 0 -92.5 -34t-68 -87.5t-42 -119.5t-14.5 -130q0 -89 32 -140.5t103 -51.5z" />
    <glyph glyph-name="one.cap" horiz-adv-x="431" 
d="M250 511h-171l17 90q81 3 139.5 35.5t89.5 113.5h106l-146 -750h-135z" />
    <glyph glyph-name="two.cap" horiz-adv-x="622" 
d="M-18 0q14 78 45 130t75 90q56 49 122 84.5t127 67.5q33 17 59 34.5t45 37.5t29 44.5t10 56.5q0 48 -27.5 78t-82.5 30q-32 0 -54 -8t-41 -25q-46 -39 -63 -133h-133q11 72 35 119.5t59 80.5q37 35 88.5 54.5t114.5 19.5q59 0 104.5 -16t76 -44t46.5 -66.5t16 -82.5
q0 -50 -14.5 -86.5t-40 -65.5t-60.5 -52.5t-75 -47.5q-34 -21 -72 -41t-73.5 -41.5t-66.5 -46t-52 -54.5v-2h362l-22 -115h-537v0z" />
    <glyph glyph-name="three.cap" horiz-adv-x="657" 
d="M325 -18q-79 0 -133 21.5t-92 59.5q-37 36 -52 86t-13 102h130q-1 -34 7 -63.5t27.5 -51.5t51 -35t76.5 -13q66 0 106 36t40 100q0 54 -34 87t-97 33h-50l18 97h41q157 0 157 115q0 46 -30.5 75.5t-84.5 29.5q-67 0 -107 -40.5t-48 -107.5h-130q15 116 91.5 182t199.5 66
q51 0 95.5 -13t77.5 -37.5t52 -61t19 -83.5q0 -70 -41 -113.5t-110 -62.5v-2q28 -9 50 -25.5t37.5 -38t24 -48t8.5 -54.5q0 -59 -22.5 -104t-61.5 -75t-91 -45.5t-112 -15.5z" />
    <glyph glyph-name="four.cap" horiz-adv-x="653" 
d="M364 174h-348l23 120l444 458h125l-94 -476h113l-20 -102h-113l-34 -174h-130zM136 271q20 1 38 2q16 1 34 2t34 1h142l43 220q3 16 7.5 34t9.5 35q5 18 11 38h-2l-28 -34q-12 -14 -26.5 -30.5t-27.5 -30.5l-135 -139q-14 -14 -31.5 -31t-32.5 -31q-18 -17 -36 -33v-3z
" />
    <glyph glyph-name="five.cap" horiz-adv-x="635" 
d="M296 -18q-64 0 -114 18t-85.5 48.5t-54.5 70.5t-21 85h134q2 -22 12 -42.5t27 -36t42.5 -24.5t59.5 -9t63.5 12.5t51 35.5t33.5 55.5t12 73.5q0 57 -32.5 94.5t-91.5 37.5q-45 1 -81.5 -18t-59.5 -48h-125l137 409h426l-21 -111h-328l-63 -189h2q27 26 66 42t92 16
q41 0 80 -14.5t69 -43t48.5 -71t18.5 -99.5q0 -67 -22.5 -121t-62 -92t-94 -58.5t-118.5 -20.5z" />
    <glyph glyph-name="six.cap" horiz-adv-x="656" 
d="M319 -18q-69 0 -118.5 22.5t-84.5 62.5q-32 36 -47 88.5t-15 119.5q0 58 10 116.5t29.5 112.5t48 100t65.5 79q42 38 92.5 58t113.5 20q57 0 99 -16t70.5 -42.5t43.5 -61t18 -71.5h-129q-2 18 -9 34t-19.5 29t-32 20.5t-46.5 7.5q-78 0 -131 -66t-80 -181h2q72 85 185 85
q48 0 89.5 -17t71.5 -47.5t47.5 -72.5t17.5 -92q0 -59 -22 -111.5t-60.5 -91.5t-92 -62t-116.5 -23zM318 85q36 0 66.5 14.5t52 39t33.5 57.5t12 70q0 30 -10 54.5t-27.5 42.5t-42 27.5t-53.5 9.5q-38 0 -69.5 -13t-54.5 -36t-35.5 -55t-12.5 -69q0 -64 38 -103t103 -39z
" />
    <glyph glyph-name="seven.cap" horiz-adv-x="581" 
d="M90 0q19 99 60 193t96 176.5t119 149.5t129 113v3q-21 -2 -47 -3q-22 -2 -50 -2.5t-57 -0.5h-239l23 115h522l-21 -104q-63 -50 -125 -117.5t-115.5 -149t-93.5 -176t-58 -197.5h-143v0z" />
    <glyph glyph-name="eight.cap" horiz-adv-x="657" 
d="M316 -18q-60 0 -112.5 15t-92.5 43.5t-63 70t-23 94.5q0 44 14.5 78.5t39.5 60.5t59 43.5t73 26.5v4q-40 20 -63.5 56t-23.5 82q0 45 19.5 82.5t55 64.5t84.5 42t109 15q56 0 102 -13.5t79 -38.5t51.5 -60t18.5 -78q0 -65 -36 -111t-108 -64v-3q54 -22 83 -67.5
t29 -102.5q0 -58 -22.5 -102.5t-62 -75t-93.5 -46.5t-117 -16zM379 445q62 0 98.5 31.5t36.5 84.5q0 47 -34 74.5t-91 27.5q-62 0 -99 -31t-37 -83q0 -49 34.5 -76.5t91.5 -27.5zM315 84q39 0 69.5 11t50.5 30.5t30.5 46t10.5 57.5q0 55 -39.5 91t-111.5 36
q-78 0 -120.5 -41t-42.5 -105q0 -57 40.5 -91.5t112.5 -34.5z" />
    <glyph glyph-name="nine.cap" horiz-adv-x="659" 
d="M284 -18q-59 0 -103.5 16t-75.5 44t-48 64.5t-20 78.5h129q2 -20 9.5 -38t21.5 -32.5t35.5 -23t53.5 -8.5t59.5 12t52.5 35q64 56 97 195h-2q-35 -38 -80.5 -59.5t-99.5 -21.5q-51 0 -93.5 18t-73 49.5t-48 73.5t-17.5 91q0 59 22.5 111t62.5 90.5t95.5 61t121.5 22.5
q60 0 106.5 -18.5t78.5 -47.5q38 -35 57.5 -85t19.5 -122q0 -63 -11.5 -128.5t-34 -125.5t-55 -110.5t-75.5 -82.5q-77 -59 -185 -59zM344 343q38 0 70 13t55 36.5t36 56t13 70.5q0 64 -38.5 102t-100.5 38q-38 0 -69 -13.5t-53 -37.5t-34.5 -56t-12.5 -69q0 -63 36 -101.5
t98 -38.5z" />
    <glyph glyph-name="percent.cap" horiz-adv-x="921" 
d="M691 729h84l-506 -729h-84zM240 321q-38 0 -68 12.5t-52 35.5t-33.5 55.5t-11.5 71.5q0 53 15.5 98.5t42.5 79.5t64 53t81 19q77 0 120 -48.5t43 -128.5q0 -54 -15.5 -99.5t-42.5 -78.5t-64 -51.5t-79 -18.5zM241 397q24 0 43 16t31.5 42t19.5 59.5t7 68.5
q0 42 -16.5 65.5t-49.5 23.5q-24 0 -42.5 -16t-31 -42t-19.5 -59t-7 -68q0 -41 15 -65.5t50 -24.5zM684 -18q-38 0 -68 12.5t-52 35.5t-33.5 55.5t-11.5 72.5q0 53 15.5 98.5t42.5 79.5t64 53t81 19q77 0 120 -48.5t43 -127.5q0 -54 -15.5 -100t-43 -79t-64 -52t-78.5 -19z
M686 58q24 0 42.5 16t31 42.5t19.5 60t7 68.5q0 42 -16.5 65t-49.5 23q-24 0 -43 -15.5t-31.5 -41.5t-19.5 -59t-7 -68q0 -42 16 -66.5t51 -24.5z" />
    <glyph glyph-name="perthousand.cap" horiz-adv-x="1326" 
d="M688 729h83l-505 -729h-85zM240 321q-38 0 -68 12.5t-52 35.5t-33.5 55.5t-11.5 71.5q0 53 15.5 98.5t42.5 79.5t64 53t81 19q77 0 120 -48.5t43 -128.5q0 -54 -15.5 -99.5t-42.5 -78.5t-64 -51.5t-79 -18.5zM241 397q24 0 43 16t31.5 42t19.5 59.5t7 68.5
q0 42 -16.5 65.5t-49.5 23.5q-24 0 -42.5 -16t-31 -42t-19.5 -59t-7 -68q0 -41 15 -65.5t50 -24.5zM677 -18q-38 0 -68 12.5t-52 35.5t-33.5 55.5t-11.5 72.5q0 53 15.5 98.5t42.5 79.5t64 53t81 19q77 0 120 -48.5t43 -127.5q0 -54 -15.5 -100t-43 -79t-64 -52t-78.5 -19z
M678 58q24 0 43 16t31.5 42.5t19.5 60t7 68.5q0 42 -17 65t-49 23q-24 0 -43 -15.5t-31.5 -41.5t-19.5 -59t-7 -68q0 -42 15.5 -66.5t50.5 -24.5zM1088 -18q-38 0 -68 12.5t-52 35.5t-33.5 55.5t-11.5 72.5q0 53 15.5 98.5t42.5 79.5t64 53t81 19q78 0 120.5 -48.5
t42.5 -127.5q0 -54 -15.5 -100t-42.5 -79t-64 -52t-79 -19zM1090 58q24 0 42.5 16t31.5 42.5t19.5 60t6.5 68.5q0 42 -16.5 65t-49.5 23q-24 0 -42.5 -15.5t-31.5 -41.5t-19.5 -59t-6.5 -68q0 -42 15.5 -66.5t50.5 -24.5z" />
    <glyph glyph-name="dollar.tab" 
d="M236 -1q-104 17 -158.5 77.5t-55.5 150.5h131q8 -106 103 -129l43 220q-42 14 -77.5 31t-62 40.5t-41 55t-14.5 74.5q0 45 17.5 83t50.5 65t80.5 42t106.5 15h9.5t9.5 -1l15 76h61l-16 -82q85 -17 131.5 -67.5t51.5 -125.5h-124q-4 34 -24 58.5t-55 36.5l-38 -197h1
q43 -14 81.5 -31.5t66.5 -42.5t44.5 -59t16.5 -80q0 -48 -19.5 -88t-55 -68.5t-85.5 -44.5t-112 -16h-11.5t-10.5 1l-21 -110h-61zM456 198q0 36 -23 58.5t-77 42.5l-41 -208h4q62 0 99.5 28t37.5 79zM234 534q-1 -32 20 -53t69 -40l36 187h-3q-61 0 -91 -26t-31 -68z" />
    <glyph glyph-name="Euro.tab" 
d="M54 453h53q18 60 47 110t69 87t89.5 57.5t107.5 20.5q55 0 96 -16t68.5 -46t43 -72t18.5 -94h-127q-3 24 -9 47t-18 40.5t-31 28t-49 10.5q-32 0 -58.5 -13.5t-47.5 -36.5t-37.5 -55t-27.5 -68h171l-12 -61h-174q-4 -20 -6 -39l-4 -38h169l-12 -61h-159q1 -36 8 -66
t22 -52.5t38.5 -35t58.5 -12.5q59 1 93.5 39t54.5 111h126q-25 -121 -97.5 -187.5t-181.5 -66.5q-57 0 -102.5 18.5t-78.5 53.5t-51.5 85t-21.5 113h-68l13 61h56q3 40 9 77h-51z" />
    <glyph glyph-name="sterling.tab" 
d="M91 387h59q-7 29 -13 58t-6 61q0 51 17.5 91.5t50.5 69.5t79.5 44.5t104.5 15.5q117 0 183.5 -62t64.5 -184h-127q2 75 -29 110t-89 35q-59 0 -90 -34.5t-31 -94.5q0 -26 4.5 -53.5t9.5 -56.5h144l-15 -79h-121v-1q0 -63 -30.5 -107.5t-97.5 -84.5l1 -3q29 13 50 18.5
t47 5.5q25 0 45.5 -5.5t38.5 -12.5t35.5 -12.5t38.5 -5.5q32 0 59 13t47 30l50 -97q-35 -26 -76.5 -43t-85.5 -17q-37 0 -64 8.5t-50 18.5t-46.5 18.5t-53.5 8.5q-32 0 -60 -13.5t-52 -28.5l-56 100q27 16 52 36t44 44t30.5 52t11.5 61v8t-1 9h-89z" />
    <glyph glyph-name="yen.tab" 
d="M99 335h165l-129 378h135l43 -146q8 -26 14.5 -55t11.5 -54q6 -29 11 -58h2q14 27 30 55q14 24 31 52.5t36 56.5l100 149h141l-277 -378h168l-12 -60h-178l-15 -77h178l-11 -60h-178l-27 -138h-127l27 138h-178l12 60h177l15 77h-177z" />
    <glyph glyph-name="cent.tab" 
d="M249 -12q-85 15 -133 75t-48 152q0 69 21 129t59.5 104.5t91.5 71t118 28.5l17 87h60l-18 -90q84 -14 125.5 -67t46.5 -125h-121q-2 35 -19 61t-50 35l-72 -369q85 12 115 115h123q-24 -104 -91.5 -157t-165.5 -55l-20 -107h-60zM194 210q0 -103 74 -126l71 368
q-34 -6 -61 -28.5t-45.5 -55.5t-28.5 -74t-10 -84z" />
    <glyph glyph-name="florin.tab" 
d="M167 428h111l36 159q18 80 66 113q33 23 83.5 27t104.5 -4l-14 -93q-28 2 -47.5 1t-33 -7.5t-22 -19.5t-13.5 -34l-32 -142h131l-16 -84h-134l-82 -368q-17 -78 -61 -111q-15 -11 -35 -17t-42 -8t-44.5 -0.5t-42.5 4.5l14 87q36 -3 57 7.5t30 50.5l79 355h-109z" />
    <glyph glyph-name="currency.tab" 
d="M345 227q51 0 78 36.5t27 93.5t-27 94t-78 37t-79.5 -37t-28.5 -94t28.5 -93.5t79.5 -36.5zM102 169l69 69q-34 53 -34 119q0 65 34 118l-69 70l63 61l68 -70q23 15 51 23.5t61 8.5q32 0 60 -8.5t51 -23.5l69 70l63 -61l-70 -70q33 -51 33 -118q0 -32 -8.5 -62.5
t-24.5 -55.5l70 -70l-63 -62l-69 70q-47 -30 -111 -30q-65 0 -111 30l-69 -70z" />
    <glyph glyph-name="zero.tab" 
d="M296 -17q-60 0 -105 20.5t-74 57t-43.5 87t-14.5 109.5q0 46 8 98.5t25 105t43.5 100.5t63.5 85.5t84 59.5t106 22q57 0 100.5 -19t73.5 -55t45.5 -87t15.5 -114q0 -47 -8 -100.5t-25 -106t-43.5 -100t-62.5 -84t-83.5 -58t-105.5 -21.5zM190 247q0 -29 4.5 -58t17 -52
t34 -37t54.5 -14q35 0 62.5 19t49 50t37 71t25.5 82t14.5 82.5t4.5 73.5q0 75 -25.5 118t-82.5 43q-35 0 -63 -19t-49.5 -50t-37 -71t-25.5 -82t-15 -83t-5 -73z" />
    <glyph glyph-name="one.tab" 
d="M355 480h-185l18 86q96 2 155 37.5t87 114.5h101l-139 -718h-129z" />
    <glyph glyph-name="two.tab" 
d="M7 0q14 75 43.5 124.5t70.5 85.5q54 47 117 81.5t122 65.5q31 16 56.5 32.5t43.5 36t27.5 43t9.5 53.5q0 45 -26.5 74t-77.5 29q-30 0 -51.5 -7.5t-40.5 -24.5q-43 -37 -60 -126h-127q11 69 33.5 114t56.5 77q35 33 84 51.5t111 18.5q56 0 99 -15.5t72.5 -42t44.5 -63
t15 -78.5q0 -48 -14.5 -83t-39 -62.5t-57.5 -50t-70 -44.5q-32 -20 -67 -38t-68.5 -38.5t-63.5 -44t-52 -54.5v-2h344l-21 -112h-514v0z" />
    <glyph glyph-name="three.tab" 
d="M317 -17q-69 0 -121 20.5t-88 55.5q-35 35 -50 83t-11 98h124q-1 -32 6.5 -60.5t25 -49.5t46.5 -33t70 -12q63 0 100.5 34.5t37.5 96.5q0 48 -31.5 81t-90.5 33h-47l17 92h39q147 0 147 110q0 44 -26 72t-78 28q-64 0 -102.5 -38.5t-46.5 -102.5h-126q15 111 89 174
t192 63q48 0 89.5 -12.5t72 -36t48 -58t17.5 -79.5q0 -66 -39 -108.5t-104 -60.5v-2q52 -17 82.5 -60.5t30.5 -98.5q0 -56 -21.5 -99t-58.5 -72t-86.5 -43.5t-106.5 -14.5z" />
    <glyph glyph-name="four.tab" 
d="M360 167h-327l23 115l419 438h119l-90 -456h98l-18 -97h-99l-32 -167h-125zM148 260l36 2q15 1 32.5 1.5t32.5 0.5h129l41 211q3 15 7.5 33t9 33t7.5 25.5t4 10.5h-2q-12 -17 -25 -33q-11 -14 -24.5 -29.5t-25.5 -28.5l-128 -133q-13 -14 -29.5 -29.5t-30.5 -29.5
l-34 -32v-2z" />
    <glyph glyph-name="five.tab" 
d="M305 -17q-61 0 -109 17t-82 46.5t-52 68t-19 81.5h129q2 -21 11 -40.5t25.5 -34.5t40 -23.5t55.5 -8.5q33 0 60.5 12t47.5 33.5t31 52.5t11 70q0 55 -30 90.5t-85 35.5q-44 1 -78 -17.5t-55 -44.5h-120l130 391h404l-20 -106h-309l-60 -180h2q26 25 62.5 40t86.5 15
q39 0 75.5 -14t65 -41.5t46 -68.5t17.5 -95q0 -63 -21 -114.5t-58.5 -88t-89 -56.5t-112.5 -20z" />
    <glyph glyph-name="six.tab" 
d="M315 82q34 0 62.5 13.5t48 37t30.5 55t11 67.5q0 58 -33.5 93t-88.5 35q-36 0 -65 -12.5t-50 -34.5t-32.5 -52t-11.5 -66q0 -62 34.5 -99t94.5 -37zM316 -17q-65 0 -109.5 20.5t-76.5 56.5q-63 70 -63 203q0 55 9.5 111.5t28.5 108t46.5 96t62.5 75.5q40 36 86 55t106 19
q54 0 93.5 -15t66.5 -40.5t41.5 -58t17.5 -68.5h-123q-2 16 -8.5 32t-18.5 28t-30 19.5t-44 7.5q-72 0 -121 -63t-75 -173h2q35 40 76.5 60t95.5 20q45 0 84 -16t67 -45t44 -69t16 -88q0 -57 -20.5 -107.5t-57 -88t-86.5 -59t-110 -21.5z" />
    <glyph glyph-name="seven.tab" 
d="M127 0q19 95 58.5 185t91.5 168.5t113 143t123 108.5v2q-20 -2 -44 -3q-20 -1 -46 -1.5t-55 -0.5h-226l22 110h496l-20 -100q-60 -48 -119 -112.5t-109.5 -142.5t-88.5 -168t-55 -189h-141z" />
    <glyph glyph-name="eight.tab" 
d="M313 81q37 0 65 10.5t47 29.5t28.5 44t9.5 55q0 52 -37 86.5t-105 34.5q-73 0 -112.5 -39t-39.5 -101q0 -54 38 -87t106 -33zM374 426q57 0 91 30t34 81q0 45 -31 71.5t-85 26.5q-58 0 -93 -30t-35 -80q0 -47 32.5 -73t86.5 -26zM314 -17q-56 0 -106 14.5t-88 41.5
t-60 66.5t-22 90.5q0 42 13.5 75.5t37.5 58t56.5 41t69.5 25.5v3q-38 20 -60.5 54.5t-22.5 79.5q0 42 18.5 78t52.5 62t80 40.5t102 14.5q52 0 96 -13t75 -37t48.5 -57.5t17.5 -75.5q0 -62 -34 -106t-103 -62v-3q51 -20 79.5 -64t28.5 -98q0 -55 -21.5 -97.5t-59 -72
t-88.5 -44.5t-110 -15z" />
    <glyph glyph-name="nine.tab" 
d="M335 329q36 0 65.5 12.5t51 35t33.5 53t12 67.5q0 61 -36 97t-93 36q-35 0 -63.5 -13t-49 -35.5t-32 -53t-11.5 -66.5q0 -60 32.5 -96.5t90.5 -36.5zM278 -17q-56 0 -98.5 15.5t-72 42t-45.5 61.5t-19 75h124q2 -18 9 -35.5t20 -31t33.5 -22t49.5 -8.5t53 9.5t47 29.5
q62 53 95 191l-2 1q-33 -37 -74.5 -57t-92.5 -20q-47 0 -87 17t-68.5 47t-44.5 70t-16 87q0 57 20.5 106.5t58 86.5t89.5 58.5t115 21.5q58 0 100.5 -17.5t72.5 -45.5q36 -34 54.5 -82.5t18.5 -122.5q0 -58 -10.5 -119t-31 -118t-51 -104.5t-70.5 -78.5q-77 -57 -177 -57z
" />
    <glyph glyph-name="percent.tab" horiz-adv-x="893" 
d="M676 712h83l-504 -712h-83zM225 318q-36 0 -65.5 12t-50 34.5t-32 53.5t-11.5 69q0 51 14.5 95.5t41 76.5t62.5 50.5t79 18.5q74 0 115.5 -46.5t41.5 -122.5q0 -52 -15 -96t-41.5 -76.5t-62 -50.5t-76.5 -18zM227 391q23 0 41 15.5t30.5 41t19 58t6.5 66.5q0 39 -15.5 62
t-47.5 23q-23 0 -41.5 -15t-31 -40t-19 -57t-6.5 -66q0 -39 15 -63.5t49 -24.5zM669 -17q-36 0 -65.5 12t-50 34t-32 53.5t-11.5 69.5q0 51 14.5 95.5t41 76.5t62.5 50.5t79 18.5q74 0 115.5 -46.5t41.5 -122.5q0 -52 -15 -96t-41.5 -76.5t-62 -50.5t-76.5 -18zM671 56
q23 0 41 15.5t30.5 41t19 58t6.5 65.5q0 40 -16 63t-47 23q-23 0 -41.5 -15.5t-31 -40.5t-19 -57t-6.5 -65q0 -40 15 -64t49 -24z" />
    <glyph glyph-name="perthousand.tab" horiz-adv-x="1190" 
d="M210 324q-71 0 -111 45t-40 119q0 53 15 97t41 76t61 49.5t74 17.5q71 0 110 -44t39 -121q0 -53 -15 -97t-40.5 -75.5t-60 -49t-73.5 -17.5zM213 397q21 0 38 15t29 39.5t18.5 56.5t6.5 67q0 38 -14 60.5t-43 22.5q-22 0 -39.5 -15.5t-30 -40.5t-19 -57t-6.5 -65
q0 -37 14 -60t46 -23zM634 712h82l-503 -712h-83zM596 -17q-70 0 -110.5 45t-40.5 119q0 53 15 97t41 76t61 49.5t74 17.5q71 0 110.5 -44t39.5 -121q0 -53 -15 -97t-40.5 -75.5t-60.5 -49t-74 -17.5zM599 55q21 0 38.5 15t29.5 40t18.5 57t6.5 67q0 38 -14.5 60.5
t-43.5 22.5q-21 0 -38.5 -15.5t-30 -40.5t-19 -57t-6.5 -65q0 -37 13.5 -60.5t45.5 -23.5zM972 -17q-71 0 -111 45t-40 119q0 53 15 97t41 76t61 49.5t74 17.5q71 0 110 -44t39 -121q0 -53 -15 -97t-40.5 -75.5t-60 -49t-73.5 -17.5zM975 55q21 0 38 15t29 40t18.5 57
t6.5 67q0 38 -14 60.5t-43 22.5q-22 0 -39.5 -15.5t-30 -40.5t-19 -57t-6.5 -65q0 -37 14 -60.5t46 -23.5z" />
    <glyph glyph-name="minus.tab" 
d="M108 390h481l-19 -98h-482z" />
    <glyph glyph-name="multiply.tab" 
d="M82 174l189 167l-137 165l76 66l137 -165l187 165l61 -69l-189 -166l137 -165l-76 -66l-137 164l-188 -165z" />
    <glyph glyph-name="divide.tab" 
d="M321 602h137l-25 -130h-137zM112 391h473l-20 -100h-472zM245 209h137l-26 -129h-136z" />
    <glyph glyph-name="plusminus.tab" 
d="M118 442h189l33 170h105l-34 -170h188l-20 -99h-187l-34 -172h-104l33 172h-188zM52 97h480l-19 -97h-480z" />
    <glyph glyph-name="notequal.tab" 
d="M130 473h267l79 114h88l-79 -114h118l-20 -96h-164l-74 -106h219l-19 -96h-266l-79 -114h-88l79 114h-119l19 96h166l74 106h-221z" />
    <glyph glyph-name="approxequal.tab" 
d="M469 357q-30 0 -62 6t-62.5 13t-58 13t-47.5 6q-39 0 -49 -45h-87q11 76 49.5 112t92.5 36q30 0 62 -6t62 -13.5t56 -13.5t45 -6q23 0 34.5 11t15.5 32h88q-9 -69 -43 -107t-96 -38zM433 155q-30 0 -62 6t-62.5 13t-58 13t-47.5 6q-40 0 -49 -45h-87q11 77 49 112.5
t92 35.5q30 0 62 -6t62 -13.5t56.5 -13.5t45.5 -6q23 0 34 11t15 32h88q-9 -69 -43 -107t-95 -38z" />
    <glyph glyph-name="lessequal.tab" 
d="M71 98h438l-19 -98h-437zM109 296l25 126l467 147l-22 -112l-230 -67q-21 -6 -46 -12.5t-47 -11.5q-26 -6 -51 -12v-2q23 -6 46 -13q20 -6 42.5 -13t42.5 -14l201 -71l-21 -107z" />
    <glyph glyph-name="greaterequal.tab" 
d="M495 0h-438l19 98h438zM574 407l-25 -126l-467 -147l22 112l230 67q20 5 45.5 12t47.5 12q26 6 51 12v2q-23 6 -46 13q-20 6 -42.5 13t-42.5 14l-201 71l21 107z" />
    <glyph glyph-name="less.tab" 
d="M581 445l-238 -78q-25 -8 -50.5 -15.5t-47.5 -14.5q-26 -8 -49 -15v-2q21 -7 44 -15q19 -7 42 -15t43 -16l207 -79l-22 -112l-414 181l23 120l484 178z" />
    <glyph glyph-name="equal.tab" 
d="M129 473h473l-19 -97h-473zM90 272h474l-20 -97h-472z" />
    <glyph glyph-name="greater.tab" 
d="M88 199l238 78q24 8 50 15.5t48 14.5q26 8 50 15v2q-22 7 -44 15q-20 7 -42.5 15t-42.5 16l-208 80l23 112l413 -182l-23 -120l-483 -178z" />
    <glyph glyph-name="space.tab" horiz-adv-x="322" 
 />
    <glyph glyph-name="comma.tab" horiz-adv-x="322" 
d="M22 -110q30 5 51.5 25.5t30.5 71.5l2 13h-63l27 139h138l-31 -155q-8 -41 -22.5 -69t-35 -46t-48 -27t-60.5 -11z" />
    <glyph glyph-name="period.tab" horiz-adv-x="322" 
d="M70 139h138l-28 -139h-137z" />
    <glyph glyph-name="colon.tab" horiz-adv-x="322" 
d="M132 457h137l-27 -138h-137zM70 139h138l-28 -139h-137z" />
    <glyph glyph-name="semicolon.tab" horiz-adv-x="322" 
d="M132 457h137l-27 -138h-137zM22 -110q30 5 51.5 25.5t30.5 71.5l2 13h-63l27 139h138l-31 -155q-8 -41 -22.5 -69t-35 -46t-48 -27t-60.5 -11z" />
    </font>
</defs>
</svg>
