<svg
 xmlns="http://www.w3.org/2000/svg"
 xmlns:xlink="http://www.w3.org/1999/xlink"
 x="0px" y="0px"
 viewBox="0 0 155 155">>
<path fill-rule="evenodd"
 d="M136.929,75.052 C133.432,69.031 128.513,64.204 122.364,60.570 C117.768,57.893 113.003,56.193 107.633,55.464 L107.633,36.332 C113.003,34.050 116.335,29.000 116.335,23.108 C116.335,15.077 109.900,8.569 101.882,8.569 C93.857,8.569 87.309,15.077 87.309,23.108 C87.309,29.000 90.450,34.050 95.819,36.332 L95.819,55.472 C91.524,56.093 87.069,57.434 83.000,59.493 C74.691,53.177 47.445,32.459 31.506,20.357 C31.884,18.994 32.175,17.588 32.175,16.105 C32.175,7.209 24.977,-0.000 16.086,-0.000 C7.195,-0.000 -0.000,7.209 -0.000,16.105 C-0.000,24.998 7.202,32.211 16.093,32.211 C19.126,32.211 21.932,31.323 24.352,29.863 L27.716,32.417 L73.935,65.744 C71.492,67.989 69.216,70.543 67.396,73.409 C63.707,79.250 61.453,85.677 61.453,92.688 L61.453,94.151 C61.453,99.073 62.387,103.719 63.978,108.084 C65.380,111.895 67.429,115.360 69.967,118.493 L54.627,133.882 C53.267,133.380 51.837,133.105 50.345,133.105 C47.025,133.105 43.910,134.403 41.561,136.750 C39.211,139.102 37.923,142.227 37.923,145.552 C37.924,148.877 39.218,152.001 41.568,154.352 C43.917,156.703 47.039,158.000 50.362,158.000 C53.685,158.000 56.808,156.703 59.159,154.352 C61.504,152.001 62.799,148.875 62.799,145.552 C62.799,144.266 62.601,143.010 62.227,141.817 L78.082,125.948 C80.256,127.450 82.603,128.716 85.127,129.806 C90.105,131.960 95.599,133.273 101.612,133.273 L102.714,133.273 C109.362,133.273 115.633,131.710 121.528,128.513 C127.740,125.135 132.602,120.516 136.275,114.618 C139.967,108.705 142.000,102.171 142.000,94.983 L142.000,94.624 C142.000,87.553 140.364,81.029 136.929,75.052 L136.929,75.052 ZM117.556,108.342 C113.253,113.128 108.306,116.076 102.714,116.076 L101.793,116.076 C98.599,116.076 95.475,115.192 92.416,113.585 C88.969,111.816 86.348,109.293 84.203,106.097 C81.987,102.961 80.784,99.537 80.784,95.906 L80.784,94.803 C80.784,91.234 81.468,87.849 83.193,84.653 C85.037,81.159 87.527,78.442 90.839,76.281 C94.091,74.136 97.565,73.084 101.433,73.084 L101.793,73.084 C105.300,73.084 108.621,73.776 111.755,75.381 C114.948,77.092 117.556,79.430 119.579,82.505 C121.543,85.581 122.711,88.899 123.087,92.513 C123.146,93.264 123.176,94.034 123.176,94.769 C123.176,99.674 121.304,104.218 117.556,108.342 L117.556,108.342 Z"/>
</svg>
