<svg version="1.1" id="Layer_1" xmlns="http://www.w3.org/2000/svg" xmlns:xlink="http://www.w3.org/1999/xlink" x="0px" y="0px"
	 viewBox="0 0 155 155" style="enable-background:new 0 0 155 155;" xml:space="preserve">
<path d="M154.1,96.2l0.9-0.9v0.9H154.1z M152.3,96.2l2.7-2.7v1.3l-1.3,1.3H152.3z M143.3,96.2l0.6-0.6l-0.2-0.1v-0.2l-1,1h-1.3
	l2.5-2.4l-0.2-0.2v-0.2l-2.8,2.8h-1v-0.4l3.9-3.8l-0.2-0.2v-0.2l-3.7,3.7V94l3.9-3.8l-0.2-0.2v-0.2l-3.7,3.7v-1.3l3.5-3.5h0.7
	l-0.5-0.5v-1l1.5,1.6l0.1-0.1h0.7l-2.3-2.3v-1l3.3,3.3l0.1-0.1h0.7l-4.1-4.1v-1l5.1,5.1l0.1-0.1h0.7l-5.9-5.9v-1l7,7l0.1-0.1h1.3
	l-0.9,0.9v0.5l1.3-1.3h1.3l-2.7,2.7v0.5l3.2-3.2h0.6v0.7l-3.7,3.7v0.4l3.7-3.7v1.3l-3.7,3.7v0.5l3.7-3.7v1.3l-3.2,3.2H143.3z
	 M144.6,89l-0.4,0.4l0.3,0.3l0.4-0.4L144.6,89z M144.6,90.8l-0.4,0.4l0.3,0.3l0.4-0.4L144.6,90.8z M144.6,92.6l-0.4,0.4l0.3,0.3
	l0.4-0.4L144.6,92.6z M144.6,94.4l-0.4,0.4l0.3,0.2l0.4-0.4L144.6,94.4z M145.5,89.9l-0.4,0.4l0.2,0.3l0.4-0.4L145.5,89.9z
	 M145.5,91.7l-0.4,0.4l0.2,0.3l0.4-0.4L145.5,91.7z M145.5,93.5l-0.4,0.4l0.2,0.2l0.4-0.4L145.5,93.5z M145.5,95.4l-0.4,0.4l0.2,0.2
	l0.4-0.4L145.5,95.4z M146.4,89l-0.4,0.4l0.2,0.3l0.4-0.4L146.4,89z M146.4,90.8l-0.4,0.4l0.2,0.3l0.4-0.4L146.4,90.8z M146.4,92.6
	l-0.4,0.4l0.2,0.3l0.4-0.4L146.4,92.6z M146.4,94.4l-0.4,0.4l0.2,0.2l0.4-0.4L146.4,94.4z M147.3,89.9l-0.4,0.4l0.2,0.3l0.4-0.4
	L147.3,89.9z M147.3,91.7l-0.4,0.4l0.2,0.3l0.4-0.4L147.3,91.7z M147.3,93.5l-0.4,0.4l0.2,0.2l0.4-0.4L147.3,93.5z M147.3,95.4
	l-0.4,0.4l0.2,0.2l0.4-0.4L147.3,95.4z M148.2,89l-0.4,0.4l0.2,0.3l0.4-0.4L148.2,89z M148.2,90.8l-0.4,0.4l0.2,0.3l0.4-0.4
	L148.2,90.8z M148.2,92.6l-0.4,0.4l0.2,0.3l0.4-0.4L148.2,92.6z M148.2,94.4l-0.4,0.4l0.2,0.2l0.4-0.4L148.2,94.4z M149.1,89.9
	l-0.4,0.4l0.2,0.3l0.4-0.4L149.1,89.9z M149.1,91.7l-0.4,0.4l0.2,0.3l0.4-0.4L149.1,91.7z M149.1,93.5l-0.4,0.4l0.2,0.2l0.4-0.4
	L149.1,93.5z M149.1,95.4l-0.4,0.4l0.2,0.2l0.4-0.4L149.1,95.4z M150,89l-0.4,0.4l0.2,0.3l0.4-0.4L150,89z M150,90.8l-0.4,0.4
	l0.2,0.3l0.4-0.4L150,90.8z M150,92.6l-0.4,0.4l0.2,0.3l0.4-0.4L150,92.6z M150,94.4l-0.4,0.4l0.2,0.2l0.4-0.4L150,94.4z
	 M150.9,89.9l-0.4,0.4l0.2,0.3l0.4-0.4L150.9,89.9z M150.9,91.7l-0.4,0.4l0.2,0.3l0.4-0.4L150.9,91.7z M150.9,93.5l-0.4,0.4l0.2,0.2
	l0.4-0.4L150.9,93.5z M150.9,95.4l-0.4,0.4l0.2,0.2l0.4-0.4L150.9,95.4z M143.8,72.8l7.5,7.5v1l-7.5-7.5V72.8z M143.8,74.6l7.5,7.5
	v1l-7.5-7.5V74.6z M143.8,76.4l7.5,7.5v1l-7.5-7.5V76.4z M151.3,88.5l-7.5-7.5v-1l7.5,7.5V88.5z M143.8,78.2l7.5,7.5v1l-7.5-7.5
	V78.2z M151.3,66.8l-0.5-0.5h-0.9l1.3,1.3v1l-2.3-2.3h-0.9l3.2,3.2v1l-3.7-3.7l-0.3,0.5l4,4.1v1l-4.4-4.4l-0.4,0.5l4.8,4.7v1
	l-5.1-5.1l-0.4,0.5l5.5,5.4v1l-5.8-5.8l-0.3,0.5l6.1,6.1v1l-6.5-6.5l-0.3,0.5l6.8,6.8v1l-7.2-7.2l-7.8,12.3l-7.6-12l-7.4,7.4v-1.3
	l6.9-6.8l-0.2-0.3l-6.7,6.7v-1.3l6.2-6.2l-0.2-0.3l-6,6V75l5.5-5.5l-0.2-0.3l-5.3,5.3v-1.3l4.8-4.8l-0.2-0.3l-4.6,4.6v-1.3l4.1-4.1
	l-0.2-0.3l-3.9,3.9v-1.3l3.4-3.4l-0.2-0.3l-3.2,3.2v-1.3L124,65l-0.2-0.3l-2.5,2.5v-1H121l2.3-2.4l-0.2-0.3l-2.6,2.6h-1.3l3.4-3.4
	l-0.2-0.3l-3.7,3.7h-1.1v-0.2l4.3-4.3l-0.2-0.3l-4.1,4.1v-1.3l3.6-3.6l-0.2-0.3l-3.4,3.4v-1.3l2.9-2.9l-0.2-0.3l-2.7,2.7v-1.3
	l1.8-1.8h9.5l7.4,11.7l7.4-11.7H155v7.5h-3.7V66.8z M117.6,58.8L117.6,58.8l1.3-0.1l-1.3,1.4V58.8z M111.3,66.8l-7.5-7.5v0.9
	l7.5,7.5v1l-7.5-7.5v0.9l7.5,7.5V85c0,0.2,0,0.4,0,0.6c0,0.2,0,0.4-0.1,0.6l-10.1,10.1c-0.2,0-0.4,0.1-0.6,0.1c-0.2,0-0.4,0-0.6,0
	h-5.2c-1.6,0-3-0.3-4.4-0.9c-1.4-0.6-2.5-1.4-3.6-2.4c-1-1-1.8-2.2-2.4-3.6c-0.6-1.4-0.9-2.8-0.9-4.4v-0.1l7.5-7.5v1.3L84.9,85h0.5
	l5.8-5.8v1.3L86.7,85h0.5l4-4v1.3L88.5,85H89l2.1-2.1v1.3L90.3,85h0.4l0.4-0.3V85c0,1,0.4,1.9,1.1,2.6c0.7,0.7,1.6,1.1,2.6,1.1h5.2
	c0.6,0,1.2-0.1,1.7-0.4l-1.7,1.7v0.5l5.7-5.7l-0.2-0.2l-0.4,0.4h-0.1l-1.7,1.7c0.3-0.5,0.4-1.1,0.4-1.7v-0.1l0.2-0.2l-0.2-0.2v-1.4
	L104,83l-0.2-0.2v-1.4l0.2-0.2l-0.2-0.2v-1.4l0.2-0.2l-0.2-0.2v-1.5l0.2-0.2l-0.2-0.2v-1.5l0.2-0.2l-0.2-0.2v-1.5l0.2-0.2l-0.2-0.2
	v-1.5l0.2-0.2l-0.2-0.2v-1.4l0.2-0.2l-0.2-0.2v-1l0.9,0.9h0.8l-1.7-1.7v-1l2.6,2.6h0.9l-3.5-3.5v-0.3h-3.7v-7.5h4.2l7,7V65l-6.2-6.2
	h1l5.2,5.2v-0.9l-4.4-4.4h1l3.4,3.4v-0.9l-2.6-2.6h1l1.6,1.6v-0.9l-0.7-0.7h4.5v7.5h-3.7V66.8z M104.7,71l-0.4,0.4l0.2,0.2l0.4-0.4
	L104.7,71z M104.7,72.8l-0.4,0.4l0.2,0.2l0.4-0.4L104.7,72.8z M104.7,74.6l-0.4,0.4l0.2,0.2l0.4-0.4L104.7,74.6z M104.7,76.4
	l-0.4,0.4l0.2,0.3l0.4-0.4L104.7,76.4z M104.7,78.2l-0.4,0.4l0.2,0.3l0.4-0.4L104.7,78.2z M104.7,80l-0.4,0.4l0.2,0.3l0.4-0.4
	L104.7,80z M104.7,81.8l-0.4,0.4l0.2,0.2l0.4-0.4L104.7,81.8z M104.7,83.6l-0.4,0.4l0.2,0.2l0.4-0.4L104.7,83.6z M105.6,70.1
	l-0.4,0.4l0.2,0.2l0.4-0.4L105.6,70.1z M105.6,71.9l-0.4,0.4l0.2,0.2l0.4-0.4L105.6,71.9z M105.6,73.7l-0.4,0.4l0.2,0.2l0.4-0.4
	L105.6,73.7z M105.6,75.5l-0.4,0.4l0.2,0.2l0.4-0.4L105.6,75.5z M105.6,77.3l-0.4,0.4l0.2,0.3l0.4-0.4L105.6,77.3z M105.6,79.1
	l-0.4,0.4l0.2,0.3l0.4-0.4L105.6,79.1z M105.6,80.9l-0.4,0.4l0.2,0.2l0.4-0.4L105.6,80.9z M105.6,82.7l-0.4,0.4l0.2,0.2l0.4-0.4
	L105.6,82.7z M111,70.1l-0.4,0.4l0.3,0.2l0.4-0.4L111,70.1z M111,71.9l-0.4,0.4l0.3,0.2l0.4-0.4L111,71.9z M111,73.7l-0.4,0.4
	l0.3,0.2l0.4-0.4L111,73.7z M111,75.5l-0.4,0.4l0.3,0.2l0.4-0.4L111,75.5z M111,77.3l-0.4,0.4l0.3,0.3l0.4-0.4L111,77.3z M111,79.1
	l-0.4,0.4l0.3,0.3l0.4-0.4L111,79.1z M111,80.9l-0.4,0.4l0.3,0.2l0.4-0.4L111,80.9z M111,82.7l-0.4,0.4l0.3,0.2l0.4-0.4L111,82.7z
	 M100.1,95.9l11.1-11.2l-0.2-0.2l-0.4,0.4l-10.5,10.5V95.9z M110.1,72.8l-0.4,0.4l0.3,0.2l0.4-0.4L110.1,72.8z M110.4,71.2l-0.3-0.2
	l-0.4,0.4l0.3,0.2L110.4,71.2z M110.1,74.6l-0.4,0.4l0.3,0.2l0.4-0.4L110.1,74.6z M110.1,76.4l-0.4,0.4l0.3,0.3l0.4-0.4L110.1,76.4z
	 M110.1,78.2l-0.4,0.4l0.3,0.3l0.4-0.4L110.1,78.2z M110.1,80l-0.4,0.4l0.3,0.3l0.4-0.4L110.1,80z M110.1,81.8l-0.4,0.4l0.3,0.2
	l0.4-0.4L110.1,81.8z M110.1,83.6l-0.4,0.4l0.3,0.2l0.4-0.4L110.1,83.6z M100.1,94.1l9.4-9.4l-0.3-0.2l-0.4,0.4l-8.7,8.7V94.1z
	 M109.2,71.9l-0.4,0.4l0.3,0.2l0.4-0.4L109.2,71.9z M109.5,70.3l-0.3-0.2l-0.4,0.4l0.3,0.2L109.5,70.3z M109.2,73.7l-0.4,0.4
	l0.3,0.2l0.4-0.4L109.2,73.7z M109.2,75.5l-0.4,0.4l0.3,0.2l0.4-0.4L109.2,75.5z M109.2,77.3l-0.4,0.4L109,78l0.4-0.4L109.2,77.3z
	 M109.2,79.1l-0.4,0.4l0.3,0.3l0.4-0.4L109.2,79.1z M109.2,80.9l-0.4,0.4l0.3,0.2l0.4-0.4L109.2,80.9z M109.2,82.7l-0.4,0.4l0.3,0.2
	l0.4-0.4L109.2,82.7z M108.3,72.8l-0.4,0.4l0.3,0.2l0.4-0.4L108.3,72.8z M108.6,71.2l-0.3-0.2l-0.4,0.4l0.3,0.2L108.6,71.2z
	 M108.3,74.6l-0.4,0.4l0.3,0.2l0.4-0.4L108.3,74.6z M108.3,76.4l-0.4,0.4l0.3,0.3l0.4-0.4L108.3,76.4z M108.3,78.2l-0.4,0.4l0.3,0.3
	l0.4-0.4L108.3,78.2z M108.3,80l-0.4,0.4l0.3,0.3l0.4-0.4L108.3,80z M108.3,81.8l-0.4,0.4l0.3,0.2l0.4-0.4L108.3,81.8z M108.3,83.6
	l-0.4,0.4l0.3,0.2l0.4-0.4L108.3,83.6z M100.1,91.8v0.5l7.5-7.5l-0.3-0.2l-0.4,0.4L100.1,91.8z M107.4,73.7l-0.4,0.4l0.3,0.2
	l0.4-0.4L107.4,73.7z M107.6,72.1l-0.3-0.2l-0.4,0.4l0.3,0.2L107.6,72.1z M107.4,75.5l-0.4,0.4l0.3,0.2l0.4-0.4L107.4,75.5z
	 M107.4,77.3l-0.4,0.4l0.3,0.3l0.4-0.4L107.4,77.3z M107.4,79.1l-0.4,0.4l0.3,0.3l0.4-0.4L107.4,79.1z M107.4,80.9l-0.4,0.4l0.3,0.2
	l0.4-0.4L107.4,80.9z M107.4,82.7l-0.4,0.4l0.3,0.2l0.4-0.4L107.4,82.7z M106.5,71l-0.4,0.4l0.2,0.2l0.4-0.4L106.5,71z M106.5,72.8
	l-0.4,0.4l0.2,0.2l0.4-0.4L106.5,72.8z M106.5,74.6l-0.4,0.4l0.2,0.2l0.4-0.4L106.5,74.6z M106.5,76.4l-0.4,0.4l0.2,0.3l0.4-0.4
	L106.5,76.4z M106.5,78.2l-0.4,0.4l0.2,0.3l0.4-0.4L106.5,78.2z M106.5,80l-0.4,0.4l0.2,0.3l0.4-0.4L106.5,80z M106.5,81.8l-0.4,0.4
	l0.2,0.2l0.4-0.4L106.5,81.8z M106.5,83.6l-0.4,0.4l0.2,0.2l0.4-0.4L106.5,83.6z M106.9,70.5l0.3,0.2l0.4-0.4l-0.3-0.2L106.9,70.5z
	 M103.8,65.6l4.4,4.4h0.9l-5.3-5.3V65.6z M103.8,63.8l6.3,6.3h0.9l-7.1-7.1V63.8z M83.6,73.5v-1.3l5.9-5.9h-0.5l-5.5,5.5v-1.3
	l4.1-4.1h-0.4L83.6,70v-1.3l2.4-2.4h-0.5l-1.9,1.9v-1.3l0.5-0.5h-0.5l-0.1,0.1v-0.1h-3.7v-7.5h15v7.5h-4L83.6,73.5z M68,96.4
	c-0.2,0-0.5,0.1-0.7,0.1c-0.2,0-0.5,0-0.8,0.1l11.4-11.4c0,0.2,0,0.3,0,0.5c0,0.2,0,0.3,0,0.5c0,0.1,0,0.3-0.1,0.4L68,96.4z
	 M65.8,96.6c-0.2,0-0.4,0-0.5,0c-0.2,0-0.4,0-0.5-0.1l12.9-12.9c0.1,0.2,0.1,0.4,0.1,0.6c0,0.2,0,0.4,0.1,0.5L66,96.6H65.8z
	 M63.7,96.5c-0.2,0-0.4,0-0.6-0.1l14.2-14.2c0.2,0.4,0.3,0.7,0.3,1L64.2,96.5C64.1,96.5,63.9,96.5,63.7,96.5z M77.2,69.1v1h-1
	L77.2,69.1z M74.5,70l2.8-2.8v1.3L75.8,70H74.5z M72.6,70l4.6-4.6v1.3L74,70H72.6z M70.8,70l6.4-6.4v1.3L72.2,70H70.8z M69.7,70
	c-0.6-0.7-1.2-1.3-1.8-1.8c-0.6-0.5-1.2-0.9-1.8-1.3c-0.6-0.3-1.3-0.6-2.1-0.8c-0.8-0.2-1.7-0.3-2.7-0.3c-1.5,0-2.6,0.4-3.4,1.1
	c-0.8,0.7-1.2,1.5-1.2,2.3c0,1.4,1,2.6,3,3.4c1.1,0.5,2.6,0.9,4.5,1.2c0.5,0.1,1.1,0.2,1.6,0.3c0.5,0.1,1,0.2,1.4,0.3
	c0.2,0.1,0.3,0.1,0.5,0.1c0.1,0,0.3,0.1,0.4,0.1l-0.9,0.9v0.5l1.2-1.2c0.2,0.1,0.3,0.1,0.5,0.2c0.2,0,0.3,0.1,0.5,0.2l-2.2,2.2v0.5
	l2.6-2.6c0.2,0.1,0.3,0.1,0.5,0.2c0.1,0.1,0.3,0.1,0.5,0.2l-3.5,3.5v0.5l3.8-3.8c0.3,0.2,0.6,0.3,0.9,0.4L67.1,81v0.4l5-5L73,77
	l-5.5,5.5c-0.1,0-0.2-0.1-0.4-0.2c-0.6-0.3-1.3-0.5-2-0.7c-0.7-0.2-1.4-0.3-2.1-0.4c-0.6-0.1-1.2-0.2-1.8-0.3
	c-0.6-0.1-1.1-0.3-1.6-0.4c-2.2-0.6-4.1-1.4-5.4-2.3c-1.4-0.9-2.4-1.9-3.2-3c-0.7-1.1-1.2-2.1-1.5-3.2c-0.2-1.1-0.4-2-0.4-2.8
	c0-1.5,0.3-3,0.9-4.3c0.6-1.3,1.5-2.5,2.6-3.4c1.1-1,2.4-1.7,3.8-2.3c1.5-0.6,3-0.8,4.8-0.8c1.8,0,3.4,0.2,4.8,0.5
	c1.4,0.3,2.6,0.8,3.7,1.4v-0.1l1.4-1.4h1.3l-2.8,2.8V62l3.3-3.3h1.3l-4.6,4.6v0.5l5.1-5.1h1.3l-6.4,6.4v0.5l6.9-6.9h0.6v0.7L69.8,67
	v0.5l7.5-7.5v1.3l-7.5,7.5v0.5l7.5-7.5v1.3L70.3,70H69.7z M69.8,58.8h1l-1,1V58.8z M47,72.1L36.4,82.7c-0.2,0-0.4,0-0.6,0
	c-0.2,0-0.4,0-0.7,0H35l12-12v0.1c0,0.2,0,0.5,0,0.7C47,71.7,47,71.9,47,72.1z M33.2,82.7L46.9,69c0,0.2,0.1,0.4,0.1,0.6
	c0,0.2,0,0.4,0.1,0.6L34.5,82.7H33.2z M31.3,82.7l15.2-15.2c0,0.2,0.1,0.4,0.1,0.6c0,0.2,0.1,0.4,0.1,0.6L32.7,82.7H31.3z
	 M29.5,82.7l16.6-16.6c0.1,0.2,0.1,0.3,0.2,0.5c0.1,0.2,0.1,0.3,0.2,0.5L30.9,82.7H29.5z M39.5,71l6-6c0.1,0.2,0.1,0.3,0.2,0.5
	c0.1,0.1,0.1,0.3,0.2,0.5L39,72.7C39.3,72.2,39.5,71.6,39.5,71z M39.3,69.4l5.5-5.5c0.1,0.1,0.2,0.3,0.3,0.4s0.2,0.3,0.3,0.4
	l-5.8,5.8C39.5,70,39.4,69.6,39.3,69.4z M38.7,68.1l5.3-5.3c0.2,0.3,0.4,0.5,0.6,0.7L39.1,69C39,68.7,38.8,68.4,38.7,68.1z
	 M38.2,67.6c-0.1-0.1-0.2-0.2-0.3-0.3l5.3-5.3c0.1,0.1,0.2,0.2,0.3,0.3c0.1,0.1,0.2,0.2,0.3,0.3l-5.3,5.3
	C38.4,67.8,38.3,67.7,38.2,67.6z M36.6,66.6l5.5-5.5c0.2,0.2,0.5,0.4,0.7,0.6L37.5,67C37.2,66.8,36.9,66.7,36.6,66.6z M35.1,66.3
	l5.9-5.9c0.1,0.1,0.3,0.2,0.4,0.2c0.1,0.1,0.3,0.2,0.4,0.3l-5.5,5.5C35.9,66.3,35.5,66.3,35.1,66.3z M33.3,66.3l0.2-0.2l-0.2-0.2
	l-0.4,0.4h-1.4l0.2-0.2l-0.2-0.2l-0.4,0.4h-1.3l0.2-0.2l-0.3-0.2l-0.4,0.4h-0.6v9h0.6l-0.6,0.6v0.5l1.1-1.1h1.3l-2.5,2.5v0.5
	l2.9-2.9h1.3l-4.3,4.3V80l4.8-4.8h1.3l-6.1,6.1v0.4l6.6-6.5c0.6,0,1.2-0.2,1.8-0.5l-8,8h-0.4v6h0.6l-0.2,0.2l0.2,0.2l0.4-0.4h1.3
	L31,88.9l0.2,0.2l0.4-0.4h0.8v0.7l-0.1-0.1l-0.4,0.4l0.2,0.2l0.3-0.3v1.6l-0.1-0.1l-0.4,0.4l0.2,0.2l0.3-0.3v1.6L32.3,93l-0.4,0.4
	l0.2,0.3l0.3-0.3v1.6l-0.1-0.2l-0.4,0.4l0.2,0.3l0.3-0.3v1.1h-1.1l0.3-0.3l-0.2-0.3L31,96.1l0.1,0.1h-1.6l0.3-0.3l-0.2-0.3l-0.4,0.4
	l0.1,0.1h-1.6l0.3-0.3l-0.2-0.3l-0.4,0.4l0.1,0.1h-1.6l0.3-0.3l-0.3-0.3l-0.4,0.4l0.1,0.1h-1.5l0.3-0.3l-0.3-0.3l-0.4,0.4l0.1,0.1
	h-1.5l0.3-0.3l-0.2-0.3l-0.4,0.4l0.1,0.1h-1.5l0.3-0.3l-0.2-0.3l-0.4,0.4l0.1,0.1h-1.6l0.3-0.3l-0.2-0.3l-0.4,0.4l0.1,0.1h-1v-1
	l0.2,0.2L18,95l-0.2-0.3l-0.4,0.4v-1.7l0.2,0.2l0.4-0.4L17.8,93l-0.4,0.4v-1.7l0.2,0.2l0.4-0.4l-0.2-0.2l-0.4,0.4v-1.7l0.2,0.2
	l0.4-0.4l-0.2-0.2l-0.4,0.4v-1h1l-0.2,0.2l0.2,0.2l0.4-0.4h1.3l-0.2,0.2l0.2,0.2l0.4-0.4h0.4V66.3h-0.1l-3.6-3.6v-1l4.6,4.6h0.9
	l-5.5-5.5v-1l6.4,6.4h0.9L17.4,59v-0.2h0.7l7.5,7.5h0.9L19,58.8h1l7.5,7.5h0.9l-7.5-7.5h1l6.8,6.8v-0.1l0.4-0.4l-0.3-0.2L28.7,65
	v-0.2l-6-6h1l5.1,5.1v-0.2l0.4-0.4l-0.3-0.2l-0.1,0.1V63l-4.2-4.2h1l3.3,3.3v-0.2l0.4-0.4l-0.3-0.2l-0.1,0.1v-0.2l-2.4-2.4h1
	l1.4,1.4v-0.2l0.4-0.3l-0.3-0.3l-0.1,0.1v-0.2l-0.6-0.6h1.4L29.3,59l0.3,0.3l0.4-0.4l-0.1-0.1h1.4L31.1,59l0.2,0.3l0.4-0.4v-0.1h1.4
	L32.9,59l0.2,0.3l0.4-0.4v-0.1h1.4L34.7,59l0.2,0.3l0.5-0.5c0.2,0,0.4,0,0.6,0c0.2,0,0.4,0,0.6,0.1l-1.9,1.9l0.2,0.3l2.1-2.1
	c0.2,0,0.4,0.1,0.6,0.1c0.2,0,0.4,0.1,0.6,0.2l-3.4,3.4l0.2,0.2l3.6-3.5l1,0.3l-4.8,4.8l0.2,0.2l4.9-4.9c0.3,0.1,0.6,0.3,0.9,0.4
	l-6,6H33.3z M31.2,94.6l0.4-0.4l-0.2-0.3L31,94.3L31.2,94.6z M31.2,92.7l0.4-0.4l-0.2-0.2L31,92.5L31.2,92.7z M31.2,90.9l0.4-0.4
	l-0.2-0.2L31,90.7L31.2,90.9z M30.3,95.5l0.4-0.4l-0.2-0.3l-0.4,0.4L30.3,95.5z M30.3,93.6l0.4-0.4L30.5,93l-0.4,0.4L30.3,93.6z
	 M30.3,91.8l0.4-0.4l-0.2-0.2l-0.4,0.4L30.3,91.8z M30.3,90l0.4-0.4l-0.2-0.2l-0.4,0.4L30.3,90z M29.4,94.6l0.4-0.4l-0.2-0.3
	l-0.4,0.4L29.4,94.6z M29.4,92.7l0.4-0.4l-0.2-0.2l-0.4,0.4L29.4,92.7z M29.4,90.9l0.4-0.4l-0.2-0.2l-0.4,0.4L29.4,90.9z M18.7,90.3
	l-0.4,0.4l0.2,0.2l0.4-0.4L18.7,90.3z M18.7,92.1l-0.4,0.4l0.2,0.2l0.4-0.4L18.7,92.1z M18.7,93.9l-0.4,0.4l0.2,0.3l0.4-0.4
	L18.7,93.9z M19.6,89.4l-0.4,0.4l0.2,0.2l0.4-0.4L19.6,89.4z M19.6,91.2l-0.4,0.4l0.2,0.2l0.4-0.4L19.6,91.2z M19.6,93l-0.4,0.4
	l0.2,0.3l0.4-0.4L19.6,93z M19.6,94.8l-0.4,0.4l0.2,0.3l0.4-0.4L19.6,94.8z M20.5,90.3l-0.4,0.4l0.2,0.2l0.4-0.4L20.5,90.3z
	 M20.5,92.1l-0.4,0.4l0.2,0.2l0.4-0.4L20.5,92.1z M20.5,93.9l-0.4,0.4l0.2,0.3l0.4-0.4L20.5,93.9z M21.5,89.4L21,89.8l0.2,0.2
	l0.4-0.4L21.5,89.4z M21.5,91.2L21,91.6l0.2,0.2l0.4-0.4L21.5,91.2z M21.5,93L21,93.4l0.2,0.3l0.4-0.4L21.5,93z M21.5,94.8L21,95.2
	l0.2,0.3l0.4-0.4L21.5,94.8z M22.1,88.7l-0.2,0.2l0.2,0.2l0.4-0.4H22.1z M22.4,90.3l-0.4,0.4l0.2,0.2l0.4-0.4L22.4,90.3z M22.4,92.1
	l-0.4,0.4l0.2,0.2l0.4-0.4L22.4,92.1z M22.4,93.9l-0.4,0.4l0.2,0.3l0.4-0.4L22.4,93.9z M23.2,89.4l-0.4,0.4l0.2,0.2l0.4-0.4
	L23.2,89.4z M23.2,91.2l-0.4,0.4l0.2,0.2l0.4-0.4L23.2,91.2z M23.2,93l-0.4,0.4l0.2,0.3l0.4-0.4L23.2,93z M23.2,94.8l-0.4,0.4
	l0.2,0.3l0.4-0.4L23.2,94.8z M23.9,88.7l-0.2,0.2l0.3,0.2l0.4-0.4H23.9z M24.1,90.3l-0.4,0.4l0.3,0.2l0.4-0.4L24.1,90.3z M24.1,92.1
	l-0.4,0.4l0.3,0.2l0.4-0.4L24.1,92.1z M24.1,93.9l-0.4,0.4l0.3,0.3l0.4-0.4L24.1,93.9z M25,89.4l-0.4,0.4l0.3,0.2l0.4-0.4L25,89.4z
	 M25,91.2l-0.4,0.4l0.3,0.2l0.4-0.4L25,91.2z M25,93l-0.4,0.4l0.3,0.3l0.4-0.4L25,93z M25,94.8l-0.4,0.4l0.3,0.3l0.4-0.4L25,94.8z
	 M25.7,88.7l-0.2,0.2l0.3,0.2l0.4-0.4H25.7z M25.9,90.3l-0.4,0.4l0.3,0.2l0.4-0.4L25.9,90.3z M25.9,92.1l-0.4,0.4l0.3,0.2l0.4-0.4
	L25.9,92.1z M25.9,93.9l-0.4,0.4l0.3,0.3l0.4-0.4L25.9,93.9z M26.9,89.4l-0.4,0.4l0.3,0.2l0.4-0.4L26.9,89.4z M26.9,91.2l-0.4,0.4
	l0.3,0.2l0.4-0.4L26.9,91.2z M26.9,93l-0.4,0.4l0.3,0.3l0.4-0.4L26.9,93z M26.9,94.8l-0.4,0.4l0.3,0.3l0.4-0.4L26.9,94.8z
	 M27.5,88.7l-0.2,0.2l0.3,0.2l0.4-0.4H27.5z M27.8,90.3l-0.4,0.4l0.3,0.2l0.4-0.4L27.8,90.3z M27.8,92.1l-0.4,0.4l0.3,0.2l0.4-0.4
	L27.8,92.1z M27.8,93.9l-0.4,0.4l0.3,0.3l0.4-0.4L27.8,93.9z M28.5,95.5l0.4-0.4l-0.2-0.3l-0.4,0.4L28.5,95.5z M28.5,93.6l0.4-0.4
	L28.7,93l-0.4,0.4L28.5,93.6z M28.5,91.8l0.4-0.4l-0.2-0.2l-0.4,0.4L28.5,91.8z M28.2,89.8l0.2,0.2l0.4-0.4l-0.2-0.2L28.2,89.8z
	 M29.7,60.4l-0.4,0.4l0.3,0.3l0.4-0.4L29.7,60.4z M29.7,62.2l-0.4,0.4l0.3,0.2l0.4-0.4L29.7,62.2z M29.7,64l-0.4,0.4l0.3,0.2
	l0.4-0.4L29.7,64z M30.6,59.5l-0.4,0.4l0.3,0.3l0.4-0.4L30.6,59.5z M30.6,61.3l-0.4,0.4l0.3,0.2l0.4-0.4L30.6,61.3z M30.6,63.1
	l-0.4,0.4l0.3,0.2l0.4-0.4L30.6,63.1z M30.6,64.9l-0.4,0.4l0.3,0.2l0.4-0.4L30.6,64.9z M31.5,60.4l-0.4,0.4l0.2,0.3l0.4-0.4
	L31.5,60.4z M31.5,62.2l-0.4,0.4l0.2,0.2l0.4-0.4L31.5,62.2z M31.5,64l-0.4,0.4l0.2,0.2l0.4-0.4L31.5,64z M32.4,59.5L32,59.9
	l0.2,0.3l0.4-0.4L32.4,59.5z M32.4,61.3L32,61.7l0.2,0.2l0.4-0.4L32.4,61.3z M32.4,63.1L32,63.5l0.2,0.2l0.4-0.4L32.4,63.1z
	 M32.4,64.9L32,65.4l0.2,0.2l0.4-0.4L32.4,64.9z M33.3,60.4l-0.4,0.4l0.2,0.3l0.4-0.4L33.3,60.4z M33.3,62.2l-0.4,0.4l0.2,0.2
	l0.4-0.4L33.3,62.2z M33.3,64l-0.4,0.4l0.2,0.2l0.4-0.4L33.3,64z M34.2,59.5l-0.4,0.4l0.2,0.3l0.4-0.4L34.2,59.5z M34.2,61.3
	l-0.4,0.4l0.2,0.2l0.4-0.4L34.2,61.3z M34.2,63.1l-0.4,0.4l0.2,0.2l0.4-0.4L34.2,63.1z M34.2,64.9l-0.4,0.4l0.2,0.2l0.4-0.4
	L34.2,64.9z M11.2,93.3v0.6L11.1,94l2.2,2.2h-1l-1.1-1.1v0.6l-0.1,0.1l0.4,0.4H3.3L0,92.9v-1l3.7,3.7v-0.9L0,91.1v-1l3.7,3.7V93
	L0,89.3v-0.5h0.4L3.7,92v-0.9l-2.5-2.5h1l1.5,1.5v-0.9l-0.6-0.6h0.6h0.3l0.1,0.1l7.1-7.1v1.3l-5.7,5.7h0.3l0.1,0.1l5.3-5.3v1.3
	l-3.8,3.8h0.3l0.1,0.1l3.5-3.5v1.3l-2,2h0.3l0.1,0.1l1.7-1.7v1.3L11,88.7h0.3l3.7,3.7v1l-3.7-3.7v0.6l-0.1,0.1l3.8,3.8v1l-3.7-3.7
	v0.6l-0.1,0.1l3.8,3.8v0.2h-0.8L11.2,93.3z M4.3,90l-0.4,0.4l0.2,0.3l0.4-0.4L4.3,90z M4.3,91.8l-0.4,0.4l0.2,0.2L4.5,92L4.3,91.8z
	 M4.3,93.6L3.9,94l0.2,0.2l0.4-0.4L4.3,93.6z M4.3,95.4l-0.4,0.4l0.2,0.2l0.4-0.4L4.3,95.4z M5.2,89l-0.4,0.4L5,89.7l0.4-0.4L5.2,89
	z M5.2,90.9l-0.4,0.4L5,91.6l0.4-0.4L5.2,90.9z M5.2,92.7l-0.4,0.4L5,93.3l0.4-0.4L5.2,92.7z M5.2,94.5l-0.4,0.4L5,95.1l0.4-0.4
	L5.2,94.5z M6.2,90l-0.4,0.4l0.2,0.3l0.4-0.4L6.2,90z M6.2,91.8l-0.4,0.4l0.2,0.2L6.4,92L6.2,91.8z M6.2,93.6L5.7,94l0.2,0.2
	l0.4-0.4L6.2,93.6z M6.2,95.4l-0.4,0.4l0.2,0.2l0.4-0.4L6.2,95.4z M7.1,89l-0.4,0.4l0.2,0.3l0.4-0.4L7.1,89z M7.1,90.9l-0.4,0.4
	l0.2,0.3l0.4-0.4L7.1,90.9z M7.1,92.7l-0.4,0.4l0.2,0.2l0.4-0.4L7.1,92.7z M7.1,94.5l-0.4,0.4l0.2,0.2l0.4-0.4L7.1,94.5z M8,90
	l-0.4,0.4l0.2,0.3l0.4-0.4L8,90z M8,91.8l-0.4,0.4l0.2,0.2L8.2,92L8,91.8z M8,93.6L7.5,94l0.2,0.2l0.4-0.4L8,93.6z M8,95.4l-0.4,0.4
	l0.2,0.2l0.4-0.4L8,95.4z M8.8,89l-0.4,0.4l0.2,0.3l0.4-0.4L8.8,89z M8.8,90.9l-0.4,0.4l0.2,0.3l0.4-0.4L8.8,90.9z M8.8,92.7
	l-0.4,0.4l0.2,0.2l0.4-0.4L8.8,92.7z M8.8,94.5l-0.4,0.4l0.2,0.2l0.4-0.4L8.8,94.5z M9.7,90l-0.4,0.4l0.3,0.3l0.4-0.4L9.7,90z
	 M9.7,91.8l-0.4,0.4l0.3,0.2L10,92L9.7,91.8z M9.7,93.6L9.3,94l0.3,0.2l0.4-0.4L9.7,93.6z M9.7,95.4l-0.4,0.4l0.3,0.2l0.4-0.4
	L9.7,95.4z M10.6,89l-0.4,0.4l0.3,0.3l0.4-0.4L10.6,89z M10.6,90.9l-0.4,0.4l0.3,0.3l0.4-0.4L10.6,90.9z M10.6,92.7l-0.4,0.4
	l0.3,0.2l0.4-0.4L10.6,92.7z M10.6,94.5l-0.4,0.4l0.3,0.2l0.4-0.4L10.6,94.5z M11.2,79.9v1.3l-7.5,7.5v-1.3L11.2,79.9z M13.1,88.7
	l1.9,1.9v1l-2.8-2.8H13.1z M14.9,88.7L14.9,88.7l0.1,1l-1-1H14.9z M15,65.3v1h-1L15,65.3z M12.2,66.3l2.8-2.8v1.3l-1.4,1.4H12.2z
	 M3.7,82l7.5-7.5v1.3l-7.5,7.5V82z M11.2,79.4l-7.5,7.5v-1.3l7.5-7.5V79.4z M3.7,83.8l7.5-7.5v1.3l-7.5,7.5V83.8z M11.2,66.3V74
	l-7.5,7.5v-1.3l6.4-6.4H9.7l-5.9,5.9v-1.3l4.6-4.6H7.9l-4.1,4.1v-1.3l2.8-2.8H6l-2.3,2.3v-1.3l1-1H4.3l-0.5,0.5v-8H3.2l0.6-0.6v-0.5
	l-1.1,1.1H1.3l2.4-2.4v-0.4l-2.8,2.8H0v-0.4l3.7-3.7v-0.5L0,65.4V64l3.7-3.7v-0.5L0,63.5v-1.3l3.4-3.4H12l-0.7,0.7V60l1.2-1.2h1.3
	l-2.6,2.6v0.5l3-3H15v0.6l-3.7,3.7v0.5l3.7-3.7v1.3L11.2,65v0.5l3.7-3.7v1.3l-3.2,3.2H11.2z M0,60.4l1.6-1.6h1.3L0,61.7V60.4z
	 M0,58.8h1.1L0,59.9V58.8z M1.5,96.2L0,94.7v-1l2.5,2.5H1.5z M0,96.2v-0.7l0.7,0.7H0z M19.3,66.3l-1.8-1.8v-1l2.8,2.8H19.3z
	 M17.5,66.3L17.5,66.3l-0.1-1l1,1H17.5z M46.7,73.5c-0.1,0.3-0.1,0.6-0.2,0.9l-7.8,7.8c-0.3,0.1-0.6,0.2-0.9,0.2
	c-0.3,0.1-0.6,0.1-0.9,0.2l9.9-9.9C46.8,73,46.7,73.3,46.7,73.5z M44.2,78.5L42.7,80c-1,0.8-2.1,1.5-3.3,1.9l6.7-6.7
	C45.7,76.3,45,77.4,44.2,78.5z M57.3,85.4L57,85.7v0.5l0.6-0.6c0.1,0.1,0.2,0.3,0.3,0.4c0.1,0.1,0.2,0.2,0.3,0.3L57,87.5v0.4
	l-0.2-0.2l-0.4,0.4l0.2,0.3l1.9-1.9c0.2,0.2,0.5,0.4,0.7,0.6L57,89.3v0.4l-0.2-0.2L56.4,90l0.2,0.2l2.9-2.9c0.3,0.2,0.6,0.4,0.8,0.5
	L57,91.1v0.4l3.6-3.6c0.2,0.1,0.3,0.1,0.5,0.2c0.1,0.1,0.3,0.1,0.5,0.2L57,92.9v0.5l4.9-4.9c0.2,0.1,0.3,0.1,0.5,0.2
	c0.2,0,0.3,0.1,0.5,0.2l-5.8,5.8L57,94.6v0.6l-1.7-1.7l-0.1-0.1L55,93.2l-0.1,0.1c-0.1-0.1-0.3-0.2-0.4-0.3
	c-0.1-0.1-0.2-0.2-0.3-0.3l0.1-0.2l-0.2-0.2l-0.2,0.2c-0.1-0.1-0.2-0.2-0.3-0.3c-0.1-0.1-0.2-0.2-0.3-0.3l0.2-0.2l-0.2-0.2L53,91.6
	c-0.1-0.1-0.2-0.2-0.3-0.3c-0.1-0.1-0.2-0.2-0.3-0.3l0.2-0.2l-0.3-0.2l-0.2,0.2c-0.1-0.1-0.2-0.3-0.3-0.4c-0.1-0.1-0.2-0.2-0.3-0.3
	l0.2-0.2l-0.3-0.2l-0.2,0.2c-0.1-0.1-0.2-0.2-0.3-0.3c-0.1-0.1-0.2-0.2-0.3-0.3l0.2-0.1l-0.3-0.3l-0.1,0.1c-0.1-0.1-0.2-0.2-0.3-0.3
	c-0.1-0.1-0.2-0.2-0.3-0.3l0.1-0.1l-0.3-0.3v-1.3l0.3-0.3l-0.3-0.3V85H57C57.2,85.1,57.3,85.3,57.3,85.4z M56.6,93.8l0.4-0.4
	l-0.2-0.2l-0.4,0.4L56.6,93.8z M56.6,92l0.4-0.4l-0.2-0.2l-0.4,0.4L56.6,92z M50.5,86.8L50,87.2l0.3,0.3l0.4-0.4L50.5,86.8z
	 M51.4,85.9l-0.4,0.4l0.3,0.3l0.4-0.4L51.4,85.9z M51.4,87.7l-0.4,0.4l0.3,0.3l0.4-0.4L51.4,87.7z M52.3,86.8l-0.4,0.4l0.3,0.3
	l0.4-0.4L52.3,86.8z M52.3,88.6L51.8,89l0.3,0.2l0.4-0.4L52.3,88.6z M53.2,85.9l-0.4,0.4l0.3,0.3l0.4-0.4L53.2,85.9z M53.2,87.7
	l-0.4,0.4l0.3,0.3l0.4-0.4L53.2,87.7z M53.2,89.5L52.7,90l0.3,0.2l0.4-0.4L53.2,89.5z M54.1,86.8l-0.4,0.4l0.2,0.3l0.4-0.4
	L54.1,86.8z M54.1,88.6L53.7,89l0.2,0.2l0.4-0.4L54.1,88.6z M54.1,90.4l-0.4,0.4l0.2,0.2l0.4-0.4L54.1,90.4z M55,85.9l-0.4,0.4
	l0.2,0.3l0.4-0.4L55,85.9z M55,87.7l-0.4,0.4l0.2,0.3l0.4-0.4L55,87.7z M55,89.5L54.6,90l0.2,0.2l0.4-0.4L55,89.5z M55,91.3
	l-0.4,0.4l0.2,0.2l0.4-0.4L55,91.3z M55.9,86.8l-0.4,0.4l0.2,0.3l0.4-0.4L55.9,86.8z M55.9,88.6L55.5,89l0.2,0.2l0.4-0.4L55.9,88.6z
	 M55.9,90.4l-0.4,0.4l0.2,0.2l0.4-0.4L55.9,90.4z M55.9,92.3l-0.4,0.4l0.2,0.2l0.4-0.4L55.9,92.3z M56.8,85.9l-0.4,0.4l0.2,0.3
	l0.4-0.4L56.8,85.9z M57,96.2h-0.8l-6.7-6.7v-1l7.5,7.5V96.2z M54.5,96.2l-4.9-4.9v-0.9l5.8,5.8H54.5z M52.6,96.2l-3.1-3.1v-1
	l4.1,4.1H52.6z M50.8,96.2l-1.3-1.3v-1l2.2,2.2H50.8z M49.5,96.2v-0.4l0.4,0.4H49.5z M63.9,89c0.2,0,0.4,0,0.6,0.1l-6.1,6.1
	c-0.2-0.1-0.3-0.1-0.5-0.2c-0.1-0.1-0.3-0.1-0.5-0.2l5.9-5.9C63.5,89,63.7,89,63.9,89z M65.8,89.1h0.5l-6.6,6.6
	c-0.2-0.1-0.3-0.1-0.5-0.2c-0.2-0.1-0.3-0.1-0.5-0.2l6.3-6.2H65.8z M68.6,88.5l-7.5,7.5c-0.3,0-0.6-0.1-1-0.3l6.7-6.7
	C67.6,88.9,68.2,88.8,68.6,88.5z M76.2,80.3c0.1,0.1,0.2,0.3,0.2,0.4l-6.1,6.1c0.1-0.2,0.2-0.4,0.2-0.7c0-0.2,0-0.4-0.1-0.7l5.6-5.6
	C76.1,80,76.2,80.1,76.2,80.3z M75.5,79.2c0.1,0.1,0.2,0.2,0.3,0.3l-5.5,5.5c-0.1-0.3-0.2-0.6-0.4-0.9l5.3-5.3
	C75.3,79,75.4,79.1,75.5,79.2z M67.8,82.6l5.4-5.5c0.1,0.1,0.3,0.2,0.4,0.3c0.1,0.1,0.2,0.2,0.3,0.3l-5.3,5.3
	C68.4,82.9,68.1,82.8,67.8,82.6z M74.6,78.3c0.1,0.1,0.2,0.2,0.3,0.3l-5.3,5.3c-0.1-0.1-0.2-0.2-0.3-0.3c-0.1-0.1-0.2-0.2-0.4-0.3
	l5.3-5.3C74.4,78.1,74.5,78.2,74.6,78.3z M76.9,81.5c0.1,0.1,0.2,0.3,0.2,0.4L62.6,96.4c-0.2,0-0.4-0.1-0.6-0.1
	c-0.2,0-0.4-0.1-0.6-0.1L76.6,81C76.7,81.2,76.8,81.3,76.9,81.5z M77.8,87.8c0,0.2-0.1,0.5-0.2,0.8l-7.3,7.3
	c-0.3,0.1-0.6,0.1-0.9,0.2c-0.3,0.1-0.6,0.1-0.9,0.2l9.4-9.4C77.9,87.2,77.9,87.5,77.8,87.8z M75.7,92.3l-1.4,1.5
	c-1,0.8-2.1,1.4-3.2,1.9l6.4-6.4C77.1,90.3,76.5,91.3,75.7,92.3z M91.1,67.9l-7.5,7.5V74l7.5-7.5V67.9z M91.1,69.7l-7.5,7.5v-1.3
	l7.5-7.5V69.7z M91.1,71.5L83.6,79v-1.3l7.5-7.5V71.5z M91.1,73.3l-7.5,7.5v-1.3l7.5-7.5V73.3z M91.1,75.1l-7.5,7.5v-1.3l7.5-7.5
	V75.1z M91.1,76.9l-7.5,7.5v-1.3l7.5-7.5V76.9z M111,87.5c-0.1,0.3-0.1,0.6-0.2,0.9l-7.3,7.3c-0.3,0.1-0.6,0.2-0.9,0.2
	c-0.3,0.1-0.6,0.1-0.9,0.2l9.5-9.5C111.2,86.9,111.1,87.2,111,87.5z M108,92.9c-1.1,1.1-2.4,1.9-3.8,2.5l6.3-6.3
	C110,90.6,109.1,91.8,108,92.9z M125.6,96.2h-1l-7.1-7.1v-0.4h0.6L125.6,96.2z M122.9,96.2l-5.3-5.3v-1l6.3,6.3H122.9z M121.1,96.2
	l-3.5-3.5v-1l4.5,4.5H121.1z M119.3,96.2l-1.7-1.7v-1l2.7,2.7H119.3z M117.6,96.2v-0.9l0.9,0.9H117.6z M120,88.7l7.5,7.5h-1
	l-7.5-7.5H120z M128.8,79.7l-7.5,7.5v-1.3l7.5-7.5V79.7z M128.8,77.9l-7.5,7.5V84l7.5-7.5V77.9z M121.3,80.4l7.5-7.5v1.3l-7.5,7.5
	V80.4z M128.8,76.1l-7.5,7.5v-1.3l7.5-7.5V76.1z M121.3,88.7v-1.1l7.5-7.5v1.3l-7.2,7.2h0.2l7.5,7.5h-1l-7.5-7.5H121.3z M122,88.7
	l6.8-6.8v1.3l-5.5,5.5h0.3l7.5,7.5h-1l-7.5-7.5H122z M132.5,95l-6.3-6.3h-0.6l3.2-3.2v1.3l-1.8,1.8h0.2l5.3,5.3V95z M132.5,93.2
	l-4.5-4.5h-0.6l1.3-1.3v1.3h0.2l3.5,3.5V93.2z M132.5,89.6l-0.9-0.9h0.9V89.6z M132.5,91.4l-2.7-2.7h1l1.7,1.7V91.4z M123.8,88.7
	l5-5v1.3l-3.6,3.6h0.3l7.1,7.1v0.4H132l-7.5-7.5H123.8z M140,90v-1.2h1.2L140,90z M143.1,88.7l-3,3v-1.3l1.7-1.7H143.1z"/>
</svg>
